G04*
G04 #@! TF.GenerationSoftware,Altium Limited,Altium Designer,25.8.1 (18)*
G04*
G04 Layer_Physical_Order=2*
G04 Layer_Color=16711680*
%FSLAX25Y25*%
%MOIN*%
G70*
G04*
G04 #@! TF.SameCoordinates,0860631F-499F-4A24-BE49-AF4253F314F7*
G04*
G04*
G04 #@! TF.FilePolarity,Positive*
G04*
G01*
G75*
%ADD10C,0.00500*%
%ADD14C,0.01000*%
%ADD31R,0.04724X0.04724*%
%ADD63C,0.04724*%
%ADD64C,0.06102*%
%ADD67R,0.06102X0.06102*%
%ADD68R,0.06102X0.06102*%
%ADD69C,0.01803*%
%ADD70C,0.02000*%
%ADD71R,0.06299X0.06299*%
G36*
X856840Y1428D02*
X1529D01*
X1429Y155699D01*
X1783Y156052D01*
X83899D01*
X84167Y155052D01*
X84255Y154872D01*
X84320Y154683D01*
X85013Y153482D01*
X85145Y153332D01*
X85256Y153165D01*
X86237Y152185D01*
X86403Y152074D01*
X86553Y151942D01*
X87754Y151248D01*
X87944Y151184D01*
X88123Y151095D01*
X89462Y150737D01*
X89662Y150724D01*
X89858Y150684D01*
X91245D01*
X91441Y150724D01*
X91641Y150737D01*
X92980Y151095D01*
X93160Y151184D01*
X93349Y151248D01*
X94550Y151942D01*
X94700Y152074D01*
X94867Y152185D01*
X95847Y153165D01*
X95958Y153331D01*
X96090Y153482D01*
X96784Y154683D01*
X96848Y154872D01*
X96936Y155052D01*
X97205Y156052D01*
X856840Y156052D01*
Y1428D01*
D02*
G37*
%LPC*%
G36*
X836207Y154052D02*
X835140D01*
X834110Y153776D01*
X833186Y153243D01*
X832432Y152489D01*
X831898Y151565D01*
X831622Y150534D01*
Y149468D01*
X831898Y148437D01*
X832432Y147513D01*
X833186Y146759D01*
X834110Y146226D01*
X835140Y145950D01*
X836207D01*
X837237Y146226D01*
X838161Y146759D01*
X838915Y147513D01*
X839449Y148437D01*
X839725Y149468D01*
Y150534D01*
X839449Y151565D01*
X838915Y152489D01*
X838161Y153243D01*
X837237Y153776D01*
X836207Y154052D01*
D02*
G37*
G36*
X810534D02*
X809467D01*
X808437Y153776D01*
X807513Y153243D01*
X806759Y152489D01*
X806225Y151565D01*
X805949Y150534D01*
Y149468D01*
X806225Y148437D01*
X806759Y147513D01*
X807513Y146759D01*
X808437Y146226D01*
X809467Y145950D01*
X810534D01*
X811564Y146226D01*
X812488Y146759D01*
X813242Y147513D01*
X813776Y148437D01*
X814052Y149468D01*
Y150534D01*
X813776Y151565D01*
X813242Y152489D01*
X812488Y153243D01*
X811564Y153776D01*
X810534Y154052D01*
D02*
G37*
G36*
X850534Y154051D02*
X849467D01*
X848437Y153775D01*
X847513Y153242D01*
X846759Y152488D01*
X846225Y151564D01*
X845949Y150533D01*
Y149467D01*
X846225Y148436D01*
X846759Y147512D01*
X847513Y146758D01*
X848437Y146225D01*
X849467Y145949D01*
X850534D01*
X851564Y146225D01*
X852488Y146758D01*
X853242Y147512D01*
X853776Y148436D01*
X854052Y149467D01*
Y150533D01*
X853776Y151564D01*
X853242Y152488D01*
X852488Y153242D01*
X851564Y153775D01*
X850534Y154051D01*
D02*
G37*
G36*
X700533Y144051D02*
X700500D01*
Y140500D01*
X704051D01*
Y140533D01*
X703775Y141564D01*
X703242Y142488D01*
X702488Y143242D01*
X701564Y143775D01*
X700533Y144051D01*
D02*
G37*
G36*
X699500D02*
X699467D01*
X698436Y143775D01*
X697512Y143242D01*
X696758Y142488D01*
X696225Y141564D01*
X695949Y140533D01*
Y140500D01*
X699500D01*
Y144051D01*
D02*
G37*
G36*
X670511Y144061D02*
X669444D01*
X668414Y143785D01*
X667490Y143251D01*
X666736Y142497D01*
X666202Y141573D01*
X665926Y140543D01*
Y139476D01*
X666202Y138446D01*
X666736Y137522D01*
X667490Y136768D01*
X668414Y136234D01*
X669444Y135958D01*
X670511D01*
X671541Y136234D01*
X672465Y136768D01*
X673219Y137522D01*
X673752Y138446D01*
X674029Y139476D01*
Y140543D01*
X673752Y141573D01*
X673219Y142497D01*
X672465Y143251D01*
X671541Y143785D01*
X670511Y144061D01*
D02*
G37*
G36*
X836207Y144052D02*
X835140D01*
X834110Y143776D01*
X833186Y143243D01*
X832432Y142489D01*
X831898Y141565D01*
X831622Y140534D01*
Y139468D01*
X831898Y138437D01*
X832432Y137513D01*
X833186Y136759D01*
X834110Y136226D01*
X835140Y135950D01*
X836207D01*
X837237Y136226D01*
X838161Y136759D01*
X838915Y137513D01*
X839449Y138437D01*
X839725Y139468D01*
Y140534D01*
X839449Y141565D01*
X838915Y142489D01*
X838161Y143243D01*
X837237Y143776D01*
X836207Y144052D01*
D02*
G37*
G36*
X810534D02*
X809467D01*
X808437Y143776D01*
X807513Y143243D01*
X806759Y142489D01*
X806225Y141565D01*
X805949Y140534D01*
Y139468D01*
X806225Y138437D01*
X806759Y137513D01*
X807513Y136759D01*
X808437Y136226D01*
X809467Y135950D01*
X810534D01*
X811564Y136226D01*
X812488Y136759D01*
X813242Y137513D01*
X813776Y138437D01*
X814052Y139468D01*
Y140534D01*
X813776Y141565D01*
X813242Y142489D01*
X812488Y143243D01*
X811564Y143776D01*
X810534Y144052D01*
D02*
G37*
G36*
X710533Y144051D02*
X709467D01*
X708436Y143775D01*
X707513Y143242D01*
X706758Y142488D01*
X706225Y141564D01*
X705949Y140533D01*
Y139467D01*
X706225Y138436D01*
X706758Y137513D01*
X707513Y136758D01*
X708436Y136225D01*
X709467Y135949D01*
X710533D01*
X711564Y136225D01*
X712488Y136758D01*
X713242Y137513D01*
X713775Y138436D01*
X714051Y139467D01*
Y140533D01*
X713775Y141564D01*
X713242Y142488D01*
X712488Y143242D01*
X711564Y143775D01*
X710533Y144051D01*
D02*
G37*
G36*
X704051Y139500D02*
X700500D01*
Y135949D01*
X700533D01*
X701564Y136225D01*
X702488Y136758D01*
X703242Y137513D01*
X703775Y138436D01*
X704051Y139467D01*
Y139500D01*
D02*
G37*
G36*
X699500D02*
X695949D01*
Y139467D01*
X696225Y138436D01*
X696758Y137513D01*
X697512Y136758D01*
X698436Y136225D01*
X699467Y135949D01*
X699500D01*
Y139500D01*
D02*
G37*
G36*
X690533Y144051D02*
X689467D01*
X688436Y143775D01*
X687512Y143242D01*
X686758Y142488D01*
X686225Y141564D01*
X685949Y140533D01*
Y139467D01*
X686225Y138436D01*
X686758Y137513D01*
X687512Y136758D01*
X688436Y136225D01*
X689467Y135949D01*
X690533D01*
X691564Y136225D01*
X692487Y136758D01*
X693242Y137513D01*
X693775Y138436D01*
X694051Y139467D01*
Y140533D01*
X693775Y141564D01*
X693242Y142488D01*
X692487Y143242D01*
X691564Y143775D01*
X690533Y144051D01*
D02*
G37*
G36*
X850534Y144051D02*
X849467D01*
X848437Y143775D01*
X847513Y143242D01*
X846759Y142488D01*
X846225Y141564D01*
X845949Y140533D01*
Y139467D01*
X846225Y138436D01*
X846759Y137513D01*
X847513Y136758D01*
X848437Y136225D01*
X849467Y135949D01*
X850534D01*
X851564Y136225D01*
X852488Y136758D01*
X853242Y137513D01*
X853776Y138436D01*
X854052Y139467D01*
Y140533D01*
X853776Y141564D01*
X853242Y142488D01*
X852488Y143242D01*
X851564Y143775D01*
X850534Y144051D01*
D02*
G37*
G36*
X660534D02*
X659467D01*
X658437Y143775D01*
X657513Y143242D01*
X656759Y142488D01*
X656225Y141564D01*
X655949Y140533D01*
Y139467D01*
X656225Y138436D01*
X656759Y137513D01*
X657513Y136758D01*
X658437Y136225D01*
X659467Y135949D01*
X660534D01*
X661564Y136225D01*
X662488Y136758D01*
X663242Y137513D01*
X663775Y138436D01*
X664052Y139467D01*
Y140533D01*
X663775Y141564D01*
X663242Y142488D01*
X662488Y143242D01*
X661564Y143775D01*
X660534Y144051D01*
D02*
G37*
G36*
X650534D02*
X649467D01*
X648437Y143775D01*
X647513Y143242D01*
X646759Y142488D01*
X646225Y141564D01*
X645949Y140533D01*
Y139467D01*
X646225Y138436D01*
X646759Y137513D01*
X647513Y136758D01*
X648437Y136225D01*
X649467Y135949D01*
X650534D01*
X651564Y136225D01*
X652488Y136758D01*
X653242Y137513D01*
X653776Y138436D01*
X654052Y139467D01*
Y140533D01*
X653776Y141564D01*
X653242Y142488D01*
X652488Y143242D01*
X651564Y143775D01*
X650534Y144051D01*
D02*
G37*
G36*
X640534D02*
X639467D01*
X638437Y143775D01*
X637513Y143242D01*
X636759Y142488D01*
X636225Y141564D01*
X635949Y140533D01*
Y139467D01*
X636225Y138436D01*
X636759Y137513D01*
X637513Y136758D01*
X638437Y136225D01*
X639467Y135949D01*
X640534D01*
X641564Y136225D01*
X642488Y136758D01*
X643242Y137513D01*
X643776Y138436D01*
X644052Y139467D01*
Y140533D01*
X643776Y141564D01*
X643242Y142488D01*
X642488Y143242D01*
X641564Y143775D01*
X640534Y144051D01*
D02*
G37*
G36*
X630534D02*
X629467D01*
X628437Y143775D01*
X627513Y143242D01*
X626759Y142488D01*
X626225Y141564D01*
X625949Y140533D01*
Y139467D01*
X626225Y138436D01*
X626759Y137513D01*
X627513Y136758D01*
X628437Y136225D01*
X629467Y135949D01*
X630534D01*
X631564Y136225D01*
X632488Y136758D01*
X633242Y137513D01*
X633776Y138436D01*
X634052Y139467D01*
Y140533D01*
X633776Y141564D01*
X633242Y142488D01*
X632488Y143242D01*
X631564Y143775D01*
X630534Y144051D01*
D02*
G37*
G36*
X620534D02*
X619467D01*
X618437Y143775D01*
X617513Y143242D01*
X616759Y142488D01*
X616225Y141564D01*
X615949Y140533D01*
Y139467D01*
X616225Y138436D01*
X616759Y137513D01*
X617513Y136758D01*
X618437Y136225D01*
X619467Y135949D01*
X620534D01*
X621564Y136225D01*
X622488Y136758D01*
X623242Y137513D01*
X623775Y138436D01*
X624052Y139467D01*
Y140533D01*
X623775Y141564D01*
X623242Y142488D01*
X622488Y143242D01*
X621564Y143775D01*
X620534Y144051D01*
D02*
G37*
G36*
X610534D02*
X609467D01*
X608437Y143775D01*
X607513Y143242D01*
X606759Y142488D01*
X606225Y141564D01*
X605949Y140533D01*
Y139467D01*
X606225Y138436D01*
X606759Y137513D01*
X607513Y136758D01*
X608437Y136225D01*
X609467Y135949D01*
X610534D01*
X611564Y136225D01*
X612488Y136758D01*
X613242Y137513D01*
X613775Y138436D01*
X614052Y139467D01*
Y140533D01*
X613775Y141564D01*
X613242Y142488D01*
X612488Y143242D01*
X611564Y143775D01*
X610534Y144051D01*
D02*
G37*
G36*
X600534D02*
X599467D01*
X598437Y143775D01*
X597513Y143242D01*
X596759Y142488D01*
X596225Y141564D01*
X595949Y140533D01*
Y139467D01*
X596225Y138436D01*
X596759Y137513D01*
X597513Y136758D01*
X598437Y136225D01*
X599467Y135949D01*
X600534D01*
X601564Y136225D01*
X602488Y136758D01*
X603242Y137513D01*
X603776Y138436D01*
X604052Y139467D01*
Y140533D01*
X603776Y141564D01*
X603242Y142488D01*
X602488Y143242D01*
X601564Y143775D01*
X600534Y144051D01*
D02*
G37*
G36*
X590534D02*
X589467D01*
X588437Y143775D01*
X587513Y143242D01*
X586759Y142488D01*
X586225Y141564D01*
X585949Y140533D01*
Y139467D01*
X586225Y138436D01*
X586759Y137513D01*
X587513Y136758D01*
X588437Y136225D01*
X589467Y135949D01*
X590534D01*
X591564Y136225D01*
X592488Y136758D01*
X593242Y137513D01*
X593776Y138436D01*
X594052Y139467D01*
Y140533D01*
X593776Y141564D01*
X593242Y142488D01*
X592488Y143242D01*
X591564Y143775D01*
X590534Y144051D01*
D02*
G37*
G36*
X580534D02*
X579467D01*
X578437Y143775D01*
X577513Y143242D01*
X576759Y142488D01*
X576225Y141564D01*
X575949Y140533D01*
Y139467D01*
X576225Y138436D01*
X576759Y137513D01*
X577513Y136758D01*
X578437Y136225D01*
X579467Y135949D01*
X580534D01*
X581564Y136225D01*
X582488Y136758D01*
X583242Y137513D01*
X583776Y138436D01*
X584052Y139467D01*
Y140533D01*
X583776Y141564D01*
X583242Y142488D01*
X582488Y143242D01*
X581564Y143775D01*
X580534Y144051D01*
D02*
G37*
G36*
X574052D02*
X565949D01*
Y135949D01*
X574052D01*
Y144051D01*
D02*
G37*
G36*
X700533Y134051D02*
X700500D01*
Y130500D01*
X704051D01*
Y130533D01*
X703775Y131564D01*
X703242Y132487D01*
X702488Y133242D01*
X701564Y133775D01*
X700533Y134051D01*
D02*
G37*
G36*
X699500D02*
X699467D01*
X698436Y133775D01*
X697512Y133242D01*
X696758Y132487D01*
X696225Y131564D01*
X695949Y130533D01*
Y130500D01*
X699500D01*
Y134051D01*
D02*
G37*
G36*
X12950Y151296D02*
X6226D01*
Y144571D01*
X11900D01*
X11938Y144564D01*
X11957Y144568D01*
X11975Y144565D01*
X12029Y144567D01*
X14003Y142593D01*
Y131308D01*
X11696Y129002D01*
X11234Y129193D01*
Y136444D01*
X11244Y136496D01*
X11272Y136594D01*
X11318Y136711D01*
X11385Y136848D01*
X11474Y137003D01*
X11581Y137163D01*
X11894Y137564D01*
X12085Y137779D01*
X12117Y137834D01*
X12279Y137995D01*
X12721Y138762D01*
X12950Y139617D01*
Y140502D01*
X12721Y141358D01*
X12279Y142124D01*
X11653Y142750D01*
X10886Y143193D01*
X10031Y143422D01*
X9146D01*
X8290Y143193D01*
X7524Y142750D01*
X6898Y142124D01*
X6455Y141358D01*
X6226Y140502D01*
Y139617D01*
X6455Y138762D01*
X6898Y137995D01*
X7272Y137621D01*
X7326Y137546D01*
X7533Y137354D01*
X7696Y137186D01*
X7834Y137029D01*
X7945Y136882D01*
X8032Y136749D01*
X8096Y136631D01*
X8140Y136529D01*
X8166Y136443D01*
X8175Y136393D01*
Y100533D01*
X8292Y99947D01*
X8624Y99451D01*
X20287Y87787D01*
X37053Y71021D01*
Y65314D01*
X37033Y65220D01*
X36987Y65087D01*
X36912Y64922D01*
X36804Y64730D01*
X36661Y64515D01*
X36489Y64287D01*
X36010Y63740D01*
X35721Y63447D01*
X35668Y63366D01*
X35340Y63039D01*
X34807Y62115D01*
X34531Y61085D01*
Y60018D01*
X34807Y58987D01*
X35340Y58064D01*
X36094Y57309D01*
X37018Y56776D01*
X38048Y56500D01*
X39115D01*
X40146Y56776D01*
X41069Y57309D01*
X41824Y58064D01*
X42241Y58787D01*
X42796D01*
X43214Y58064D01*
X43968Y57309D01*
X44892Y56776D01*
X45923Y56500D01*
X46989D01*
X48020Y56776D01*
X48943Y57309D01*
X49698Y58064D01*
X50231Y58987D01*
X50507Y60018D01*
Y61085D01*
X50231Y62115D01*
X49698Y63039D01*
X49371Y63365D01*
X49319Y63445D01*
X49029Y63739D01*
X48550Y64286D01*
X48379Y64514D01*
X48236Y64730D01*
X48127Y64922D01*
X48052Y65086D01*
X48006Y65220D01*
X47986Y65314D01*
Y71655D01*
X47870Y72240D01*
X47538Y72736D01*
X28137Y92137D01*
X16146Y104129D01*
X16337Y104591D01*
X21798D01*
Y112890D01*
X13732D01*
Y126711D01*
X16614Y129594D01*
X16945Y130090D01*
X17062Y130675D01*
Y143226D01*
X16945Y143812D01*
X16614Y144308D01*
X13731Y147190D01*
X13235Y147522D01*
X12950Y147578D01*
Y151296D01*
D02*
G37*
G36*
X710533Y134051D02*
X709467D01*
X708436Y133775D01*
X707513Y133242D01*
X706758Y132487D01*
X706225Y131564D01*
X705949Y130533D01*
Y129467D01*
X706225Y128436D01*
X706758Y127513D01*
X707513Y126758D01*
X708436Y126225D01*
X709467Y125949D01*
X710533D01*
X711564Y126225D01*
X712488Y126758D01*
X713242Y127513D01*
X713775Y128436D01*
X714051Y129467D01*
Y130533D01*
X713775Y131564D01*
X713242Y132487D01*
X712488Y133242D01*
X711564Y133775D01*
X710533Y134051D01*
D02*
G37*
G36*
X704051Y129500D02*
X700500D01*
Y125949D01*
X700533D01*
X701564Y126225D01*
X702488Y126758D01*
X703242Y127513D01*
X703775Y128436D01*
X704051Y129467D01*
Y129500D01*
D02*
G37*
G36*
X699500D02*
X695949D01*
Y129467D01*
X696225Y128436D01*
X696758Y127513D01*
X697512Y126758D01*
X698436Y126225D01*
X699467Y125949D01*
X699500D01*
Y129500D01*
D02*
G37*
G36*
X690533Y134051D02*
X689467D01*
X688436Y133775D01*
X687512Y133242D01*
X686758Y132487D01*
X686225Y131564D01*
X685949Y130533D01*
Y129467D01*
X686225Y128436D01*
X686758Y127513D01*
X687512Y126758D01*
X688436Y126225D01*
X689467Y125949D01*
X690533D01*
X691564Y126225D01*
X692487Y126758D01*
X693242Y127513D01*
X693775Y128436D01*
X694051Y129467D01*
Y130533D01*
X693775Y131564D01*
X693242Y132487D01*
X692487Y133242D01*
X691564Y133775D01*
X690533Y134051D01*
D02*
G37*
G36*
X850534Y134051D02*
X849467D01*
X848437Y133775D01*
X847513Y133242D01*
X846759Y132487D01*
X846225Y131564D01*
X845949Y130533D01*
Y129467D01*
X846225Y128436D01*
X846759Y127513D01*
X847513Y126758D01*
X848437Y126225D01*
X849467Y125949D01*
X850534D01*
X851564Y126225D01*
X852488Y126758D01*
X853242Y127513D01*
X853776Y128436D01*
X854052Y129467D01*
Y130533D01*
X853776Y131564D01*
X853242Y132487D01*
X852488Y133242D01*
X851564Y133775D01*
X850534Y134051D01*
D02*
G37*
G36*
X836207D02*
X835140D01*
X834110Y133775D01*
X833186Y133242D01*
X832432Y132487D01*
X831898Y131564D01*
X831622Y130533D01*
Y129467D01*
X831898Y128436D01*
X832432Y127513D01*
X833186Y126758D01*
X834110Y126225D01*
X835140Y125949D01*
X836207D01*
X837237Y126225D01*
X838161Y126758D01*
X838915Y127513D01*
X839449Y128436D01*
X839725Y129467D01*
Y130533D01*
X839449Y131564D01*
X838915Y132487D01*
X838161Y133242D01*
X837237Y133775D01*
X836207Y134051D01*
D02*
G37*
G36*
X810534D02*
X809467D01*
X808437Y133775D01*
X807513Y133242D01*
X806759Y132487D01*
X806225Y131564D01*
X805949Y130533D01*
Y129467D01*
X806225Y128436D01*
X806759Y127513D01*
X807513Y126758D01*
X808437Y126225D01*
X809467Y125949D01*
X810534D01*
X811564Y126225D01*
X812488Y126758D01*
X813242Y127513D01*
X813776Y128436D01*
X814052Y129467D01*
Y130533D01*
X813776Y131564D01*
X813242Y132487D01*
X812488Y133242D01*
X811564Y133775D01*
X810534Y134051D01*
D02*
G37*
G36*
X780524Y134028D02*
X779457D01*
X778427Y133752D01*
X777503Y133219D01*
X776749Y132464D01*
X776215Y131541D01*
X775939Y130510D01*
Y129444D01*
X776215Y128413D01*
X776749Y127489D01*
X777503Y126735D01*
X778427Y126202D01*
X779457Y125926D01*
X780524D01*
X781554Y126202D01*
X782478Y126735D01*
X783232Y127489D01*
X783766Y128413D01*
X784042Y129444D01*
Y130510D01*
X783766Y131541D01*
X783232Y132464D01*
X782478Y133219D01*
X781554Y133752D01*
X780524Y134028D01*
D02*
G37*
G36*
X790524Y134028D02*
X789458D01*
X788427Y133752D01*
X787503Y133219D01*
X786749Y132464D01*
X786216Y131541D01*
X785940Y130510D01*
Y129444D01*
X786216Y128413D01*
X786749Y127489D01*
X787503Y126735D01*
X788427Y126202D01*
X789458Y125926D01*
X790524D01*
X791554Y126202D01*
X792478Y126735D01*
X793233Y127489D01*
X793766Y128413D01*
X794042Y129444D01*
Y130510D01*
X793766Y131541D01*
X793233Y132464D01*
X792478Y133219D01*
X791554Y133752D01*
X790524Y134028D01*
D02*
G37*
G36*
X560533Y129724D02*
X559467D01*
X558436Y129448D01*
X557513Y128915D01*
X556758Y128161D01*
X556225Y127237D01*
X555949Y126206D01*
Y125140D01*
X556225Y124109D01*
X556758Y123186D01*
X557513Y122431D01*
X558436Y121898D01*
X559467Y121622D01*
X560533D01*
X561564Y121898D01*
X562488Y122431D01*
X563242Y123186D01*
X563775Y124109D01*
X564051Y125140D01*
Y126206D01*
X563775Y127237D01*
X563242Y128161D01*
X562488Y128915D01*
X561564Y129448D01*
X560533Y129724D01*
D02*
G37*
G36*
X550533D02*
X549467D01*
X548436Y129448D01*
X547512Y128915D01*
X546758Y128161D01*
X546225Y127237D01*
X545949Y126206D01*
Y125140D01*
X546225Y124109D01*
X546758Y123186D01*
X547512Y122431D01*
X548436Y121898D01*
X549467Y121622D01*
X550533D01*
X551564Y121898D01*
X552488Y122431D01*
X553242Y123186D01*
X553775Y124109D01*
X554051Y125140D01*
Y126206D01*
X553775Y127237D01*
X553242Y128161D01*
X552488Y128915D01*
X551564Y129448D01*
X550533Y129724D01*
D02*
G37*
G36*
X540533D02*
X539467D01*
X538436Y129448D01*
X537512Y128915D01*
X536758Y128161D01*
X536225Y127237D01*
X535949Y126206D01*
Y125140D01*
X536225Y124109D01*
X536758Y123186D01*
X537512Y122431D01*
X538436Y121898D01*
X539467Y121622D01*
X540533D01*
X541564Y121898D01*
X542487Y122431D01*
X543242Y123186D01*
X543775Y124109D01*
X544051Y125140D01*
Y126206D01*
X543775Y127237D01*
X543242Y128161D01*
X542487Y128915D01*
X541564Y129448D01*
X540533Y129724D01*
D02*
G37*
G36*
X530533D02*
X529467D01*
X528436Y129448D01*
X527513Y128915D01*
X526758Y128161D01*
X526225Y127237D01*
X525949Y126206D01*
Y125140D01*
X526225Y124109D01*
X526758Y123186D01*
X527513Y122431D01*
X528436Y121898D01*
X529467Y121622D01*
X530533D01*
X531564Y121898D01*
X532487Y122431D01*
X533242Y123186D01*
X533775Y124109D01*
X534051Y125140D01*
Y126206D01*
X533775Y127237D01*
X533242Y128161D01*
X532487Y128915D01*
X531564Y129448D01*
X530533Y129724D01*
D02*
G37*
G36*
X520533D02*
X519467D01*
X518436Y129448D01*
X517513Y128915D01*
X516758Y128161D01*
X516225Y127237D01*
X515949Y126206D01*
Y125140D01*
X516225Y124109D01*
X516758Y123186D01*
X517513Y122431D01*
X518436Y121898D01*
X519467Y121622D01*
X520533D01*
X521564Y121898D01*
X522487Y122431D01*
X523242Y123186D01*
X523775Y124109D01*
X524051Y125140D01*
Y126206D01*
X523775Y127237D01*
X523242Y128161D01*
X522487Y128915D01*
X521564Y129448D01*
X520533Y129724D01*
D02*
G37*
G36*
X510533D02*
X509467D01*
X508436Y129448D01*
X507513Y128915D01*
X506758Y128161D01*
X506225Y127237D01*
X505949Y126206D01*
Y125140D01*
X506225Y124109D01*
X506758Y123186D01*
X507513Y122431D01*
X508436Y121898D01*
X509467Y121622D01*
X510533D01*
X511564Y121898D01*
X512488Y122431D01*
X513242Y123186D01*
X513775Y124109D01*
X514051Y125140D01*
Y126206D01*
X513775Y127237D01*
X513242Y128161D01*
X512488Y128915D01*
X511564Y129448D01*
X510533Y129724D01*
D02*
G37*
G36*
X670534Y129724D02*
X669467D01*
X668437Y129448D01*
X667513Y128915D01*
X666759Y128161D01*
X666225Y127237D01*
X665949Y126206D01*
Y125140D01*
X666225Y124109D01*
X666759Y123186D01*
X667513Y122431D01*
X668437Y121898D01*
X669467Y121622D01*
X670534D01*
X671564Y121898D01*
X672488Y122431D01*
X673242Y123186D01*
X673775Y124109D01*
X674052Y125140D01*
Y126206D01*
X673775Y127237D01*
X673242Y128161D01*
X672488Y128915D01*
X671564Y129448D01*
X670534Y129724D01*
D02*
G37*
G36*
X660534D02*
X659467D01*
X658437Y129448D01*
X657513Y128915D01*
X656759Y128161D01*
X656225Y127237D01*
X655949Y126206D01*
Y125140D01*
X656225Y124109D01*
X656759Y123186D01*
X657513Y122431D01*
X658437Y121898D01*
X659467Y121622D01*
X660534D01*
X661564Y121898D01*
X662488Y122431D01*
X663242Y123186D01*
X663775Y124109D01*
X664052Y125140D01*
Y126206D01*
X663775Y127237D01*
X663242Y128161D01*
X662488Y128915D01*
X661564Y129448D01*
X660534Y129724D01*
D02*
G37*
G36*
X650534D02*
X649467D01*
X648437Y129448D01*
X647513Y128915D01*
X646759Y128161D01*
X646225Y127237D01*
X645949Y126206D01*
Y125140D01*
X646225Y124109D01*
X646759Y123186D01*
X647513Y122431D01*
X648437Y121898D01*
X649467Y121622D01*
X650534D01*
X651564Y121898D01*
X652488Y122431D01*
X653242Y123186D01*
X653776Y124109D01*
X654052Y125140D01*
Y126206D01*
X653776Y127237D01*
X653242Y128161D01*
X652488Y128915D01*
X651564Y129448D01*
X650534Y129724D01*
D02*
G37*
G36*
X640534D02*
X639467D01*
X638437Y129448D01*
X637513Y128915D01*
X636759Y128161D01*
X636225Y127237D01*
X635949Y126206D01*
Y125140D01*
X636225Y124109D01*
X636759Y123186D01*
X637513Y122431D01*
X638437Y121898D01*
X639467Y121622D01*
X640534D01*
X641564Y121898D01*
X642488Y122431D01*
X643242Y123186D01*
X643776Y124109D01*
X644052Y125140D01*
Y126206D01*
X643776Y127237D01*
X643242Y128161D01*
X642488Y128915D01*
X641564Y129448D01*
X640534Y129724D01*
D02*
G37*
G36*
X630534D02*
X629467D01*
X628437Y129448D01*
X627513Y128915D01*
X626759Y128161D01*
X626225Y127237D01*
X625949Y126206D01*
Y125140D01*
X626225Y124109D01*
X626759Y123186D01*
X627513Y122431D01*
X628437Y121898D01*
X629467Y121622D01*
X630534D01*
X631564Y121898D01*
X632488Y122431D01*
X633242Y123186D01*
X633776Y124109D01*
X634052Y125140D01*
Y126206D01*
X633776Y127237D01*
X633242Y128161D01*
X632488Y128915D01*
X631564Y129448D01*
X630534Y129724D01*
D02*
G37*
G36*
X620534D02*
X619467D01*
X618437Y129448D01*
X617513Y128915D01*
X616759Y128161D01*
X616225Y127237D01*
X615949Y126206D01*
Y125140D01*
X616225Y124109D01*
X616759Y123186D01*
X617513Y122431D01*
X618437Y121898D01*
X619467Y121622D01*
X620534D01*
X621564Y121898D01*
X622488Y122431D01*
X623242Y123186D01*
X623775Y124109D01*
X624052Y125140D01*
Y126206D01*
X623775Y127237D01*
X623242Y128161D01*
X622488Y128915D01*
X621564Y129448D01*
X620534Y129724D01*
D02*
G37*
G36*
X610534D02*
X609467D01*
X608437Y129448D01*
X607513Y128915D01*
X606759Y128161D01*
X606225Y127237D01*
X605949Y126206D01*
Y125140D01*
X606225Y124109D01*
X606759Y123186D01*
X607513Y122431D01*
X608437Y121898D01*
X609467Y121622D01*
X610534D01*
X611564Y121898D01*
X612488Y122431D01*
X613242Y123186D01*
X613775Y124109D01*
X614052Y125140D01*
Y126206D01*
X613775Y127237D01*
X613242Y128161D01*
X612488Y128915D01*
X611564Y129448D01*
X610534Y129724D01*
D02*
G37*
G36*
X600534D02*
X599467D01*
X598437Y129448D01*
X597513Y128915D01*
X596759Y128161D01*
X596225Y127237D01*
X595949Y126206D01*
Y125140D01*
X596225Y124109D01*
X596759Y123186D01*
X597513Y122431D01*
X598437Y121898D01*
X599467Y121622D01*
X600534D01*
X601564Y121898D01*
X602488Y122431D01*
X603242Y123186D01*
X603776Y124109D01*
X604052Y125140D01*
Y126206D01*
X603776Y127237D01*
X603242Y128161D01*
X602488Y128915D01*
X601564Y129448D01*
X600534Y129724D01*
D02*
G37*
G36*
X590534D02*
X589467D01*
X588437Y129448D01*
X587513Y128915D01*
X586759Y128161D01*
X586225Y127237D01*
X585949Y126206D01*
Y125140D01*
X586225Y124109D01*
X586759Y123186D01*
X587513Y122431D01*
X588437Y121898D01*
X589467Y121622D01*
X590534D01*
X591564Y121898D01*
X592488Y122431D01*
X593242Y123186D01*
X593776Y124109D01*
X594052Y125140D01*
Y126206D01*
X593776Y127237D01*
X593242Y128161D01*
X592488Y128915D01*
X591564Y129448D01*
X590534Y129724D01*
D02*
G37*
G36*
X580534D02*
X579467D01*
X578437Y129448D01*
X577513Y128915D01*
X576759Y128161D01*
X576225Y127237D01*
X575949Y126206D01*
Y125140D01*
X576225Y124109D01*
X576759Y123186D01*
X577513Y122431D01*
X578437Y121898D01*
X579467Y121622D01*
X580534D01*
X581564Y121898D01*
X582488Y122431D01*
X583242Y123186D01*
X583776Y124109D01*
X584052Y125140D01*
Y126206D01*
X583776Y127237D01*
X583242Y128161D01*
X582488Y128915D01*
X581564Y129448D01*
X580534Y129724D01*
D02*
G37*
G36*
X570534D02*
X569467D01*
X568437Y129448D01*
X567513Y128915D01*
X566759Y128161D01*
X566225Y127237D01*
X565949Y126206D01*
Y125140D01*
X566225Y124109D01*
X566759Y123186D01*
X567513Y122431D01*
X568437Y121898D01*
X569467Y121622D01*
X570534D01*
X571564Y121898D01*
X572488Y122431D01*
X573242Y123186D01*
X573775Y124109D01*
X574052Y125140D01*
Y126206D01*
X573775Y127237D01*
X573242Y128161D01*
X572488Y128915D01*
X571564Y129448D01*
X570534Y129724D01*
D02*
G37*
G36*
X700533Y124051D02*
X700500D01*
Y120500D01*
X704051D01*
Y120533D01*
X703775Y121564D01*
X703242Y122487D01*
X702488Y123242D01*
X701564Y123775D01*
X700533Y124051D01*
D02*
G37*
G36*
X699500D02*
X699467D01*
X698436Y123775D01*
X697512Y123242D01*
X696758Y122487D01*
X696225Y121564D01*
X695949Y120533D01*
Y120500D01*
X699500D01*
Y124051D01*
D02*
G37*
G36*
X212868Y131198D02*
X211624D01*
X210404Y130955D01*
X209255Y130479D01*
X208220Y129788D01*
X207341Y128908D01*
X206649Y127874D01*
X206173Y126725D01*
X205931Y125505D01*
Y124261D01*
X206173Y123041D01*
X206649Y121892D01*
X207341Y120857D01*
X208220Y119978D01*
X209255Y119287D01*
X210404Y118811D01*
X211624Y118568D01*
X212868D01*
X214088Y118811D01*
X215237Y119287D01*
X216271Y119978D01*
X217151Y120857D01*
X217842Y121892D01*
X218318Y123041D01*
X218561Y124261D01*
Y125505D01*
X218318Y126725D01*
X217842Y127874D01*
X217151Y128908D01*
X216271Y129788D01*
X215237Y130479D01*
X214088Y130955D01*
X212868Y131198D01*
D02*
G37*
G36*
X780533Y124051D02*
X779467D01*
X778436Y123775D01*
X777513Y123242D01*
X776758Y122487D01*
X776225Y121564D01*
X775949Y120533D01*
Y119467D01*
X776225Y118436D01*
X776758Y117513D01*
X777513Y116758D01*
X778436Y116225D01*
X779467Y115949D01*
X780533D01*
X781564Y116225D01*
X782487Y116758D01*
X783242Y117513D01*
X783775Y118436D01*
X784051Y119467D01*
Y120533D01*
X783775Y121564D01*
X783242Y122487D01*
X782487Y123242D01*
X781564Y123775D01*
X780533Y124051D01*
D02*
G37*
G36*
X710533D02*
X709467D01*
X708436Y123775D01*
X707513Y123242D01*
X706758Y122487D01*
X706225Y121564D01*
X705949Y120533D01*
Y119467D01*
X706225Y118436D01*
X706758Y117513D01*
X707513Y116758D01*
X708436Y116225D01*
X709467Y115949D01*
X710533D01*
X711564Y116225D01*
X712488Y116758D01*
X713242Y117513D01*
X713775Y118436D01*
X714051Y119467D01*
Y120533D01*
X713775Y121564D01*
X713242Y122487D01*
X712488Y123242D01*
X711564Y123775D01*
X710533Y124051D01*
D02*
G37*
G36*
X704051Y119500D02*
X700500D01*
Y115949D01*
X700533D01*
X701564Y116225D01*
X702488Y116758D01*
X703242Y117513D01*
X703775Y118436D01*
X704051Y119467D01*
Y119500D01*
D02*
G37*
G36*
X699500D02*
X695949D01*
Y119467D01*
X696225Y118436D01*
X696758Y117513D01*
X697512Y116758D01*
X698436Y116225D01*
X699467Y115949D01*
X699500D01*
Y119500D01*
D02*
G37*
G36*
X690533Y124051D02*
X689467D01*
X688436Y123775D01*
X687512Y123242D01*
X686758Y122487D01*
X686225Y121564D01*
X685949Y120533D01*
Y119467D01*
X686225Y118436D01*
X686758Y117513D01*
X687512Y116758D01*
X688436Y116225D01*
X689467Y115949D01*
X690533D01*
X691564Y116225D01*
X692487Y116758D01*
X693242Y117513D01*
X693775Y118436D01*
X694051Y119467D01*
Y120533D01*
X693775Y121564D01*
X693242Y122487D01*
X692487Y123242D01*
X691564Y123775D01*
X690533Y124051D01*
D02*
G37*
G36*
X850534Y124051D02*
X849467D01*
X848437Y123775D01*
X847513Y123242D01*
X846759Y122487D01*
X846225Y121564D01*
X845949Y120533D01*
Y119467D01*
X846225Y118436D01*
X846759Y117513D01*
X847513Y116758D01*
X848437Y116225D01*
X849467Y115949D01*
X850534D01*
X851564Y116225D01*
X852488Y116758D01*
X853242Y117513D01*
X853776Y118436D01*
X854052Y119467D01*
Y120533D01*
X853776Y121564D01*
X853242Y122487D01*
X852488Y123242D01*
X851564Y123775D01*
X850534Y124051D01*
D02*
G37*
G36*
X836207D02*
X835140D01*
X834110Y123775D01*
X833186Y123242D01*
X832432Y122487D01*
X831898Y121564D01*
X831622Y120533D01*
Y119467D01*
X831898Y118436D01*
X832432Y117513D01*
X833186Y116758D01*
X834110Y116225D01*
X835140Y115949D01*
X836207D01*
X837237Y116225D01*
X838161Y116758D01*
X838915Y117513D01*
X839449Y118436D01*
X839725Y119467D01*
Y120533D01*
X839449Y121564D01*
X838915Y122487D01*
X838161Y123242D01*
X837237Y123775D01*
X836207Y124051D01*
D02*
G37*
G36*
X810534D02*
X809467D01*
X808437Y123775D01*
X807513Y123242D01*
X806759Y122487D01*
X806225Y121564D01*
X805949Y120533D01*
Y119467D01*
X806225Y118436D01*
X806759Y117513D01*
X807513Y116758D01*
X808437Y116225D01*
X809467Y115949D01*
X810534D01*
X811564Y116225D01*
X812488Y116758D01*
X813242Y117513D01*
X813776Y118436D01*
X814052Y119467D01*
Y120533D01*
X813776Y121564D01*
X813242Y122487D01*
X812488Y123242D01*
X811564Y123775D01*
X810534Y124051D01*
D02*
G37*
G36*
X790534D02*
X789467D01*
X788437Y123775D01*
X787513Y123242D01*
X786759Y122487D01*
X786225Y121564D01*
X785949Y120533D01*
Y119467D01*
X786225Y118436D01*
X786759Y117513D01*
X787513Y116758D01*
X788437Y116225D01*
X789467Y115949D01*
X790534D01*
X791564Y116225D01*
X792488Y116758D01*
X793242Y117513D01*
X793776Y118436D01*
X794052Y119467D01*
Y120533D01*
X793776Y121564D01*
X793242Y122487D01*
X792488Y123242D01*
X791564Y123775D01*
X790534Y124051D01*
D02*
G37*
G36*
X477858Y136279D02*
X475897Y136124D01*
X473984Y135665D01*
X472166Y134912D01*
X470488Y133884D01*
X468992Y132606D01*
X467714Y131110D01*
X466686Y129433D01*
X465933Y127615D01*
X465474Y125702D01*
X465320Y123740D01*
X465474Y121779D01*
X465933Y119866D01*
X466686Y118048D01*
X467714Y116370D01*
X468992Y114874D01*
X470488Y113596D01*
X472166Y112568D01*
X473984Y111815D01*
X475897Y111356D01*
X477858Y111202D01*
X479820Y111356D01*
X481733Y111815D01*
X483551Y112568D01*
X485228Y113596D01*
X486724Y114874D01*
X488002Y116370D01*
X489030Y118048D01*
X489783Y119866D01*
X490243Y121779D01*
X490397Y123740D01*
X490243Y125702D01*
X489783Y127615D01*
X489030Y129433D01*
X488002Y131110D01*
X486724Y132606D01*
X485228Y133884D01*
X483551Y134912D01*
X481733Y135665D01*
X479820Y136124D01*
X477858Y136279D01*
D02*
G37*
G36*
X383760Y135578D02*
X381798Y135424D01*
X379885Y134964D01*
X378067Y134211D01*
X376390Y133183D01*
X374894Y131905D01*
X373616Y130409D01*
X372588Y128732D01*
X371835Y126914D01*
X371376Y125001D01*
X371221Y123039D01*
X371376Y121078D01*
X371835Y119165D01*
X372588Y117347D01*
X373616Y115669D01*
X374894Y114173D01*
X376390Y112895D01*
X378067Y111867D01*
X379885Y111114D01*
X381798Y110655D01*
X383760Y110501D01*
X385721Y110655D01*
X387634Y111114D01*
X389452Y111867D01*
X391130Y112895D01*
X392626Y114173D01*
X393904Y115669D01*
X394932Y117347D01*
X395685Y119165D01*
X396144Y121078D01*
X396299Y123039D01*
X396144Y125001D01*
X395685Y126914D01*
X394932Y128732D01*
X393904Y130409D01*
X392626Y131905D01*
X391130Y133183D01*
X389452Y134211D01*
X387634Y134964D01*
X385721Y135424D01*
X383760Y135578D01*
D02*
G37*
G36*
X700533Y114051D02*
X700500D01*
Y110500D01*
X704051D01*
Y110533D01*
X703775Y111564D01*
X703242Y112487D01*
X702488Y113242D01*
X701564Y113775D01*
X700533Y114051D01*
D02*
G37*
G36*
X699500D02*
X699467D01*
X698436Y113775D01*
X697512Y113242D01*
X696758Y112487D01*
X696225Y111564D01*
X695949Y110533D01*
Y110500D01*
X699500D01*
Y114051D01*
D02*
G37*
G36*
X780533D02*
X779467D01*
X778436Y113775D01*
X777513Y113242D01*
X776758Y112487D01*
X776225Y111564D01*
X775949Y110533D01*
Y109467D01*
X776225Y108436D01*
X776758Y107512D01*
X777513Y106758D01*
X778436Y106225D01*
X779467Y105949D01*
X780533D01*
X781564Y106225D01*
X782487Y106758D01*
X783242Y107512D01*
X783775Y108436D01*
X784051Y109467D01*
Y110533D01*
X783775Y111564D01*
X783242Y112487D01*
X782487Y113242D01*
X781564Y113775D01*
X780533Y114051D01*
D02*
G37*
G36*
X710533D02*
X709467D01*
X708436Y113775D01*
X707513Y113242D01*
X706758Y112487D01*
X706225Y111564D01*
X705949Y110533D01*
Y109467D01*
X706225Y108436D01*
X706758Y107512D01*
X707513Y106758D01*
X708436Y106225D01*
X709467Y105949D01*
X710533D01*
X711564Y106225D01*
X712488Y106758D01*
X713242Y107512D01*
X713775Y108436D01*
X714051Y109467D01*
Y110533D01*
X713775Y111564D01*
X713242Y112487D01*
X712488Y113242D01*
X711564Y113775D01*
X710533Y114051D01*
D02*
G37*
G36*
X704051Y109500D02*
X700500D01*
Y105949D01*
X700533D01*
X701564Y106225D01*
X702488Y106758D01*
X703242Y107512D01*
X703775Y108436D01*
X704051Y109467D01*
Y109500D01*
D02*
G37*
G36*
X699500D02*
X695949D01*
Y109467D01*
X696225Y108436D01*
X696758Y107512D01*
X697512Y106758D01*
X698436Y106225D01*
X699467Y105949D01*
X699500D01*
Y109500D01*
D02*
G37*
G36*
X690533Y114051D02*
X689467D01*
X688436Y113775D01*
X687512Y113242D01*
X686758Y112487D01*
X686225Y111564D01*
X685949Y110533D01*
Y109467D01*
X686225Y108436D01*
X686758Y107512D01*
X687512Y106758D01*
X688436Y106225D01*
X689467Y105949D01*
X690533D01*
X691564Y106225D01*
X692487Y106758D01*
X693242Y107512D01*
X693775Y108436D01*
X694051Y109467D01*
Y110533D01*
X693775Y111564D01*
X693242Y112487D01*
X692487Y113242D01*
X691564Y113775D01*
X690533Y114051D01*
D02*
G37*
G36*
X850534Y114051D02*
X849467D01*
X848437Y113775D01*
X847513Y113242D01*
X846759Y112487D01*
X846225Y111564D01*
X845949Y110533D01*
Y109467D01*
X846225Y108436D01*
X846759Y107512D01*
X847513Y106758D01*
X848437Y106225D01*
X849467Y105949D01*
X850534D01*
X851564Y106225D01*
X852488Y106758D01*
X853242Y107512D01*
X853776Y108436D01*
X854052Y109467D01*
Y110533D01*
X853776Y111564D01*
X853242Y112487D01*
X852488Y113242D01*
X851564Y113775D01*
X850534Y114051D01*
D02*
G37*
G36*
X836207D02*
X835140D01*
X834110Y113775D01*
X833186Y113242D01*
X832432Y112487D01*
X831898Y111564D01*
X831622Y110533D01*
Y109467D01*
X831898Y108436D01*
X832432Y107512D01*
X833186Y106758D01*
X834110Y106225D01*
X835140Y105949D01*
X836207D01*
X837237Y106225D01*
X838161Y106758D01*
X838915Y107512D01*
X839449Y108436D01*
X839725Y109467D01*
Y110533D01*
X839449Y111564D01*
X838915Y112487D01*
X838161Y113242D01*
X837237Y113775D01*
X836207Y114051D01*
D02*
G37*
G36*
X810534D02*
X809467D01*
X808437Y113775D01*
X807513Y113242D01*
X806759Y112487D01*
X806225Y111564D01*
X805949Y110533D01*
Y109467D01*
X806225Y108436D01*
X806759Y107512D01*
X807513Y106758D01*
X808437Y106225D01*
X809467Y105949D01*
X810534D01*
X811564Y106225D01*
X812488Y106758D01*
X813242Y107512D01*
X813776Y108436D01*
X814052Y109467D01*
Y110533D01*
X813776Y111564D01*
X813242Y112487D01*
X812488Y113242D01*
X811564Y113775D01*
X810534Y114051D01*
D02*
G37*
G36*
X790534D02*
X789467D01*
X788437Y113775D01*
X787513Y113242D01*
X786759Y112487D01*
X786225Y111564D01*
X785949Y110533D01*
Y109467D01*
X786225Y108436D01*
X786759Y107512D01*
X787513Y106758D01*
X788437Y106225D01*
X789467Y105949D01*
X790534D01*
X791564Y106225D01*
X792488Y106758D01*
X793242Y107512D01*
X793776Y108436D01*
X794052Y109467D01*
Y110533D01*
X793776Y111564D01*
X793242Y112487D01*
X792488Y113242D01*
X791564Y113775D01*
X790534Y114051D01*
D02*
G37*
G36*
X81798Y112890D02*
X73499D01*
Y104591D01*
X81798D01*
Y112890D01*
D02*
G37*
G36*
X71798D02*
X63499D01*
Y104591D01*
X71798D01*
Y112890D01*
D02*
G37*
G36*
X61798D02*
X53499D01*
Y104591D01*
X61798D01*
Y112890D01*
D02*
G37*
G36*
X51798D02*
X43499D01*
Y104591D01*
X51798D01*
Y112890D01*
D02*
G37*
G36*
X41798D02*
X33499D01*
Y104591D01*
X41798D01*
Y112890D01*
D02*
G37*
G36*
X700533Y104051D02*
X700500D01*
Y100500D01*
X704051D01*
Y100533D01*
X703775Y101564D01*
X703242Y102488D01*
X702488Y103242D01*
X701564Y103775D01*
X700533Y104051D01*
D02*
G37*
G36*
X699500D02*
X699467D01*
X698436Y103775D01*
X697512Y103242D01*
X696758Y102488D01*
X696225Y101564D01*
X695949Y100533D01*
Y100500D01*
X699500D01*
Y104051D01*
D02*
G37*
G36*
X494878Y107791D02*
X486776D01*
Y99689D01*
X494878D01*
Y107791D01*
D02*
G37*
G36*
X483894D02*
X475791D01*
Y99689D01*
X483894D01*
Y107791D01*
D02*
G37*
G36*
X780533Y104051D02*
X779467D01*
X778436Y103775D01*
X777513Y103242D01*
X776758Y102488D01*
X776225Y101564D01*
X775949Y100533D01*
Y99467D01*
X776225Y98436D01*
X776758Y97513D01*
X777513Y96758D01*
X778436Y96225D01*
X779467Y95949D01*
X780533D01*
X781564Y96225D01*
X782487Y96758D01*
X783242Y97513D01*
X783775Y98436D01*
X784051Y99467D01*
Y100533D01*
X783775Y101564D01*
X783242Y102488D01*
X782487Y103242D01*
X781564Y103775D01*
X780533Y104051D01*
D02*
G37*
G36*
X710533D02*
X709467D01*
X708436Y103775D01*
X707513Y103242D01*
X706758Y102488D01*
X706225Y101564D01*
X705949Y100533D01*
Y99467D01*
X706225Y98436D01*
X706758Y97513D01*
X707513Y96758D01*
X708436Y96225D01*
X709467Y95949D01*
X710533D01*
X711564Y96225D01*
X712488Y96758D01*
X713242Y97513D01*
X713775Y98436D01*
X714051Y99467D01*
Y100533D01*
X713775Y101564D01*
X713242Y102488D01*
X712488Y103242D01*
X711564Y103775D01*
X710533Y104051D01*
D02*
G37*
G36*
X704051Y99500D02*
X700500D01*
Y95949D01*
X700533D01*
X701564Y96225D01*
X702488Y96758D01*
X703242Y97513D01*
X703775Y98436D01*
X704051Y99467D01*
Y99500D01*
D02*
G37*
G36*
X699500D02*
X695949D01*
Y99467D01*
X696225Y98436D01*
X696758Y97513D01*
X697512Y96758D01*
X698436Y96225D01*
X699467Y95949D01*
X699500D01*
Y99500D01*
D02*
G37*
G36*
X690533Y104051D02*
X689467D01*
X688436Y103775D01*
X687512Y103242D01*
X686758Y102488D01*
X686225Y101564D01*
X685949Y100533D01*
Y99467D01*
X686225Y98436D01*
X686758Y97513D01*
X687512Y96758D01*
X688436Y96225D01*
X689467Y95949D01*
X690533D01*
X691564Y96225D01*
X692487Y96758D01*
X693242Y97513D01*
X693775Y98436D01*
X694051Y99467D01*
Y100533D01*
X693775Y101564D01*
X693242Y102488D01*
X692487Y103242D01*
X691564Y103775D01*
X690533Y104051D01*
D02*
G37*
G36*
X560533D02*
X559467D01*
X558436Y103775D01*
X557513Y103242D01*
X556758Y102488D01*
X556225Y101564D01*
X555949Y100533D01*
Y99467D01*
X556225Y98436D01*
X556758Y97513D01*
X557513Y96758D01*
X558436Y96225D01*
X559467Y95949D01*
X560533D01*
X561564Y96225D01*
X562488Y96758D01*
X563242Y97513D01*
X563775Y98436D01*
X564051Y99467D01*
Y100533D01*
X563775Y101564D01*
X563242Y102488D01*
X562488Y103242D01*
X561564Y103775D01*
X560533Y104051D01*
D02*
G37*
G36*
X550533D02*
X549467D01*
X548436Y103775D01*
X547512Y103242D01*
X546758Y102488D01*
X546225Y101564D01*
X545949Y100533D01*
Y99467D01*
X546225Y98436D01*
X546758Y97513D01*
X547512Y96758D01*
X548436Y96225D01*
X549467Y95949D01*
X550533D01*
X551564Y96225D01*
X552488Y96758D01*
X553242Y97513D01*
X553775Y98436D01*
X554051Y99467D01*
Y100533D01*
X553775Y101564D01*
X553242Y102488D01*
X552488Y103242D01*
X551564Y103775D01*
X550533Y104051D01*
D02*
G37*
G36*
X540533D02*
X539467D01*
X538436Y103775D01*
X537512Y103242D01*
X536758Y102488D01*
X536225Y101564D01*
X535949Y100533D01*
Y99467D01*
X536225Y98436D01*
X536758Y97513D01*
X537512Y96758D01*
X538436Y96225D01*
X539467Y95949D01*
X540533D01*
X541564Y96225D01*
X542487Y96758D01*
X543242Y97513D01*
X543775Y98436D01*
X544051Y99467D01*
Y100533D01*
X543775Y101564D01*
X543242Y102488D01*
X542487Y103242D01*
X541564Y103775D01*
X540533Y104051D01*
D02*
G37*
G36*
X530533D02*
X529467D01*
X528436Y103775D01*
X527513Y103242D01*
X526758Y102488D01*
X526225Y101564D01*
X525949Y100533D01*
Y99467D01*
X526225Y98436D01*
X526758Y97513D01*
X527513Y96758D01*
X528436Y96225D01*
X529467Y95949D01*
X530533D01*
X531564Y96225D01*
X532487Y96758D01*
X533242Y97513D01*
X533775Y98436D01*
X534051Y99467D01*
Y100533D01*
X533775Y101564D01*
X533242Y102488D01*
X532487Y103242D01*
X531564Y103775D01*
X530533Y104051D01*
D02*
G37*
G36*
X520533D02*
X519467D01*
X518436Y103775D01*
X517513Y103242D01*
X516758Y102488D01*
X516225Y101564D01*
X515949Y100533D01*
Y99467D01*
X516225Y98436D01*
X516758Y97513D01*
X517513Y96758D01*
X518436Y96225D01*
X519467Y95949D01*
X520533D01*
X521564Y96225D01*
X522487Y96758D01*
X523242Y97513D01*
X523775Y98436D01*
X524051Y99467D01*
Y100533D01*
X523775Y101564D01*
X523242Y102488D01*
X522487Y103242D01*
X521564Y103775D01*
X520533Y104051D01*
D02*
G37*
G36*
X510533D02*
X509467D01*
X508436Y103775D01*
X507513Y103242D01*
X506758Y102488D01*
X506225Y101564D01*
X505949Y100533D01*
Y99467D01*
X506225Y98436D01*
X506758Y97513D01*
X507513Y96758D01*
X508436Y96225D01*
X509467Y95949D01*
X510533D01*
X511564Y96225D01*
X512488Y96758D01*
X513242Y97513D01*
X513775Y98436D01*
X514051Y99467D01*
Y100533D01*
X513775Y101564D01*
X513242Y102488D01*
X512488Y103242D01*
X511564Y103775D01*
X510533Y104051D01*
D02*
G37*
G36*
X850534Y104051D02*
X849467D01*
X848437Y103775D01*
X847513Y103242D01*
X846759Y102488D01*
X846225Y101564D01*
X845949Y100533D01*
Y99467D01*
X846225Y98436D01*
X846759Y97513D01*
X847513Y96758D01*
X848437Y96225D01*
X849467Y95949D01*
X850534D01*
X851564Y96225D01*
X852488Y96758D01*
X853242Y97513D01*
X853776Y98436D01*
X854052Y99467D01*
Y100533D01*
X853776Y101564D01*
X853242Y102488D01*
X852488Y103242D01*
X851564Y103775D01*
X850534Y104051D01*
D02*
G37*
G36*
X836207D02*
X835140D01*
X834110Y103775D01*
X833186Y103242D01*
X832432Y102488D01*
X831898Y101564D01*
X831622Y100533D01*
Y99467D01*
X831898Y98436D01*
X832432Y97513D01*
X833186Y96758D01*
X834110Y96225D01*
X835140Y95949D01*
X836207D01*
X837237Y96225D01*
X838161Y96758D01*
X838915Y97513D01*
X839449Y98436D01*
X839725Y99467D01*
Y100533D01*
X839449Y101564D01*
X838915Y102488D01*
X838161Y103242D01*
X837237Y103775D01*
X836207Y104051D01*
D02*
G37*
G36*
X810534D02*
X809467D01*
X808437Y103775D01*
X807513Y103242D01*
X806759Y102488D01*
X806225Y101564D01*
X805949Y100533D01*
Y99467D01*
X806225Y98436D01*
X806759Y97513D01*
X807513Y96758D01*
X808437Y96225D01*
X809467Y95949D01*
X810534D01*
X811564Y96225D01*
X812488Y96758D01*
X813242Y97513D01*
X813776Y98436D01*
X814052Y99467D01*
Y100533D01*
X813776Y101564D01*
X813242Y102488D01*
X812488Y103242D01*
X811564Y103775D01*
X810534Y104051D01*
D02*
G37*
G36*
X790534D02*
X789467D01*
X788437Y103775D01*
X787513Y103242D01*
X786759Y102488D01*
X786225Y101564D01*
X785949Y100533D01*
Y99467D01*
X786225Y98436D01*
X786759Y97513D01*
X787513Y96758D01*
X788437Y96225D01*
X789467Y95949D01*
X790534D01*
X791564Y96225D01*
X792488Y96758D01*
X793242Y97513D01*
X793776Y98436D01*
X794052Y99467D01*
Y100533D01*
X793776Y101564D01*
X793242Y102488D01*
X792488Y103242D01*
X791564Y103775D01*
X790534Y104051D01*
D02*
G37*
G36*
X670534D02*
X669467D01*
X668437Y103775D01*
X667513Y103242D01*
X666759Y102488D01*
X666225Y101564D01*
X665949Y100533D01*
Y99467D01*
X666225Y98436D01*
X666759Y97513D01*
X667513Y96758D01*
X668437Y96225D01*
X669467Y95949D01*
X670534D01*
X671564Y96225D01*
X672488Y96758D01*
X673242Y97513D01*
X673775Y98436D01*
X674052Y99467D01*
Y100533D01*
X673775Y101564D01*
X673242Y102488D01*
X672488Y103242D01*
X671564Y103775D01*
X670534Y104051D01*
D02*
G37*
G36*
X660534D02*
X659467D01*
X658437Y103775D01*
X657513Y103242D01*
X656759Y102488D01*
X656225Y101564D01*
X655949Y100533D01*
Y99467D01*
X656225Y98436D01*
X656759Y97513D01*
X657513Y96758D01*
X658437Y96225D01*
X659467Y95949D01*
X660534D01*
X661564Y96225D01*
X662488Y96758D01*
X663242Y97513D01*
X663775Y98436D01*
X664052Y99467D01*
Y100533D01*
X663775Y101564D01*
X663242Y102488D01*
X662488Y103242D01*
X661564Y103775D01*
X660534Y104051D01*
D02*
G37*
G36*
X650534D02*
X649467D01*
X648437Y103775D01*
X647513Y103242D01*
X646759Y102488D01*
X646225Y101564D01*
X645949Y100533D01*
Y99467D01*
X646225Y98436D01*
X646759Y97513D01*
X647513Y96758D01*
X648437Y96225D01*
X649467Y95949D01*
X650534D01*
X651564Y96225D01*
X652488Y96758D01*
X653242Y97513D01*
X653776Y98436D01*
X654052Y99467D01*
Y100533D01*
X653776Y101564D01*
X653242Y102488D01*
X652488Y103242D01*
X651564Y103775D01*
X650534Y104051D01*
D02*
G37*
G36*
X640534D02*
X639467D01*
X638437Y103775D01*
X637513Y103242D01*
X636759Y102488D01*
X636225Y101564D01*
X635949Y100533D01*
Y99467D01*
X636225Y98436D01*
X636759Y97513D01*
X637513Y96758D01*
X638437Y96225D01*
X639467Y95949D01*
X640534D01*
X641564Y96225D01*
X642488Y96758D01*
X643242Y97513D01*
X643776Y98436D01*
X644052Y99467D01*
Y100533D01*
X643776Y101564D01*
X643242Y102488D01*
X642488Y103242D01*
X641564Y103775D01*
X640534Y104051D01*
D02*
G37*
G36*
X630534D02*
X629467D01*
X628437Y103775D01*
X627513Y103242D01*
X626759Y102488D01*
X626225Y101564D01*
X625949Y100533D01*
Y99467D01*
X626225Y98436D01*
X626759Y97513D01*
X627513Y96758D01*
X628437Y96225D01*
X629467Y95949D01*
X630534D01*
X631564Y96225D01*
X632488Y96758D01*
X633242Y97513D01*
X633776Y98436D01*
X634052Y99467D01*
Y100533D01*
X633776Y101564D01*
X633242Y102488D01*
X632488Y103242D01*
X631564Y103775D01*
X630534Y104051D01*
D02*
G37*
G36*
X620534D02*
X619467D01*
X618437Y103775D01*
X617513Y103242D01*
X616759Y102488D01*
X616225Y101564D01*
X615949Y100533D01*
Y99467D01*
X616225Y98436D01*
X616759Y97513D01*
X617513Y96758D01*
X618437Y96225D01*
X619467Y95949D01*
X620534D01*
X621564Y96225D01*
X622488Y96758D01*
X623242Y97513D01*
X623775Y98436D01*
X624052Y99467D01*
Y100533D01*
X623775Y101564D01*
X623242Y102488D01*
X622488Y103242D01*
X621564Y103775D01*
X620534Y104051D01*
D02*
G37*
G36*
X610534D02*
X609467D01*
X608437Y103775D01*
X607513Y103242D01*
X606759Y102488D01*
X606225Y101564D01*
X605949Y100533D01*
Y99467D01*
X606225Y98436D01*
X606759Y97513D01*
X607513Y96758D01*
X608437Y96225D01*
X609467Y95949D01*
X610534D01*
X611564Y96225D01*
X612488Y96758D01*
X613242Y97513D01*
X613775Y98436D01*
X614052Y99467D01*
Y100533D01*
X613775Y101564D01*
X613242Y102488D01*
X612488Y103242D01*
X611564Y103775D01*
X610534Y104051D01*
D02*
G37*
G36*
X600534D02*
X599467D01*
X598437Y103775D01*
X597513Y103242D01*
X596759Y102488D01*
X596225Y101564D01*
X595949Y100533D01*
Y99467D01*
X596225Y98436D01*
X596759Y97513D01*
X597513Y96758D01*
X598437Y96225D01*
X599467Y95949D01*
X600534D01*
X601564Y96225D01*
X602488Y96758D01*
X603242Y97513D01*
X603776Y98436D01*
X604052Y99467D01*
Y100533D01*
X603776Y101564D01*
X603242Y102488D01*
X602488Y103242D01*
X601564Y103775D01*
X600534Y104051D01*
D02*
G37*
G36*
X590534D02*
X589467D01*
X588437Y103775D01*
X587513Y103242D01*
X586759Y102488D01*
X586225Y101564D01*
X585949Y100533D01*
Y99467D01*
X586225Y98436D01*
X586759Y97513D01*
X587513Y96758D01*
X588437Y96225D01*
X589467Y95949D01*
X590534D01*
X591564Y96225D01*
X592488Y96758D01*
X593242Y97513D01*
X593776Y98436D01*
X594052Y99467D01*
Y100533D01*
X593776Y101564D01*
X593242Y102488D01*
X592488Y103242D01*
X591564Y103775D01*
X590534Y104051D01*
D02*
G37*
G36*
X580534D02*
X579467D01*
X578437Y103775D01*
X577513Y103242D01*
X576759Y102488D01*
X576225Y101564D01*
X575949Y100533D01*
Y99467D01*
X576225Y98436D01*
X576759Y97513D01*
X577513Y96758D01*
X578437Y96225D01*
X579467Y95949D01*
X580534D01*
X581564Y96225D01*
X582488Y96758D01*
X583242Y97513D01*
X583776Y98436D01*
X584052Y99467D01*
Y100533D01*
X583776Y101564D01*
X583242Y102488D01*
X582488Y103242D01*
X581564Y103775D01*
X580534Y104051D01*
D02*
G37*
G36*
X570534D02*
X569467D01*
X568437Y103775D01*
X567513Y103242D01*
X566759Y102488D01*
X566225Y101564D01*
X565949Y100533D01*
Y99467D01*
X566225Y98436D01*
X566759Y97513D01*
X567513Y96758D01*
X568437Y96225D01*
X569467Y95949D01*
X570534D01*
X571564Y96225D01*
X572488Y96758D01*
X573242Y97513D01*
X573775Y98436D01*
X574052Y99467D01*
Y100533D01*
X573775Y101564D01*
X573242Y102488D01*
X572488Y103242D01*
X571564Y103775D01*
X570534Y104051D01*
D02*
G37*
G36*
X700533Y94051D02*
X700500D01*
Y90500D01*
X704051D01*
Y90533D01*
X703775Y91564D01*
X703242Y92488D01*
X702488Y93242D01*
X701564Y93775D01*
X700533Y94051D01*
D02*
G37*
G36*
X699500D02*
X699467D01*
X698436Y93775D01*
X697512Y93242D01*
X696758Y92488D01*
X696225Y91564D01*
X695949Y90533D01*
Y90500D01*
X699500D01*
Y94051D01*
D02*
G37*
G36*
X491360Y97791D02*
X490293D01*
X489263Y97515D01*
X488339Y96982D01*
X487585Y96228D01*
X487052Y95304D01*
X486776Y94274D01*
Y93207D01*
X487052Y92177D01*
X487585Y91253D01*
X488339Y90498D01*
X489263Y89965D01*
X490293Y89689D01*
X491360D01*
X492390Y89965D01*
X493314Y90498D01*
X494068Y91253D01*
X494602Y92177D01*
X494878Y93207D01*
Y94274D01*
X494602Y95304D01*
X494068Y96228D01*
X493314Y96982D01*
X492390Y97515D01*
X491360Y97791D01*
D02*
G37*
G36*
X480376D02*
X479309D01*
X478279Y97515D01*
X477355Y96982D01*
X476601Y96228D01*
X476067Y95304D01*
X475791Y94274D01*
Y93207D01*
X476067Y92177D01*
X476601Y91253D01*
X477355Y90498D01*
X478279Y89965D01*
X479309Y89689D01*
X480376D01*
X481406Y89965D01*
X482330Y90498D01*
X483084Y91253D01*
X483618Y92177D01*
X483894Y93207D01*
Y94274D01*
X483618Y95304D01*
X483084Y96228D01*
X482330Y96982D01*
X481406Y97515D01*
X480376Y97791D01*
D02*
G37*
G36*
X200269Y100804D02*
X199025D01*
X197805Y100561D01*
X196656Y100085D01*
X195622Y99394D01*
X194742Y98515D01*
X194051Y97480D01*
X193575Y96331D01*
X193332Y95111D01*
Y93867D01*
X193575Y92647D01*
X194051Y91498D01*
X194742Y90464D01*
X195622Y89584D01*
X196656Y88893D01*
X197805Y88417D01*
X199025Y88174D01*
X200269D01*
X201489Y88417D01*
X202639Y88893D01*
X203673Y89584D01*
X204553Y90464D01*
X205244Y91498D01*
X205720Y92647D01*
X205962Y93867D01*
Y95111D01*
X205720Y96331D01*
X205244Y97480D01*
X204553Y98515D01*
X203673Y99394D01*
X202639Y100085D01*
X201489Y100561D01*
X200269Y100804D01*
D02*
G37*
G36*
X780533Y94051D02*
X779467D01*
X778436Y93775D01*
X777513Y93242D01*
X776758Y92488D01*
X776225Y91564D01*
X775949Y90533D01*
Y89467D01*
X776225Y88436D01*
X776758Y87512D01*
X777513Y86758D01*
X778436Y86225D01*
X779467Y85949D01*
X780533D01*
X781564Y86225D01*
X782487Y86758D01*
X783242Y87512D01*
X783775Y88436D01*
X784051Y89467D01*
Y90533D01*
X783775Y91564D01*
X783242Y92488D01*
X782487Y93242D01*
X781564Y93775D01*
X780533Y94051D01*
D02*
G37*
G36*
X710533D02*
X709467D01*
X708436Y93775D01*
X707513Y93242D01*
X706758Y92488D01*
X706225Y91564D01*
X705949Y90533D01*
Y89467D01*
X706225Y88436D01*
X706758Y87512D01*
X707513Y86758D01*
X708436Y86225D01*
X709467Y85949D01*
X710533D01*
X711564Y86225D01*
X712488Y86758D01*
X713242Y87512D01*
X713775Y88436D01*
X714051Y89467D01*
Y90533D01*
X713775Y91564D01*
X713242Y92488D01*
X712488Y93242D01*
X711564Y93775D01*
X710533Y94051D01*
D02*
G37*
G36*
X704051Y89500D02*
X700500D01*
Y85949D01*
X700533D01*
X701564Y86225D01*
X702488Y86758D01*
X703242Y87512D01*
X703775Y88436D01*
X704051Y89467D01*
Y89500D01*
D02*
G37*
G36*
X699500D02*
X695949D01*
Y89467D01*
X696225Y88436D01*
X696758Y87512D01*
X697512Y86758D01*
X698436Y86225D01*
X699467Y85949D01*
X699500D01*
Y89500D01*
D02*
G37*
G36*
X690533Y94051D02*
X689467D01*
X688436Y93775D01*
X687512Y93242D01*
X686758Y92488D01*
X686225Y91564D01*
X685949Y90533D01*
Y89467D01*
X686225Y88436D01*
X686758Y87512D01*
X687512Y86758D01*
X688436Y86225D01*
X689467Y85949D01*
X690533D01*
X691564Y86225D01*
X692487Y86758D01*
X693242Y87512D01*
X693775Y88436D01*
X694051Y89467D01*
Y90533D01*
X693775Y91564D01*
X693242Y92488D01*
X692487Y93242D01*
X691564Y93775D01*
X690533Y94051D01*
D02*
G37*
G36*
X850534Y94051D02*
X849467D01*
X848437Y93775D01*
X847513Y93242D01*
X846759Y92488D01*
X846225Y91564D01*
X845949Y90533D01*
Y89467D01*
X846225Y88436D01*
X846759Y87512D01*
X847513Y86758D01*
X848437Y86225D01*
X849467Y85949D01*
X850534D01*
X851564Y86225D01*
X852488Y86758D01*
X853242Y87512D01*
X853776Y88436D01*
X854052Y89467D01*
Y90533D01*
X853776Y91564D01*
X853242Y92488D01*
X852488Y93242D01*
X851564Y93775D01*
X850534Y94051D01*
D02*
G37*
G36*
X836207D02*
X835140D01*
X834110Y93775D01*
X833186Y93242D01*
X832432Y92488D01*
X831898Y91564D01*
X831622Y90533D01*
Y89467D01*
X831898Y88436D01*
X832432Y87512D01*
X833186Y86758D01*
X834110Y86225D01*
X835140Y85949D01*
X836207D01*
X837237Y86225D01*
X838161Y86758D01*
X838915Y87512D01*
X839449Y88436D01*
X839725Y89467D01*
Y90533D01*
X839449Y91564D01*
X838915Y92488D01*
X838161Y93242D01*
X837237Y93775D01*
X836207Y94051D01*
D02*
G37*
G36*
X810534D02*
X809467D01*
X808437Y93775D01*
X807513Y93242D01*
X806759Y92488D01*
X806225Y91564D01*
X805949Y90533D01*
Y89467D01*
X806225Y88436D01*
X806759Y87512D01*
X807513Y86758D01*
X808437Y86225D01*
X809467Y85949D01*
X810534D01*
X811564Y86225D01*
X812488Y86758D01*
X813242Y87512D01*
X813776Y88436D01*
X814052Y89467D01*
Y90533D01*
X813776Y91564D01*
X813242Y92488D01*
X812488Y93242D01*
X811564Y93775D01*
X810534Y94051D01*
D02*
G37*
G36*
X790534D02*
X789467D01*
X788437Y93775D01*
X787513Y93242D01*
X786759Y92488D01*
X786225Y91564D01*
X785949Y90533D01*
Y89467D01*
X786225Y88436D01*
X786759Y87512D01*
X787513Y86758D01*
X788437Y86225D01*
X789467Y85949D01*
X790534D01*
X791564Y86225D01*
X792488Y86758D01*
X793242Y87512D01*
X793776Y88436D01*
X794052Y89467D01*
Y90533D01*
X793776Y91564D01*
X793242Y92488D01*
X792488Y93242D01*
X791564Y93775D01*
X790534Y94051D01*
D02*
G37*
G36*
X700533Y84051D02*
X700500D01*
Y80500D01*
X704051D01*
Y80533D01*
X703775Y81564D01*
X703242Y82487D01*
X702488Y83242D01*
X701564Y83775D01*
X700533Y84051D01*
D02*
G37*
G36*
X699500D02*
X699467D01*
X698436Y83775D01*
X697512Y83242D01*
X696758Y82487D01*
X696225Y81564D01*
X695949Y80533D01*
Y80500D01*
X699500D01*
Y84051D01*
D02*
G37*
G36*
X491360Y87791D02*
X490293D01*
X489263Y87515D01*
X488339Y86982D01*
X487585Y86228D01*
X487052Y85304D01*
X486776Y84273D01*
Y83207D01*
X487052Y82177D01*
X487585Y81253D01*
X488339Y80498D01*
X489263Y79965D01*
X490293Y79689D01*
X491360D01*
X492390Y79965D01*
X493314Y80498D01*
X494068Y81253D01*
X494602Y82177D01*
X494878Y83207D01*
Y84273D01*
X494602Y85304D01*
X494068Y86228D01*
X493314Y86982D01*
X492390Y87515D01*
X491360Y87791D01*
D02*
G37*
G36*
X480376D02*
X479309D01*
X478279Y87515D01*
X477355Y86982D01*
X476601Y86228D01*
X476067Y85304D01*
X475791Y84273D01*
Y83207D01*
X476067Y82177D01*
X476601Y81253D01*
X477355Y80498D01*
X478279Y79965D01*
X479309Y79689D01*
X480376D01*
X481406Y79965D01*
X482330Y80498D01*
X483084Y81253D01*
X483618Y82177D01*
X483894Y83207D01*
Y84273D01*
X483618Y85304D01*
X483084Y86228D01*
X482330Y86982D01*
X481406Y87515D01*
X480376Y87791D01*
D02*
G37*
G36*
X780533Y84051D02*
X779467D01*
X778436Y83775D01*
X777513Y83242D01*
X776758Y82487D01*
X776225Y81564D01*
X775949Y80533D01*
Y79467D01*
X776225Y78436D01*
X776758Y77513D01*
X777513Y76758D01*
X778436Y76225D01*
X779467Y75949D01*
X780533D01*
X781564Y76225D01*
X782487Y76758D01*
X783242Y77513D01*
X783775Y78436D01*
X784051Y79467D01*
Y80533D01*
X783775Y81564D01*
X783242Y82487D01*
X782487Y83242D01*
X781564Y83775D01*
X780533Y84051D01*
D02*
G37*
G36*
X710533D02*
X709467D01*
X708436Y83775D01*
X707513Y83242D01*
X706758Y82487D01*
X706225Y81564D01*
X705949Y80533D01*
Y79467D01*
X706225Y78436D01*
X706758Y77513D01*
X707513Y76758D01*
X708436Y76225D01*
X709467Y75949D01*
X710533D01*
X711564Y76225D01*
X712488Y76758D01*
X713242Y77513D01*
X713775Y78436D01*
X714051Y79467D01*
Y80533D01*
X713775Y81564D01*
X713242Y82487D01*
X712488Y83242D01*
X711564Y83775D01*
X710533Y84051D01*
D02*
G37*
G36*
X704051Y79500D02*
X700500D01*
Y75949D01*
X700533D01*
X701564Y76225D01*
X702488Y76758D01*
X703242Y77513D01*
X703775Y78436D01*
X704051Y79467D01*
Y79500D01*
D02*
G37*
G36*
X699500D02*
X695949D01*
Y79467D01*
X696225Y78436D01*
X696758Y77513D01*
X697512Y76758D01*
X698436Y76225D01*
X699467Y75949D01*
X699500D01*
Y79500D01*
D02*
G37*
G36*
X690533Y84051D02*
X689467D01*
X688436Y83775D01*
X687512Y83242D01*
X686758Y82487D01*
X686225Y81564D01*
X685949Y80533D01*
Y79467D01*
X686225Y78436D01*
X686758Y77513D01*
X687512Y76758D01*
X688436Y76225D01*
X689467Y75949D01*
X690533D01*
X691564Y76225D01*
X692487Y76758D01*
X693242Y77513D01*
X693775Y78436D01*
X694051Y79467D01*
Y80533D01*
X693775Y81564D01*
X693242Y82487D01*
X692487Y83242D01*
X691564Y83775D01*
X690533Y84051D01*
D02*
G37*
G36*
X850534Y84051D02*
X849467D01*
X848437Y83775D01*
X847513Y83242D01*
X846759Y82487D01*
X846225Y81564D01*
X845949Y80533D01*
Y79467D01*
X846225Y78436D01*
X846759Y77513D01*
X847513Y76758D01*
X848437Y76225D01*
X849467Y75949D01*
X850534D01*
X851564Y76225D01*
X852488Y76758D01*
X853242Y77513D01*
X853776Y78436D01*
X854052Y79467D01*
Y80533D01*
X853776Y81564D01*
X853242Y82487D01*
X852488Y83242D01*
X851564Y83775D01*
X850534Y84051D01*
D02*
G37*
G36*
X836207D02*
X835140D01*
X834110Y83775D01*
X833186Y83242D01*
X832432Y82487D01*
X831898Y81564D01*
X831622Y80533D01*
Y79467D01*
X831898Y78436D01*
X832432Y77513D01*
X833186Y76758D01*
X834110Y76225D01*
X835140Y75949D01*
X836207D01*
X837237Y76225D01*
X838161Y76758D01*
X838915Y77513D01*
X839449Y78436D01*
X839725Y79467D01*
Y80533D01*
X839449Y81564D01*
X838915Y82487D01*
X838161Y83242D01*
X837237Y83775D01*
X836207Y84051D01*
D02*
G37*
G36*
X810534D02*
X809467D01*
X808437Y83775D01*
X807513Y83242D01*
X806759Y82487D01*
X806225Y81564D01*
X805949Y80533D01*
Y79467D01*
X806225Y78436D01*
X806759Y77513D01*
X807513Y76758D01*
X808437Y76225D01*
X809467Y75949D01*
X810534D01*
X811564Y76225D01*
X812488Y76758D01*
X813242Y77513D01*
X813776Y78436D01*
X814052Y79467D01*
Y80533D01*
X813776Y81564D01*
X813242Y82487D01*
X812488Y83242D01*
X811564Y83775D01*
X810534Y84051D01*
D02*
G37*
G36*
X790534D02*
X789467D01*
X788437Y83775D01*
X787513Y83242D01*
X786759Y82487D01*
X786225Y81564D01*
X785949Y80533D01*
Y79467D01*
X786225Y78436D01*
X786759Y77513D01*
X787513Y76758D01*
X788437Y76225D01*
X789467Y75949D01*
X790534D01*
X791564Y76225D01*
X792488Y76758D01*
X793242Y77513D01*
X793776Y78436D01*
X794052Y79467D01*
Y80533D01*
X793776Y81564D01*
X793242Y82487D01*
X792488Y83242D01*
X791564Y83775D01*
X790534Y84051D01*
D02*
G37*
G36*
X704051Y74051D02*
X700500D01*
Y70500D01*
X704051D01*
Y74051D01*
D02*
G37*
G36*
X699500D02*
X695949D01*
Y70500D01*
X699500D01*
Y74051D01*
D02*
G37*
G36*
X491360Y77791D02*
X490293D01*
X489263Y77515D01*
X488339Y76982D01*
X487585Y76228D01*
X487052Y75304D01*
X486776Y74274D01*
Y73207D01*
X487052Y72176D01*
X487585Y71253D01*
X488339Y70498D01*
X489263Y69965D01*
X490293Y69689D01*
X491360D01*
X492390Y69965D01*
X493314Y70498D01*
X494068Y71253D01*
X494602Y72176D01*
X494878Y73207D01*
Y74274D01*
X494602Y75304D01*
X494068Y76228D01*
X493314Y76982D01*
X492390Y77515D01*
X491360Y77791D01*
D02*
G37*
G36*
X480376D02*
X479309D01*
X478279Y77515D01*
X477355Y76982D01*
X476601Y76228D01*
X476067Y75304D01*
X475791Y74274D01*
Y73207D01*
X476067Y72176D01*
X476601Y71253D01*
X477355Y70498D01*
X478279Y69965D01*
X479309Y69689D01*
X480376D01*
X481406Y69965D01*
X482330Y70498D01*
X483084Y71253D01*
X483618Y72176D01*
X483894Y73207D01*
Y74274D01*
X483618Y75304D01*
X483084Y76228D01*
X482330Y76982D01*
X481406Y77515D01*
X480376Y77791D01*
D02*
G37*
G36*
X780533Y74051D02*
X779467D01*
X778436Y73775D01*
X777513Y73242D01*
X776758Y72487D01*
X776225Y71564D01*
X775949Y70533D01*
Y69467D01*
X776225Y68436D01*
X776758Y67513D01*
X777513Y66758D01*
X778436Y66225D01*
X779467Y65949D01*
X780533D01*
X781564Y66225D01*
X782487Y66758D01*
X783242Y67513D01*
X783775Y68436D01*
X784051Y69467D01*
Y70533D01*
X783775Y71564D01*
X783242Y72487D01*
X782487Y73242D01*
X781564Y73775D01*
X780533Y74051D01*
D02*
G37*
G36*
X714051D02*
X705949D01*
Y65949D01*
X714051D01*
Y74051D01*
D02*
G37*
G36*
X704051Y69500D02*
X700500D01*
Y65949D01*
X704051D01*
Y69500D01*
D02*
G37*
G36*
X699500D02*
X695949D01*
Y65949D01*
X699500D01*
Y69500D01*
D02*
G37*
G36*
X694051Y74051D02*
X685949D01*
Y65949D01*
X694051D01*
Y74051D01*
D02*
G37*
G36*
X850534Y74051D02*
X849467D01*
X848437Y73775D01*
X847513Y73242D01*
X846759Y72487D01*
X846225Y71564D01*
X845949Y70533D01*
Y69467D01*
X846225Y68436D01*
X846759Y67513D01*
X847513Y66758D01*
X848437Y66225D01*
X849467Y65949D01*
X850534D01*
X851564Y66225D01*
X852488Y66758D01*
X853242Y67513D01*
X853776Y68436D01*
X854052Y69467D01*
Y70533D01*
X853776Y71564D01*
X853242Y72487D01*
X852488Y73242D01*
X851564Y73775D01*
X850534Y74051D01*
D02*
G37*
G36*
X836207D02*
X835140D01*
X834110Y73775D01*
X833186Y73242D01*
X832432Y72487D01*
X831898Y71564D01*
X831622Y70533D01*
Y69467D01*
X831898Y68436D01*
X832432Y67513D01*
X833186Y66758D01*
X834110Y66225D01*
X835140Y65949D01*
X836207D01*
X837237Y66225D01*
X838161Y66758D01*
X838915Y67513D01*
X839449Y68436D01*
X839725Y69467D01*
Y70533D01*
X839449Y71564D01*
X838915Y72487D01*
X838161Y73242D01*
X837237Y73775D01*
X836207Y74051D01*
D02*
G37*
G36*
X810534D02*
X809467D01*
X808437Y73775D01*
X807513Y73242D01*
X806759Y72487D01*
X806225Y71564D01*
X805949Y70533D01*
Y69467D01*
X806225Y68436D01*
X806759Y67513D01*
X807513Y66758D01*
X808437Y66225D01*
X809467Y65949D01*
X810534D01*
X811564Y66225D01*
X812488Y66758D01*
X813242Y67513D01*
X813776Y68436D01*
X814052Y69467D01*
Y70533D01*
X813776Y71564D01*
X813242Y72487D01*
X812488Y73242D01*
X811564Y73775D01*
X810534Y74051D01*
D02*
G37*
G36*
X790534D02*
X789467D01*
X788437Y73775D01*
X787513Y73242D01*
X786759Y72487D01*
X786225Y71564D01*
X785949Y70533D01*
Y69467D01*
X786225Y68436D01*
X786759Y67513D01*
X787513Y66758D01*
X788437Y66225D01*
X789467Y65949D01*
X790534D01*
X791564Y66225D01*
X792488Y66758D01*
X793242Y67513D01*
X793776Y68436D01*
X794052Y69467D01*
Y70533D01*
X793776Y71564D01*
X793242Y72487D01*
X792488Y73242D01*
X791564Y73775D01*
X790534Y74051D01*
D02*
G37*
G36*
X180269Y74702D02*
X179025D01*
X177805Y74459D01*
X176656Y73983D01*
X175622Y73292D01*
X174742Y72412D01*
X174051Y71378D01*
X173575Y70229D01*
X173332Y69009D01*
Y67765D01*
X173575Y66545D01*
X174051Y65396D01*
X174742Y64361D01*
X175622Y63482D01*
X176656Y62791D01*
X177805Y62314D01*
X179025Y62072D01*
X180269D01*
X181489Y62314D01*
X182639Y62791D01*
X183673Y63482D01*
X184553Y64361D01*
X185244Y65396D01*
X185720Y66545D01*
X185962Y67765D01*
Y69009D01*
X185720Y70229D01*
X185244Y71378D01*
X184553Y72412D01*
X183673Y73292D01*
X182639Y73983D01*
X181489Y74459D01*
X180269Y74702D01*
D02*
G37*
G36*
X491360Y67791D02*
X490293D01*
X489263Y67515D01*
X488339Y66982D01*
X487585Y66228D01*
X487052Y65304D01*
X486776Y64274D01*
Y63207D01*
X487052Y62177D01*
X487585Y61253D01*
X488339Y60498D01*
X489263Y59965D01*
X490293Y59689D01*
X491360D01*
X492390Y59965D01*
X493314Y60498D01*
X494068Y61253D01*
X494602Y62177D01*
X494878Y63207D01*
Y64274D01*
X494602Y65304D01*
X494068Y66228D01*
X493314Y66982D01*
X492390Y67515D01*
X491360Y67791D01*
D02*
G37*
G36*
X480376D02*
X479309D01*
X478279Y67515D01*
X477355Y66982D01*
X476601Y66228D01*
X476067Y65304D01*
X475791Y64274D01*
Y63207D01*
X476067Y62177D01*
X476601Y61253D01*
X477355Y60498D01*
X478279Y59965D01*
X479309Y59689D01*
X480376D01*
X481406Y59965D01*
X482330Y60498D01*
X483084Y61253D01*
X483618Y62177D01*
X483894Y63207D01*
Y64274D01*
X483618Y65304D01*
X483084Y66228D01*
X482330Y66982D01*
X481406Y67515D01*
X480376Y67791D01*
D02*
G37*
G36*
X780533Y64051D02*
X779467D01*
X778436Y63775D01*
X777513Y63242D01*
X776758Y62488D01*
X776225Y61564D01*
X775949Y60533D01*
Y59467D01*
X776225Y58436D01*
X776758Y57512D01*
X777513Y56758D01*
X778436Y56225D01*
X779467Y55949D01*
X780533D01*
X781564Y56225D01*
X782487Y56758D01*
X783242Y57512D01*
X783775Y58436D01*
X784051Y59467D01*
Y60533D01*
X783775Y61564D01*
X783242Y62488D01*
X782487Y63242D01*
X781564Y63775D01*
X780533Y64051D01*
D02*
G37*
G36*
X850534Y64051D02*
X849467D01*
X848437Y63775D01*
X847513Y63242D01*
X846759Y62488D01*
X846225Y61564D01*
X845949Y60533D01*
Y59467D01*
X846225Y58436D01*
X846759Y57512D01*
X847513Y56758D01*
X848437Y56225D01*
X849467Y55949D01*
X850534D01*
X851564Y56225D01*
X852488Y56758D01*
X853242Y57512D01*
X853776Y58436D01*
X854052Y59467D01*
Y60533D01*
X853776Y61564D01*
X853242Y62488D01*
X852488Y63242D01*
X851564Y63775D01*
X850534Y64051D01*
D02*
G37*
G36*
X836207D02*
X835140D01*
X834110Y63775D01*
X833186Y63242D01*
X832432Y62488D01*
X831898Y61564D01*
X831622Y60533D01*
Y59467D01*
X831898Y58436D01*
X832432Y57512D01*
X833186Y56758D01*
X834110Y56225D01*
X835140Y55949D01*
X836207D01*
X837237Y56225D01*
X838161Y56758D01*
X838915Y57512D01*
X839449Y58436D01*
X839725Y59467D01*
Y60533D01*
X839449Y61564D01*
X838915Y62488D01*
X838161Y63242D01*
X837237Y63775D01*
X836207Y64051D01*
D02*
G37*
G36*
X810534D02*
X809467D01*
X808437Y63775D01*
X807513Y63242D01*
X806759Y62488D01*
X806225Y61564D01*
X805949Y60533D01*
Y59467D01*
X806225Y58436D01*
X806759Y57512D01*
X807513Y56758D01*
X808437Y56225D01*
X809467Y55949D01*
X810534D01*
X811564Y56225D01*
X812488Y56758D01*
X813242Y57512D01*
X813776Y58436D01*
X814052Y59467D01*
Y60533D01*
X813776Y61564D01*
X813242Y62488D01*
X812488Y63242D01*
X811564Y63775D01*
X810534Y64051D01*
D02*
G37*
G36*
X790534D02*
X789467D01*
X788437Y63775D01*
X787513Y63242D01*
X786759Y62488D01*
X786225Y61564D01*
X785949Y60533D01*
Y59467D01*
X786225Y58436D01*
X786759Y57512D01*
X787513Y56758D01*
X788437Y56225D01*
X789467Y55949D01*
X790534D01*
X791564Y56225D01*
X792488Y56758D01*
X793242Y57512D01*
X793776Y58436D01*
X794052Y59467D01*
Y60533D01*
X793776Y61564D01*
X793242Y62488D01*
X792488Y63242D01*
X791564Y63775D01*
X790534Y64051D01*
D02*
G37*
G36*
X491360Y57791D02*
X490293D01*
X489263Y57515D01*
X488339Y56982D01*
X487585Y56228D01*
X487052Y55304D01*
X486776Y54273D01*
Y53207D01*
X487052Y52176D01*
X487585Y51253D01*
X488339Y50498D01*
X489263Y49965D01*
X490293Y49689D01*
X491360D01*
X492390Y49965D01*
X493314Y50498D01*
X494068Y51253D01*
X494602Y52176D01*
X494878Y53207D01*
Y54273D01*
X494602Y55304D01*
X494068Y56228D01*
X493314Y56982D01*
X492390Y57515D01*
X491360Y57791D01*
D02*
G37*
G36*
X480376D02*
X479309D01*
X478279Y57515D01*
X477355Y56982D01*
X476601Y56228D01*
X476067Y55304D01*
X475791Y54273D01*
Y53207D01*
X476067Y52176D01*
X476601Y51253D01*
X477355Y50498D01*
X478279Y49965D01*
X479309Y49689D01*
X480376D01*
X481406Y49965D01*
X482330Y50498D01*
X483084Y51253D01*
X483618Y52176D01*
X483894Y53207D01*
Y54273D01*
X483618Y55304D01*
X483084Y56228D01*
X482330Y56982D01*
X481406Y57515D01*
X480376Y57791D01*
D02*
G37*
G36*
X780533Y54051D02*
X779467D01*
X778436Y53775D01*
X777513Y53242D01*
X776758Y52487D01*
X776225Y51564D01*
X775949Y50533D01*
Y49467D01*
X776225Y48436D01*
X776758Y47513D01*
X777513Y46758D01*
X778436Y46225D01*
X779467Y45949D01*
X780533D01*
X781564Y46225D01*
X782487Y46758D01*
X783242Y47513D01*
X783775Y48436D01*
X784051Y49467D01*
Y50533D01*
X783775Y51564D01*
X783242Y52487D01*
X782487Y53242D01*
X781564Y53775D01*
X780533Y54051D01*
D02*
G37*
G36*
X850534Y54051D02*
X849467D01*
X848437Y53775D01*
X847513Y53242D01*
X846759Y52487D01*
X846225Y51564D01*
X845949Y50533D01*
Y49467D01*
X846225Y48436D01*
X846759Y47513D01*
X847513Y46758D01*
X848437Y46225D01*
X849467Y45949D01*
X850534D01*
X851564Y46225D01*
X852488Y46758D01*
X853242Y47513D01*
X853776Y48436D01*
X854052Y49467D01*
Y50533D01*
X853776Y51564D01*
X853242Y52487D01*
X852488Y53242D01*
X851564Y53775D01*
X850534Y54051D01*
D02*
G37*
G36*
X836207D02*
X835140D01*
X834110Y53775D01*
X833186Y53242D01*
X832432Y52487D01*
X831898Y51564D01*
X831622Y50533D01*
Y49467D01*
X831898Y48436D01*
X832432Y47513D01*
X833186Y46758D01*
X834110Y46225D01*
X835140Y45949D01*
X836207D01*
X837237Y46225D01*
X838161Y46758D01*
X838915Y47513D01*
X839449Y48436D01*
X839725Y49467D01*
Y50533D01*
X839449Y51564D01*
X838915Y52487D01*
X838161Y53242D01*
X837237Y53775D01*
X836207Y54051D01*
D02*
G37*
G36*
X810534D02*
X809467D01*
X808437Y53775D01*
X807513Y53242D01*
X806759Y52487D01*
X806225Y51564D01*
X805949Y50533D01*
Y49467D01*
X806225Y48436D01*
X806759Y47513D01*
X807513Y46758D01*
X808437Y46225D01*
X809467Y45949D01*
X810534D01*
X811564Y46225D01*
X812488Y46758D01*
X813242Y47513D01*
X813776Y48436D01*
X814052Y49467D01*
Y50533D01*
X813776Y51564D01*
X813242Y52487D01*
X812488Y53242D01*
X811564Y53775D01*
X810534Y54051D01*
D02*
G37*
G36*
X790534D02*
X789467D01*
X788437Y53775D01*
X787513Y53242D01*
X786759Y52487D01*
X786225Y51564D01*
X785949Y50533D01*
Y49467D01*
X786225Y48436D01*
X786759Y47513D01*
X787513Y46758D01*
X788437Y46225D01*
X789467Y45949D01*
X790534D01*
X791564Y46225D01*
X792488Y46758D01*
X793242Y47513D01*
X793776Y48436D01*
X794052Y49467D01*
Y50533D01*
X793776Y51564D01*
X793242Y52487D01*
X792488Y53242D01*
X791564Y53775D01*
X790534Y54051D01*
D02*
G37*
G36*
X81798Y52890D02*
X73499D01*
Y44591D01*
X81798D01*
Y52890D01*
D02*
G37*
G36*
X71798D02*
X63499D01*
Y44591D01*
X71798D01*
Y52890D01*
D02*
G37*
G36*
X61798D02*
X53499D01*
Y44591D01*
X61798D01*
Y52890D01*
D02*
G37*
G36*
X51798D02*
X43499D01*
Y44591D01*
X51798D01*
Y52890D01*
D02*
G37*
G36*
X41798D02*
X33499D01*
Y44591D01*
X41798D01*
Y52890D01*
D02*
G37*
G36*
X31798D02*
X23499D01*
Y44591D01*
X31798D01*
Y52890D01*
D02*
G37*
G36*
X21798D02*
X13499D01*
Y44591D01*
X21798D01*
Y52890D01*
D02*
G37*
G36*
X154167Y54702D02*
X152923D01*
X151703Y54459D01*
X150554Y53983D01*
X149519Y53292D01*
X148640Y52412D01*
X147949Y51378D01*
X147473Y50229D01*
X147230Y49009D01*
Y47765D01*
X147473Y46545D01*
X147949Y45395D01*
X148640Y44361D01*
X149519Y43482D01*
X150554Y42791D01*
X151703Y42314D01*
X152923Y42072D01*
X154167D01*
X155387Y42314D01*
X156536Y42791D01*
X157571Y43482D01*
X158450Y44361D01*
X159141Y45395D01*
X159617Y46545D01*
X159860Y47765D01*
Y49009D01*
X159617Y50229D01*
X159141Y51378D01*
X158450Y52412D01*
X157571Y53292D01*
X156536Y53983D01*
X155387Y54459D01*
X154167Y54702D01*
D02*
G37*
G36*
X780533Y44051D02*
X779467D01*
X778436Y43775D01*
X777513Y43242D01*
X776758Y42487D01*
X776225Y41564D01*
X775949Y40533D01*
Y39467D01*
X776225Y38436D01*
X776758Y37512D01*
X777513Y36758D01*
X778436Y36225D01*
X779467Y35949D01*
X780533D01*
X781564Y36225D01*
X782487Y36758D01*
X783242Y37512D01*
X783775Y38436D01*
X784051Y39467D01*
Y40533D01*
X783775Y41564D01*
X783242Y42487D01*
X782487Y43242D01*
X781564Y43775D01*
X780533Y44051D01*
D02*
G37*
G36*
X850534Y44051D02*
X849467D01*
X848437Y43775D01*
X847513Y43242D01*
X846759Y42487D01*
X846225Y41564D01*
X845949Y40533D01*
Y39467D01*
X846225Y38436D01*
X846759Y37512D01*
X847513Y36758D01*
X848437Y36225D01*
X849467Y35949D01*
X850534D01*
X851564Y36225D01*
X852488Y36758D01*
X853242Y37512D01*
X853776Y38436D01*
X854052Y39467D01*
Y40533D01*
X853776Y41564D01*
X853242Y42487D01*
X852488Y43242D01*
X851564Y43775D01*
X850534Y44051D01*
D02*
G37*
G36*
X836207D02*
X835140D01*
X834110Y43775D01*
X833186Y43242D01*
X832432Y42487D01*
X831898Y41564D01*
X831622Y40533D01*
Y39467D01*
X831898Y38436D01*
X832432Y37512D01*
X833186Y36758D01*
X834110Y36225D01*
X835140Y35949D01*
X836207D01*
X837237Y36225D01*
X838161Y36758D01*
X838915Y37512D01*
X839449Y38436D01*
X839725Y39467D01*
Y40533D01*
X839449Y41564D01*
X838915Y42487D01*
X838161Y43242D01*
X837237Y43775D01*
X836207Y44051D01*
D02*
G37*
G36*
X810534D02*
X809467D01*
X808437Y43775D01*
X807513Y43242D01*
X806759Y42487D01*
X806225Y41564D01*
X805949Y40533D01*
Y39467D01*
X806225Y38436D01*
X806759Y37512D01*
X807513Y36758D01*
X808437Y36225D01*
X809467Y35949D01*
X810534D01*
X811564Y36225D01*
X812488Y36758D01*
X813242Y37512D01*
X813776Y38436D01*
X814052Y39467D01*
Y40533D01*
X813776Y41564D01*
X813242Y42487D01*
X812488Y43242D01*
X811564Y43775D01*
X810534Y44051D01*
D02*
G37*
G36*
X790534D02*
X789467D01*
X788437Y43775D01*
X787513Y43242D01*
X786759Y42487D01*
X786225Y41564D01*
X785949Y40533D01*
Y39467D01*
X786225Y38436D01*
X786759Y37512D01*
X787513Y36758D01*
X788437Y36225D01*
X789467Y35949D01*
X790534D01*
X791564Y36225D01*
X792488Y36758D01*
X793242Y37512D01*
X793776Y38436D01*
X794052Y39467D01*
Y40533D01*
X793776Y41564D01*
X793242Y42487D01*
X792488Y43242D01*
X791564Y43775D01*
X790534Y44051D01*
D02*
G37*
G36*
X123773Y42103D02*
X122529D01*
X121309Y41861D01*
X120160Y41385D01*
X119126Y40694D01*
X118246Y39814D01*
X117555Y38780D01*
X117079Y37630D01*
X116836Y36410D01*
Y35166D01*
X117079Y33946D01*
X117555Y32797D01*
X118246Y31763D01*
X119126Y30883D01*
X120160Y30192D01*
X121309Y29716D01*
X122529Y29473D01*
X123773D01*
X124993Y29716D01*
X126143Y30192D01*
X127177Y30883D01*
X128056Y31763D01*
X128747Y32797D01*
X129224Y33946D01*
X129466Y35166D01*
Y36410D01*
X129224Y37630D01*
X128747Y38780D01*
X128056Y39814D01*
X127177Y40694D01*
X126143Y41385D01*
X124993Y41861D01*
X123773Y42103D01*
D02*
G37*
G36*
X784051Y34051D02*
X775949D01*
Y25949D01*
X784051D01*
Y34051D01*
D02*
G37*
G36*
X854052Y34051D02*
X845949D01*
Y25949D01*
X854052D01*
Y34051D01*
D02*
G37*
G36*
X836207D02*
X835140D01*
X834110Y33775D01*
X833186Y33242D01*
X832432Y32487D01*
X831898Y31564D01*
X831622Y30533D01*
Y29467D01*
X831898Y28436D01*
X832432Y27512D01*
X833186Y26758D01*
X834110Y26225D01*
X835140Y25949D01*
X836207D01*
X837237Y26225D01*
X838161Y26758D01*
X838915Y27512D01*
X839449Y28436D01*
X839725Y29467D01*
Y30533D01*
X839449Y31564D01*
X838915Y32487D01*
X838161Y33242D01*
X837237Y33775D01*
X836207Y34051D01*
D02*
G37*
G36*
X810534D02*
X809467D01*
X808437Y33775D01*
X807513Y33242D01*
X806759Y32487D01*
X806225Y31564D01*
X805949Y30533D01*
Y29467D01*
X806225Y28436D01*
X806759Y27512D01*
X807513Y26758D01*
X808437Y26225D01*
X809467Y25949D01*
X810534D01*
X811564Y26225D01*
X812488Y26758D01*
X813242Y27512D01*
X813776Y28436D01*
X814052Y29467D01*
Y30533D01*
X813776Y31564D01*
X813242Y32487D01*
X812488Y33242D01*
X811564Y33775D01*
X810534Y34051D01*
D02*
G37*
G36*
X794052D02*
X785949D01*
Y25949D01*
X794052D01*
Y34051D01*
D02*
G37*
G36*
X91175Y37812D02*
X89931D01*
X88711Y37569D01*
X87562Y37093D01*
X86527Y36402D01*
X85648Y35523D01*
X84957Y34488D01*
X84481Y33339D01*
X84238Y32119D01*
Y30875D01*
X84481Y29655D01*
X84957Y28506D01*
X85648Y27472D01*
X86527Y26592D01*
X87562Y25901D01*
X88711Y25425D01*
X89931Y25182D01*
X91175D01*
X92395Y25425D01*
X93544Y25901D01*
X94578Y26592D01*
X95458Y27472D01*
X96149Y28506D01*
X96625Y29655D01*
X96868Y30875D01*
Y32119D01*
X96625Y33339D01*
X96149Y34488D01*
X95458Y35523D01*
X94578Y36402D01*
X93544Y37093D01*
X92395Y37569D01*
X91175Y37812D01*
D02*
G37*
G36*
X429898Y72000D02*
X429102D01*
X428367Y71696D01*
X427805Y71133D01*
X427500Y70398D01*
Y70095D01*
X427481Y70004D01*
X427479Y69908D01*
X427475Y69849D01*
X427469Y69802D01*
X427463Y69768D01*
X427462Y69764D01*
X406386Y48689D01*
X406110Y48275D01*
X406013Y47787D01*
Y22647D01*
X406011Y22643D01*
X406000Y22627D01*
X405913Y22522D01*
X405856Y22464D01*
X405806Y22386D01*
X405592Y22172D01*
X405287Y21437D01*
Y20641D01*
X405592Y19906D01*
X406154Y19343D01*
X406890Y19039D01*
X407685D01*
X408420Y19343D01*
X408983Y19906D01*
X409287Y20641D01*
Y21437D01*
X408983Y22172D01*
X408769Y22386D01*
X408718Y22464D01*
X408651Y22533D01*
X408612Y22578D01*
X408583Y22615D01*
X408564Y22643D01*
X408562Y22647D01*
Y47260D01*
X429264Y67962D01*
X429268Y67963D01*
X429287Y67967D01*
X429423Y67979D01*
X429504Y67981D01*
X429595Y68000D01*
X429898D01*
X430633Y68305D01*
X431195Y68867D01*
X431500Y69602D01*
Y70398D01*
X431195Y71133D01*
X430633Y71696D01*
X429898Y72000D01*
D02*
G37*
G36*
X432398Y63000D02*
X431602D01*
X430867Y62695D01*
X430304Y62133D01*
X430000Y61398D01*
Y61095D01*
X429981Y61004D01*
X429979Y60908D01*
X429975Y60849D01*
X429969Y60802D01*
X429963Y60768D01*
X429962Y60764D01*
X421012Y51815D01*
X420736Y51401D01*
X420639Y50913D01*
Y19113D01*
X420637Y19109D01*
X420626Y19093D01*
X420539Y18988D01*
X420482Y18930D01*
X420432Y18851D01*
X420218Y18638D01*
X419913Y17902D01*
Y17107D01*
X420218Y16372D01*
X420781Y15809D01*
X421516Y15505D01*
X422311D01*
X423046Y15809D01*
X423609Y16372D01*
X423913Y17107D01*
Y17902D01*
X423609Y18638D01*
X423395Y18851D01*
X423344Y18930D01*
X423277Y18999D01*
X423238Y19044D01*
X423209Y19081D01*
X423190Y19109D01*
X423188Y19113D01*
Y50385D01*
X431764Y58962D01*
X431768Y58963D01*
X431787Y58966D01*
X431923Y58979D01*
X432004Y58981D01*
X432095Y59000D01*
X432398D01*
X433133Y59304D01*
X433696Y59867D01*
X434000Y60602D01*
Y61398D01*
X433696Y62133D01*
X433133Y62695D01*
X432398Y63000D01*
D02*
G37*
%LPD*%
G36*
X11946Y146780D02*
X11967Y146744D01*
X12002Y146712D01*
X12052Y146685D01*
X12116Y146662D01*
X12195Y146643D01*
X12287Y146628D01*
X12394Y146617D01*
X12650Y146609D01*
Y145609D01*
X11938Y145583D01*
Y146820D01*
X11946Y146780D01*
D02*
G37*
G36*
X11111Y138218D02*
X10753Y137760D01*
X10607Y137541D01*
X10485Y137328D01*
X10384Y137122D01*
X10306Y136922D01*
X10250Y136729D01*
X10216Y136542D01*
X10205Y136362D01*
X9205Y136311D01*
X9193Y136499D01*
X9157Y136688D01*
X9098Y136880D01*
X9015Y137075D01*
X8909Y137272D01*
X8778Y137471D01*
X8624Y137673D01*
X8447Y137877D01*
X8245Y138084D01*
X8020Y138293D01*
X11323Y138456D01*
X11111Y138218D01*
D02*
G37*
G36*
X46957Y65392D02*
X46973Y65175D01*
X47022Y64947D01*
X47104Y64708D01*
X47218Y64458D01*
X47366Y64197D01*
X47545Y63925D01*
X47758Y63643D01*
X48281Y63045D01*
X48592Y62730D01*
X44321Y62731D01*
X44631Y63046D01*
X45155Y63643D01*
X45368Y63926D01*
X45548Y64197D01*
X45695Y64458D01*
X45809Y64708D01*
X45891Y64947D01*
X45940Y65175D01*
X45957Y65392D01*
X46957Y65392D01*
D02*
G37*
G36*
X39083D02*
X39099Y65175D01*
X39148Y64947D01*
X39230Y64708D01*
X39344Y64458D01*
X39492Y64197D01*
X39671Y63925D01*
X39884Y63643D01*
X40407Y63045D01*
X40718Y62730D01*
X36447Y62731D01*
X36757Y63046D01*
X37281Y63643D01*
X37494Y63926D01*
X37674Y64197D01*
X37821Y64458D01*
X37935Y64708D01*
X38017Y64947D01*
X38066Y65175D01*
X38083Y65392D01*
X39083Y65392D01*
D02*
G37*
G36*
X429490Y69000D02*
X429367Y68998D01*
X429142Y68977D01*
X429040Y68957D01*
X428944Y68932D01*
X428856Y68900D01*
X428773Y68863D01*
X428698Y68819D01*
X428630Y68770D01*
X428568Y68714D01*
X428214Y69068D01*
X428270Y69130D01*
X428319Y69198D01*
X428363Y69274D01*
X428400Y69356D01*
X428432Y69444D01*
X428457Y69540D01*
X428477Y69642D01*
X428491Y69752D01*
X428498Y69867D01*
X428500Y69990D01*
X429490Y69000D01*
D02*
G37*
G36*
X407542Y22524D02*
X407555Y22441D01*
X407578Y22357D01*
X407609Y22272D01*
X407650Y22187D01*
X407699Y22101D01*
X407758Y22015D01*
X407825Y21928D01*
X407902Y21841D01*
X407987Y21753D01*
X406587D01*
X406673Y21841D01*
X406817Y22015D01*
X406875Y22101D01*
X406925Y22187D01*
X406965Y22272D01*
X406997Y22357D01*
X407019Y22441D01*
X407033Y22524D01*
X407037Y22607D01*
X407537D01*
X407542Y22524D01*
D02*
G37*
G36*
X431990Y60000D02*
X431867Y59998D01*
X431642Y59977D01*
X431540Y59957D01*
X431444Y59932D01*
X431356Y59900D01*
X431274Y59863D01*
X431198Y59819D01*
X431130Y59770D01*
X431068Y59714D01*
X430714Y60068D01*
X430770Y60130D01*
X430819Y60198D01*
X430863Y60273D01*
X430900Y60356D01*
X430932Y60444D01*
X430957Y60540D01*
X430977Y60642D01*
X430991Y60751D01*
X430998Y60867D01*
X431000Y60990D01*
X431990Y60000D01*
D02*
G37*
G36*
X422168Y18990D02*
X422181Y18907D01*
X422204Y18823D01*
X422235Y18738D01*
X422276Y18653D01*
X422325Y18567D01*
X422384Y18481D01*
X422451Y18394D01*
X422528Y18307D01*
X422613Y18219D01*
X421213D01*
X421299Y18307D01*
X421443Y18481D01*
X421501Y18567D01*
X421551Y18653D01*
X421591Y18738D01*
X421623Y18823D01*
X421645Y18907D01*
X421659Y18990D01*
X421663Y19073D01*
X422163D01*
X422168Y18990D01*
D02*
G37*
D10*
X421913Y50913D02*
X432000Y61000D01*
X421913Y17505D02*
Y50913D01*
X407287Y47787D02*
X429500Y70000D01*
X407287Y21039D02*
Y47787D01*
D14*
X46457Y60551D02*
Y71655D01*
X27056Y91056D02*
X46457Y71655D01*
X12202Y105909D02*
X27056Y91056D01*
X12202Y105909D02*
Y127345D01*
X15532Y130675D01*
Y143226D01*
X12650Y146109D02*
X15532Y143226D01*
X11413Y146109D02*
X12650D01*
X9588Y147934D02*
X11413Y146109D01*
X38583Y60551D02*
Y71655D01*
X21369Y88869D02*
X38583Y71655D01*
X9705Y100533D02*
X21369Y88869D01*
X9705Y100533D02*
Y139943D01*
X9588Y140060D02*
X9705Y139943D01*
D31*
X9588Y147934D02*
D03*
D63*
Y140060D02*
D03*
D64*
X46456Y60551D02*
D03*
X38582D02*
D03*
X479843Y73740D02*
D03*
Y53740D02*
D03*
Y63740D02*
D03*
Y83740D02*
D03*
Y93740D02*
D03*
X490827Y53740D02*
D03*
Y83740D02*
D03*
Y73740D02*
D03*
Y63740D02*
D03*
Y93740D02*
D03*
X780000Y70000D02*
D03*
X790000Y70000D02*
D03*
X670000Y100000D02*
D03*
Y125673D02*
D03*
X660000Y100000D02*
D03*
Y125673D02*
D03*
X650000Y100000D02*
D03*
Y125673D02*
D03*
X640000Y100000D02*
D03*
Y125673D02*
D03*
X630000Y100000D02*
D03*
Y125673D02*
D03*
X620000Y100000D02*
D03*
Y125673D02*
D03*
X610000Y100000D02*
D03*
Y125673D02*
D03*
X600000Y100000D02*
D03*
Y125673D02*
D03*
X590000Y100000D02*
D03*
Y125673D02*
D03*
X580000Y100000D02*
D03*
Y125673D02*
D03*
X700000Y80000D02*
D03*
Y90000D02*
D03*
Y110000D02*
D03*
Y140000D02*
D03*
Y120000D02*
D03*
Y130000D02*
D03*
Y100000D02*
D03*
X510000Y125673D02*
D03*
X690000Y140000D02*
D03*
Y130000D02*
D03*
Y100000D02*
D03*
Y90000D02*
D03*
Y120000D02*
D03*
Y110000D02*
D03*
Y80000D02*
D03*
X510000Y100000D02*
D03*
X780000Y120000D02*
D03*
X790000Y120000D02*
D03*
Y80000D02*
D03*
X780000Y80000D02*
D03*
X789991Y129977D02*
D03*
X779990Y129977D02*
D03*
X550000Y125673D02*
D03*
X520000D02*
D03*
X560000D02*
D03*
X540000D02*
D03*
X530000D02*
D03*
X710000Y130000D02*
D03*
Y100000D02*
D03*
Y140000D02*
D03*
Y120000D02*
D03*
Y110000D02*
D03*
Y90000D02*
D03*
Y80000D02*
D03*
X780000Y110000D02*
D03*
Y100000D02*
D03*
Y90000D02*
D03*
Y60000D02*
D03*
Y50000D02*
D03*
Y40000D02*
D03*
X850000Y150000D02*
D03*
Y140000D02*
D03*
Y130000D02*
D03*
Y120000D02*
D03*
Y110000D02*
D03*
Y100000D02*
D03*
Y90000D02*
D03*
Y80000D02*
D03*
Y70000D02*
D03*
Y60000D02*
D03*
Y50000D02*
D03*
Y40000D02*
D03*
X810000Y140001D02*
D03*
X835673D02*
D03*
X810000Y150001D02*
D03*
X835673D02*
D03*
X570000Y100000D02*
D03*
Y125673D02*
D03*
X520000Y100000D02*
D03*
X540000D02*
D03*
X550000D02*
D03*
X560000D02*
D03*
X530000D02*
D03*
X835673Y30000D02*
D03*
X810000D02*
D03*
X580000Y140000D02*
D03*
X590000D02*
D03*
X600000D02*
D03*
X610000D02*
D03*
X620000D02*
D03*
X630000D02*
D03*
X640000D02*
D03*
X650000D02*
D03*
X660000D02*
D03*
X669977Y140010D02*
D03*
X835673Y90000D02*
D03*
X810000D02*
D03*
X835673Y110000D02*
D03*
X810000D02*
D03*
X835673Y130000D02*
D03*
X810000D02*
D03*
X790000Y90000D02*
D03*
Y60000D02*
D03*
Y50000D02*
D03*
Y40000D02*
D03*
Y100000D02*
D03*
Y110000D02*
D03*
X810000Y40000D02*
D03*
X835673D02*
D03*
X810000Y50000D02*
D03*
X835673D02*
D03*
X810000Y60000D02*
D03*
X835673D02*
D03*
X810000Y70000D02*
D03*
X835673D02*
D03*
X810000Y80000D02*
D03*
X835673D02*
D03*
X810000Y100000D02*
D03*
X835673D02*
D03*
X810000Y120000D02*
D03*
X835673D02*
D03*
D67*
X479843Y103740D02*
D03*
X490827D02*
D03*
X700000Y70000D02*
D03*
X690000D02*
D03*
X710000D02*
D03*
X780000Y30000D02*
D03*
X850000Y30000D02*
D03*
X790000D02*
D03*
D68*
X570000Y140000D02*
D03*
D69*
X750994Y151321D02*
D03*
X728946D02*
D03*
D70*
X820000Y20000D02*
D03*
X800000Y60000D02*
D03*
X780000Y20000D02*
D03*
X740000Y100000D02*
D03*
X680000Y60000D02*
D03*
X560000D02*
D03*
X500000Y100000D02*
D03*
X520000Y60000D02*
D03*
X420000Y100000D02*
D03*
X380000D02*
D03*
X300000D02*
D03*
X320000Y60000D02*
D03*
X260000Y100000D02*
D03*
X220000D02*
D03*
X240000Y60000D02*
D03*
X180000Y100000D02*
D03*
X160000Y60000D02*
D03*
X100000Y100000D02*
D03*
X60000D02*
D03*
X80000Y60000D02*
D03*
X276670Y26375D02*
D03*
X478670D02*
D03*
X680637Y29975D02*
D03*
X478637D02*
D03*
X276637D02*
D03*
X94632Y121470D02*
D03*
X259911Y30075D02*
D03*
X461911D02*
D03*
X663879Y33675D02*
D03*
X461879D02*
D03*
X259879D02*
D03*
X85849Y136231D02*
D03*
X263842Y33675D02*
D03*
X465842D02*
D03*
X667810Y37275D02*
D03*
X465810D02*
D03*
X263810D02*
D03*
X90016Y140231D02*
D03*
X272777Y44541D02*
D03*
X474646Y37275D02*
D03*
X676614Y40875D02*
D03*
X474614D02*
D03*
X282000Y47500D02*
D03*
X95063Y144230D02*
D03*
X592103Y26425D02*
D03*
X390104D02*
D03*
X188136Y22825D02*
D03*
X390136D02*
D03*
X592135D02*
D03*
X784000Y95000D02*
D03*
X382349Y4875D02*
D03*
X784755Y35492D02*
D03*
X429992Y62548D02*
D03*
X233506Y15675D02*
D03*
X435506D02*
D03*
X637506D02*
D03*
X791203Y146752D02*
D03*
X619024Y22839D02*
D03*
X421343Y64389D02*
D03*
X224454Y19239D02*
D03*
X426454D02*
D03*
X628454D02*
D03*
X788924Y141931D02*
D03*
X584275Y12075D02*
D03*
X382275D02*
D03*
X180307Y8475D02*
D03*
X783500Y55000D02*
D03*
X582886Y8475D02*
D03*
X380886D02*
D03*
X178919Y4875D02*
D03*
X582919D02*
D03*
X783484Y44802D02*
D03*
X585895Y15629D02*
D03*
X383895D02*
D03*
X181927Y12029D02*
D03*
X783500Y64500D02*
D03*
X432000Y61000D02*
D03*
X421913Y17505D02*
D03*
X429500Y70000D02*
D03*
X407287Y21039D02*
D03*
X716000Y69000D02*
D03*
X25500Y148500D02*
D03*
X35937Y147439D02*
D03*
X42000Y139500D02*
D03*
X718500Y150000D02*
D03*
X748000Y130000D02*
D03*
X750000Y135000D02*
D03*
X706000Y62000D02*
D03*
X696000Y147000D02*
D03*
X715500Y104500D02*
D03*
X678000D02*
D03*
X727500Y118000D02*
D03*
X231939Y43016D02*
D03*
X273000Y42500D02*
D03*
X280000Y98500D02*
D03*
X272000Y104000D02*
D03*
X232000Y103000D02*
D03*
X216000Y99500D02*
D03*
X276000Y58000D02*
D03*
X266500Y67000D02*
D03*
X238000D02*
D03*
X216000Y58500D02*
D03*
X299000Y62000D02*
D03*
X367500Y126500D02*
D03*
X326000Y102000D02*
D03*
X341500Y48500D02*
D03*
D71*
X17649Y48740D02*
D03*
X27649D02*
D03*
X37649D02*
D03*
X47649D02*
D03*
X57649D02*
D03*
X67649D02*
D03*
X77649D02*
D03*
Y108740D02*
D03*
X67649D02*
D03*
X57649D02*
D03*
X47649D02*
D03*
X37649D02*
D03*
X27649D02*
D03*
X17649D02*
D03*
M02*
