G04*
G04 #@! TF.GenerationSoftware,Altium Limited,Altium Designer,25.8.1 (18)*
G04*
G04 Layer_Color=8388736*
%FSLAX25Y25*%
%MOIN*%
G70*
G04*
G04 #@! TF.SameCoordinates,0860631F-499F-4A24-BE49-AF4253F314F7*
G04*
G04*
G04 #@! TF.FilePolarity,Negative*
G04*
G01*
G75*
%ADD26R,0.05544X0.04747*%
%ADD27R,0.04747X0.05544*%
%ADD29R,0.06299X0.05512*%
%ADD30R,0.05512X0.06299*%
%ADD31R,0.04724X0.04724*%
%ADD33C,0.03000*%
%ADD34R,0.07000X0.05250*%
%ADD35R,0.04000X0.04000*%
%ADD36R,0.05250X0.07000*%
%ADD37R,0.06706X0.04343*%
%ADD38R,0.00900X0.02156*%
G04:AMPARAMS|DCode=39|XSize=21.56mil|YSize=9mil|CornerRadius=0mil|HoleSize=0mil|Usage=FLASHONLY|Rotation=90.000|XOffset=0mil|YOffset=0mil|HoleType=Round|Shape=Octagon|*
%AMOCTAGOND39*
4,1,8,0.00225,0.01078,-0.00225,0.01078,-0.00450,0.00853,-0.00450,-0.00853,-0.00225,-0.01078,0.00225,-0.01078,0.00450,-0.00853,0.00450,0.00853,0.00225,0.01078,0.0*
%
%ADD39OCTAGOND39*%

G04:AMPARAMS|DCode=40|XSize=21.56mil|YSize=9mil|CornerRadius=0.75mil|HoleSize=0mil|Usage=FLASHONLY|Rotation=90.000|XOffset=0mil|YOffset=0mil|HoleType=Round|Shape=RoundedRectangle|*
%AMROUNDEDRECTD40*
21,1,0.02156,0.00750,0,0,90.0*
21,1,0.02006,0.00900,0,0,90.0*
1,1,0.00150,0.00375,0.01003*
1,1,0.00150,0.00375,-0.01003*
1,1,0.00150,-0.00375,-0.01003*
1,1,0.00150,-0.00375,0.01003*
%
%ADD40ROUNDEDRECTD40*%
%ADD41R,0.02156X0.02156*%
G04:AMPARAMS|DCode=42|XSize=21.56mil|YSize=21.56mil|CornerRadius=3.89mil|HoleSize=0mil|Usage=FLASHONLY|Rotation=90.000|XOffset=0mil|YOffset=0mil|HoleType=Round|Shape=RoundedRectangle|*
%AMROUNDEDRECTD42*
21,1,0.02156,0.01378,0,0,90.0*
21,1,0.01378,0.02156,0,0,90.0*
1,1,0.00778,0.00689,0.00689*
1,1,0.00778,0.00689,-0.00689*
1,1,0.00778,-0.00689,-0.00689*
1,1,0.00778,-0.00689,0.00689*
%
%ADD42ROUNDEDRECTD42*%
G04:AMPARAMS|DCode=43|XSize=21.56mil|YSize=21.56mil|CornerRadius=0mil|HoleSize=0mil|Usage=FLASHONLY|Rotation=90.000|XOffset=0mil|YOffset=0mil|HoleType=Round|Shape=Octagon|*
%AMOCTAGOND43*
4,1,8,0.00539,0.01078,-0.00539,0.01078,-0.01078,0.00539,-0.01078,-0.00539,-0.00539,-0.01078,0.00539,-0.01078,0.01078,-0.00539,0.01078,0.00539,0.00539,0.01078,0.0*
%
%ADD43OCTAGOND43*%

%ADD44C,0.02156*%
%ADD45R,0.03162X0.06902*%
%ADD46R,0.05524X0.07887*%
G04:AMPARAMS|DCode=47|XSize=48mil|YSize=48mil|CornerRadius=14mil|HoleSize=0mil|Usage=FLASHONLY|Rotation=180.000|XOffset=0mil|YOffset=0mil|HoleType=Round|Shape=RoundedRectangle|*
%AMROUNDEDRECTD47*
21,1,0.04800,0.02000,0,0,180.0*
21,1,0.02000,0.04800,0,0,180.0*
1,1,0.02800,-0.01000,0.01000*
1,1,0.02800,0.01000,0.01000*
1,1,0.02800,0.01000,-0.01000*
1,1,0.02800,-0.01000,-0.01000*
%
%ADD47ROUNDEDRECTD47*%
%ADD48C,0.04300*%
G04:AMPARAMS|DCode=49|XSize=48mil|YSize=48mil|CornerRadius=14mil|HoleSize=0mil|Usage=FLASHONLY|Rotation=90.000|XOffset=0mil|YOffset=0mil|HoleType=Round|Shape=RoundedRectangle|*
%AMROUNDEDRECTD49*
21,1,0.04800,0.02000,0,0,90.0*
21,1,0.02000,0.04800,0,0,90.0*
1,1,0.02800,0.01000,0.01000*
1,1,0.02800,0.01000,-0.01000*
1,1,0.02800,-0.01000,-0.01000*
1,1,0.02800,-0.01000,0.01000*
%
%ADD49ROUNDEDRECTD49*%
%ADD50R,0.04343X0.06706*%
%ADD51R,0.06115X0.04737*%
%ADD52C,0.05524*%
%ADD53R,0.05524X0.05524*%
%ADD54C,0.06902*%
%ADD55R,0.06902X0.06902*%
%ADD56C,0.00800*%
%ADD57R,0.06902X0.06902*%
G36*
X835683Y150050D02*
X835691Y150048D01*
X835699Y150045D01*
X835705Y150040D01*
X835711Y150034D01*
X835716Y150028D01*
X835720Y150021D01*
X835722Y150013D01*
X835724Y150005D01*
X835724Y149997D01*
X835722Y149989D01*
X835720Y149981D01*
X835716Y149974D01*
X835711Y149968D01*
X835705Y149962D01*
X835699Y149957D01*
X835691Y149954D01*
X835683Y149952D01*
X835675Y149951D01*
X835667Y149951D01*
X835659Y149953D01*
X835652Y149955D01*
X835645Y149960D01*
X835638Y149965D01*
X835633Y149971D01*
X835629Y149978D01*
X835625Y149985D01*
X835625Y149989D01*
X835621Y150001D01*
X835625Y150013D01*
X835625Y150017D01*
X835629Y150024D01*
X835633Y150031D01*
X835638Y150037D01*
X835645Y150042D01*
X835652Y150047D01*
X835659Y150049D01*
X835667Y150051D01*
X835675Y150051D01*
X835683Y150050D01*
D02*
G37*
G36*
X810007Y150051D02*
X810015Y150049D01*
X810022Y150047D01*
X810029Y150042D01*
X810036Y150037D01*
X810041Y150031D01*
X810045Y150024D01*
X810048Y150017D01*
X810049Y150013D01*
X810052Y150001D01*
X810049Y149989D01*
X810048Y149985D01*
X810045Y149978D01*
X810041Y149971D01*
X810036Y149965D01*
X810029Y149960D01*
X810022Y149955D01*
X810015Y149953D01*
X810007Y149951D01*
X809999Y149951D01*
X809990Y149952D01*
X809983Y149954D01*
X809975Y149957D01*
X809969Y149962D01*
X809963Y149968D01*
X809958Y149974D01*
X809954Y149981D01*
X809951Y149989D01*
X809950Y149997D01*
X809950Y150005D01*
X809951Y150013D01*
X809954Y150021D01*
X809958Y150028D01*
X809963Y150034D01*
X809969Y150040D01*
X809975Y150045D01*
X809983Y150048D01*
X809990Y150050D01*
X809999Y150051D01*
X810007Y150051D01*
D02*
G37*
G36*
X829179Y150001D02*
X828430Y149252D01*
X827174D01*
Y150750D01*
X828430D01*
X829179Y150001D01*
D02*
G37*
G36*
X818499Y149252D02*
X817243D01*
X816494Y150001D01*
X817243Y150750D01*
X818499D01*
Y149252D01*
D02*
G37*
G36*
X835683Y140050D02*
X835691Y140048D01*
X835699Y140045D01*
X835705Y140040D01*
X835711Y140034D01*
X835716Y140028D01*
X835720Y140021D01*
X835722Y140013D01*
X835724Y140005D01*
X835724Y139997D01*
X835722Y139989D01*
X835720Y139981D01*
X835716Y139974D01*
X835711Y139968D01*
X835705Y139962D01*
X835699Y139957D01*
X835691Y139954D01*
X835683Y139952D01*
X835675Y139951D01*
X835667Y139951D01*
X835659Y139953D01*
X835652Y139955D01*
X835645Y139960D01*
X835638Y139965D01*
X835633Y139971D01*
X835629Y139978D01*
X835625Y139985D01*
X835625Y139989D01*
X835621Y140001D01*
X835625Y140013D01*
X835625Y140017D01*
X835629Y140024D01*
X835633Y140031D01*
X835638Y140037D01*
X835645Y140042D01*
X835652Y140047D01*
X835659Y140049D01*
X835667Y140051D01*
X835675Y140051D01*
X835683Y140050D01*
D02*
G37*
G36*
X810007Y140051D02*
X810015Y140049D01*
X810022Y140047D01*
X810029Y140042D01*
X810036Y140037D01*
X810041Y140031D01*
X810045Y140024D01*
X810048Y140017D01*
X810049Y140013D01*
X810052Y140001D01*
X810049Y139989D01*
X810048Y139985D01*
X810045Y139978D01*
X810041Y139971D01*
X810036Y139965D01*
X810029Y139960D01*
X810022Y139955D01*
X810015Y139953D01*
X810007Y139951D01*
X809999Y139951D01*
X809990Y139952D01*
X809983Y139954D01*
X809975Y139957D01*
X809969Y139962D01*
X809963Y139968D01*
X809958Y139974D01*
X809954Y139981D01*
X809951Y139989D01*
X809950Y139997D01*
X809950Y140005D01*
X809951Y140013D01*
X809954Y140021D01*
X809958Y140028D01*
X809963Y140034D01*
X809969Y140040D01*
X809975Y140045D01*
X809983Y140048D01*
X809990Y140050D01*
X809999Y140051D01*
X810007Y140051D01*
D02*
G37*
G36*
X829179Y140001D02*
X828430Y139252D01*
X827174D01*
Y140750D01*
X828430D01*
X829179Y140001D01*
D02*
G37*
G36*
X818499Y139252D02*
X817243D01*
X816494Y140001D01*
X817243Y140750D01*
X818499D01*
Y139252D01*
D02*
G37*
G36*
X835683Y130049D02*
X835691Y130047D01*
X835699Y130044D01*
X835705Y130039D01*
X835711Y130034D01*
X835716Y130027D01*
X835720Y130020D01*
X835722Y130012D01*
X835724Y130004D01*
X835724Y129996D01*
X835722Y129988D01*
X835720Y129980D01*
X835716Y129973D01*
X835711Y129966D01*
X835705Y129961D01*
X835699Y129956D01*
X835691Y129953D01*
X835683Y129951D01*
X835675Y129950D01*
X835667Y129950D01*
X835659Y129952D01*
X835652Y129955D01*
X835645Y129959D01*
X835638Y129964D01*
X835633Y129970D01*
X835629Y129977D01*
X835625Y129984D01*
X835625Y129988D01*
X835621Y130000D01*
X835625Y130012D01*
X835625Y130016D01*
X835629Y130023D01*
X835633Y130030D01*
X835638Y130036D01*
X835645Y130041D01*
X835652Y130045D01*
X835659Y130048D01*
X835667Y130050D01*
X835675Y130050D01*
X835683Y130049D01*
D02*
G37*
G36*
X810007Y130050D02*
X810015Y130048D01*
X810022Y130045D01*
X810029Y130041D01*
X810036Y130036D01*
X810041Y130030D01*
X810045Y130023D01*
X810048Y130016D01*
X810049Y130012D01*
X810052Y130000D01*
X810049Y129988D01*
X810048Y129984D01*
X810045Y129977D01*
X810041Y129970D01*
X810036Y129964D01*
X810029Y129959D01*
X810022Y129955D01*
X810015Y129952D01*
X810007Y129950D01*
X809999Y129950D01*
X809990Y129950D01*
X809983Y129953D01*
X809975Y129956D01*
X809969Y129961D01*
X809963Y129966D01*
X809958Y129973D01*
X809954Y129980D01*
X809951Y129988D01*
X809950Y129996D01*
X809950Y130004D01*
X809951Y130012D01*
X809954Y130020D01*
X809958Y130027D01*
X809963Y130033D01*
X809969Y130039D01*
X809975Y130044D01*
X809983Y130047D01*
X809990Y130049D01*
X809999Y130050D01*
X810007Y130050D01*
D02*
G37*
G36*
X829179Y130000D02*
X828430Y129251D01*
X827174D01*
Y130749D01*
X828430D01*
X829179Y130000D01*
D02*
G37*
G36*
X818499Y129251D02*
X817243D01*
X816494Y130000D01*
X817243Y130749D01*
X818499D01*
Y129251D01*
D02*
G37*
G36*
X560012Y125722D02*
X560020Y125719D01*
X560027Y125716D01*
X560033Y125711D01*
X560039Y125705D01*
X560044Y125698D01*
X560047Y125691D01*
X560049Y125683D01*
X560050Y125675D01*
X560050Y125667D01*
X560048Y125659D01*
X560045Y125651D01*
X560041Y125644D01*
X560036Y125638D01*
X560030Y125633D01*
X560023Y125628D01*
X560016Y125625D01*
X560012Y125624D01*
X560000Y125621D01*
X559988Y125624D01*
X559984Y125625D01*
X559977Y125628D01*
X559970Y125633D01*
X559964Y125638D01*
X559959Y125644D01*
X559955Y125651D01*
X559952Y125659D01*
X559950Y125667D01*
X559950Y125675D01*
X559951Y125683D01*
X559953Y125691D01*
X559956Y125698D01*
X559961Y125705D01*
X559967Y125711D01*
X559973Y125716D01*
X559980Y125719D01*
X559988Y125722D01*
X559996Y125723D01*
X560004Y125723D01*
X560012Y125722D01*
D02*
G37*
G36*
X550012D02*
X550020Y125719D01*
X550027Y125716D01*
X550033Y125711D01*
X550039Y125705D01*
X550044Y125698D01*
X550047Y125691D01*
X550049Y125683D01*
X550050Y125675D01*
X550050Y125667D01*
X550048Y125659D01*
X550045Y125651D01*
X550041Y125644D01*
X550036Y125638D01*
X550030Y125633D01*
X550023Y125628D01*
X550016Y125625D01*
X550012Y125624D01*
X550000Y125621D01*
X549988Y125624D01*
X549984Y125625D01*
X549977Y125628D01*
X549970Y125633D01*
X549964Y125638D01*
X549959Y125644D01*
X549955Y125651D01*
X549952Y125659D01*
X549950Y125667D01*
X549950Y125675D01*
X549951Y125683D01*
X549953Y125691D01*
X549956Y125698D01*
X549961Y125705D01*
X549966Y125711D01*
X549973Y125716D01*
X549980Y125719D01*
X549988Y125722D01*
X549996Y125723D01*
X550004Y125723D01*
X550012Y125722D01*
D02*
G37*
G36*
X540012D02*
X540020Y125719D01*
X540027Y125716D01*
X540033Y125711D01*
X540039Y125705D01*
X540044Y125698D01*
X540047Y125691D01*
X540049Y125683D01*
X540050Y125675D01*
X540050Y125667D01*
X540048Y125659D01*
X540045Y125651D01*
X540041Y125644D01*
X540036Y125638D01*
X540030Y125633D01*
X540023Y125628D01*
X540016Y125625D01*
X540012Y125624D01*
X540000Y125621D01*
X539988Y125624D01*
X539984Y125625D01*
X539977Y125628D01*
X539970Y125633D01*
X539964Y125638D01*
X539959Y125644D01*
X539955Y125651D01*
X539952Y125659D01*
X539950Y125667D01*
X539950Y125675D01*
X539951Y125683D01*
X539953Y125691D01*
X539956Y125698D01*
X539961Y125705D01*
X539966Y125711D01*
X539973Y125716D01*
X539980Y125719D01*
X539988Y125722D01*
X539996Y125723D01*
X540004Y125723D01*
X540012Y125722D01*
D02*
G37*
G36*
X530012D02*
X530020Y125719D01*
X530027Y125716D01*
X530033Y125711D01*
X530039Y125705D01*
X530044Y125698D01*
X530047Y125691D01*
X530049Y125683D01*
X530050Y125675D01*
X530050Y125667D01*
X530048Y125659D01*
X530046Y125651D01*
X530041Y125644D01*
X530036Y125638D01*
X530030Y125633D01*
X530023Y125628D01*
X530016Y125625D01*
X530012Y125624D01*
X530000Y125621D01*
X529988Y125624D01*
X529984Y125625D01*
X529977Y125628D01*
X529970Y125633D01*
X529964Y125638D01*
X529959Y125644D01*
X529954Y125651D01*
X529952Y125659D01*
X529950Y125667D01*
X529950Y125675D01*
X529951Y125683D01*
X529953Y125691D01*
X529956Y125698D01*
X529961Y125705D01*
X529966Y125711D01*
X529973Y125716D01*
X529980Y125719D01*
X529988Y125722D01*
X529996Y125723D01*
X530004Y125723D01*
X530012Y125722D01*
D02*
G37*
G36*
X520012D02*
X520020Y125719D01*
X520027Y125716D01*
X520033Y125711D01*
X520039Y125705D01*
X520044Y125698D01*
X520047Y125691D01*
X520049Y125683D01*
X520050Y125675D01*
X520050Y125667D01*
X520048Y125659D01*
X520046Y125651D01*
X520041Y125644D01*
X520036Y125638D01*
X520030Y125633D01*
X520023Y125628D01*
X520016Y125625D01*
X520012Y125624D01*
X520000Y125621D01*
X519988Y125624D01*
X519984Y125625D01*
X519977Y125628D01*
X519970Y125633D01*
X519964Y125638D01*
X519959Y125644D01*
X519954Y125651D01*
X519952Y125659D01*
X519950Y125667D01*
X519950Y125675D01*
X519951Y125683D01*
X519953Y125691D01*
X519956Y125698D01*
X519961Y125705D01*
X519967Y125711D01*
X519973Y125716D01*
X519980Y125719D01*
X519988Y125722D01*
X519996Y125723D01*
X520004Y125723D01*
X520012Y125722D01*
D02*
G37*
G36*
X510012D02*
X510020Y125719D01*
X510027Y125716D01*
X510033Y125711D01*
X510039Y125705D01*
X510044Y125698D01*
X510047Y125691D01*
X510049Y125683D01*
X510050Y125675D01*
X510050Y125667D01*
X510048Y125659D01*
X510045Y125651D01*
X510041Y125644D01*
X510036Y125638D01*
X510030Y125633D01*
X510023Y125628D01*
X510016Y125625D01*
X510012Y125624D01*
X510000Y125621D01*
X509988Y125624D01*
X509984Y125625D01*
X509977Y125628D01*
X509970Y125633D01*
X509964Y125638D01*
X509959Y125644D01*
X509955Y125651D01*
X509952Y125659D01*
X509950Y125667D01*
X509950Y125675D01*
X509951Y125683D01*
X509953Y125691D01*
X509956Y125698D01*
X509961Y125705D01*
X509967Y125711D01*
X509973Y125716D01*
X509980Y125719D01*
X509988Y125722D01*
X509996Y125723D01*
X510004Y125723D01*
X510012Y125722D01*
D02*
G37*
G36*
X670013Y125722D02*
X670020Y125719D01*
X670027Y125716D01*
X670034Y125711D01*
X670040Y125705D01*
X670044Y125698D01*
X670048Y125691D01*
X670050Y125683D01*
X670051Y125675D01*
X670050Y125667D01*
X670049Y125659D01*
X670046Y125651D01*
X670042Y125644D01*
X670037Y125638D01*
X670030Y125633D01*
X670024Y125628D01*
X670016Y125625D01*
X670012Y125624D01*
X670000Y125621D01*
X669989Y125624D01*
X669985Y125625D01*
X669977Y125628D01*
X669970Y125633D01*
X669964Y125638D01*
X669959Y125644D01*
X669955Y125651D01*
X669952Y125659D01*
X669950Y125667D01*
X669950Y125675D01*
X669951Y125683D01*
X669953Y125691D01*
X669957Y125698D01*
X669961Y125705D01*
X669967Y125711D01*
X669973Y125716D01*
X669981Y125719D01*
X669988Y125722D01*
X669996Y125723D01*
X670004Y125723D01*
X670013Y125722D01*
D02*
G37*
G36*
X660012D02*
X660020Y125719D01*
X660027Y125716D01*
X660034Y125711D01*
X660040Y125705D01*
X660044Y125698D01*
X660048Y125691D01*
X660050Y125683D01*
X660051Y125675D01*
X660050Y125667D01*
X660049Y125659D01*
X660046Y125651D01*
X660042Y125644D01*
X660037Y125638D01*
X660031Y125633D01*
X660024Y125628D01*
X660016Y125625D01*
X660012Y125624D01*
X660000Y125621D01*
X659989Y125624D01*
X659985Y125625D01*
X659977Y125628D01*
X659970Y125633D01*
X659964Y125638D01*
X659959Y125644D01*
X659955Y125651D01*
X659952Y125659D01*
X659950Y125667D01*
X659950Y125675D01*
X659951Y125683D01*
X659953Y125691D01*
X659957Y125698D01*
X659961Y125705D01*
X659967Y125711D01*
X659973Y125716D01*
X659981Y125719D01*
X659988Y125722D01*
X659996Y125723D01*
X660004Y125723D01*
X660012Y125722D01*
D02*
G37*
G36*
X650012D02*
X650020Y125719D01*
X650027Y125716D01*
X650034Y125711D01*
X650039Y125705D01*
X650044Y125698D01*
X650048Y125691D01*
X650050Y125683D01*
X650051Y125675D01*
X650050Y125667D01*
X650049Y125659D01*
X650046Y125651D01*
X650042Y125644D01*
X650037Y125638D01*
X650031Y125633D01*
X650024Y125628D01*
X650016Y125625D01*
X650012Y125624D01*
X650000Y125621D01*
X649989Y125624D01*
X649985Y125625D01*
X649977Y125628D01*
X649970Y125633D01*
X649964Y125638D01*
X649959Y125644D01*
X649955Y125651D01*
X649952Y125659D01*
X649950Y125667D01*
X649950Y125675D01*
X649951Y125683D01*
X649953Y125691D01*
X649957Y125698D01*
X649961Y125705D01*
X649967Y125711D01*
X649973Y125716D01*
X649981Y125719D01*
X649988Y125722D01*
X649996Y125723D01*
X650004Y125723D01*
X650012Y125722D01*
D02*
G37*
G36*
X640013D02*
X640020Y125719D01*
X640027Y125716D01*
X640034Y125711D01*
X640039Y125705D01*
X640044Y125698D01*
X640048Y125691D01*
X640050Y125683D01*
X640051Y125675D01*
X640050Y125667D01*
X640049Y125659D01*
X640046Y125651D01*
X640042Y125644D01*
X640037Y125638D01*
X640030Y125633D01*
X640024Y125628D01*
X640016Y125625D01*
X640012Y125624D01*
X640000Y125621D01*
X639989Y125624D01*
X639985Y125625D01*
X639977Y125628D01*
X639970Y125633D01*
X639964Y125638D01*
X639959Y125644D01*
X639955Y125651D01*
X639952Y125659D01*
X639950Y125667D01*
X639950Y125675D01*
X639951Y125683D01*
X639953Y125691D01*
X639957Y125698D01*
X639961Y125705D01*
X639967Y125711D01*
X639973Y125716D01*
X639981Y125719D01*
X639988Y125722D01*
X639996Y125723D01*
X640004Y125723D01*
X640013Y125722D01*
D02*
G37*
G36*
X630013D02*
X630020Y125719D01*
X630027Y125716D01*
X630034Y125711D01*
X630040Y125705D01*
X630044Y125698D01*
X630048Y125691D01*
X630050Y125683D01*
X630051Y125675D01*
X630050Y125667D01*
X630049Y125659D01*
X630046Y125651D01*
X630042Y125644D01*
X630037Y125638D01*
X630030Y125633D01*
X630024Y125628D01*
X630016Y125625D01*
X630012Y125624D01*
X630000Y125621D01*
X629989Y125624D01*
X629985Y125625D01*
X629977Y125628D01*
X629970Y125633D01*
X629964Y125638D01*
X629959Y125644D01*
X629955Y125651D01*
X629952Y125659D01*
X629950Y125667D01*
X629950Y125675D01*
X629951Y125683D01*
X629953Y125691D01*
X629957Y125698D01*
X629961Y125705D01*
X629967Y125711D01*
X629973Y125716D01*
X629981Y125719D01*
X629988Y125722D01*
X629996Y125723D01*
X630004Y125723D01*
X630013Y125722D01*
D02*
G37*
G36*
X620013D02*
X620020Y125719D01*
X620027Y125716D01*
X620034Y125711D01*
X620040Y125705D01*
X620044Y125698D01*
X620048Y125691D01*
X620050Y125683D01*
X620051Y125675D01*
X620050Y125667D01*
X620049Y125659D01*
X620046Y125651D01*
X620042Y125644D01*
X620037Y125638D01*
X620030Y125633D01*
X620024Y125628D01*
X620016Y125625D01*
X620012Y125624D01*
X620000Y125621D01*
X619989Y125624D01*
X619985Y125625D01*
X619977Y125628D01*
X619970Y125633D01*
X619964Y125638D01*
X619959Y125644D01*
X619955Y125651D01*
X619952Y125659D01*
X619950Y125667D01*
X619950Y125675D01*
X619951Y125683D01*
X619953Y125691D01*
X619957Y125698D01*
X619961Y125705D01*
X619967Y125711D01*
X619973Y125716D01*
X619981Y125719D01*
X619988Y125722D01*
X619996Y125723D01*
X620004Y125723D01*
X620013Y125722D01*
D02*
G37*
G36*
X610012D02*
X610020Y125719D01*
X610027Y125716D01*
X610034Y125711D01*
X610040Y125705D01*
X610044Y125698D01*
X610048Y125691D01*
X610050Y125683D01*
X610051Y125675D01*
X610050Y125667D01*
X610049Y125659D01*
X610046Y125651D01*
X610042Y125644D01*
X610037Y125638D01*
X610031Y125633D01*
X610024Y125628D01*
X610016Y125625D01*
X610012Y125624D01*
X610000Y125621D01*
X609989Y125624D01*
X609985Y125625D01*
X609977Y125628D01*
X609970Y125633D01*
X609964Y125638D01*
X609959Y125644D01*
X609955Y125651D01*
X609952Y125659D01*
X609950Y125667D01*
X609950Y125675D01*
X609951Y125683D01*
X609953Y125691D01*
X609957Y125698D01*
X609961Y125705D01*
X609967Y125711D01*
X609973Y125716D01*
X609981Y125719D01*
X609988Y125722D01*
X609996Y125723D01*
X610004Y125723D01*
X610012Y125722D01*
D02*
G37*
G36*
X600012D02*
X600020Y125719D01*
X600027Y125716D01*
X600034Y125711D01*
X600039Y125705D01*
X600044Y125698D01*
X600048Y125691D01*
X600050Y125683D01*
X600051Y125675D01*
X600050Y125667D01*
X600049Y125659D01*
X600046Y125651D01*
X600042Y125644D01*
X600037Y125638D01*
X600031Y125633D01*
X600024Y125628D01*
X600016Y125625D01*
X600012Y125624D01*
X600000Y125621D01*
X599989Y125624D01*
X599985Y125625D01*
X599977Y125628D01*
X599970Y125633D01*
X599964Y125638D01*
X599959Y125644D01*
X599955Y125651D01*
X599952Y125659D01*
X599950Y125667D01*
X599950Y125675D01*
X599951Y125683D01*
X599953Y125691D01*
X599957Y125698D01*
X599961Y125705D01*
X599967Y125711D01*
X599973Y125716D01*
X599981Y125719D01*
X599988Y125722D01*
X599996Y125723D01*
X600004Y125723D01*
X600012Y125722D01*
D02*
G37*
G36*
X590013D02*
X590020Y125719D01*
X590027Y125716D01*
X590034Y125711D01*
X590039Y125705D01*
X590044Y125698D01*
X590048Y125691D01*
X590050Y125683D01*
X590051Y125675D01*
X590050Y125667D01*
X590049Y125659D01*
X590046Y125651D01*
X590042Y125644D01*
X590037Y125638D01*
X590030Y125633D01*
X590024Y125628D01*
X590016Y125625D01*
X590012Y125624D01*
X590000Y125621D01*
X589989Y125624D01*
X589985Y125625D01*
X589977Y125628D01*
X589970Y125633D01*
X589964Y125638D01*
X589959Y125644D01*
X589955Y125651D01*
X589952Y125659D01*
X589950Y125667D01*
X589950Y125675D01*
X589951Y125683D01*
X589953Y125691D01*
X589957Y125698D01*
X589961Y125705D01*
X589967Y125711D01*
X589973Y125716D01*
X589981Y125719D01*
X589988Y125722D01*
X589996Y125723D01*
X590004Y125723D01*
X590013Y125722D01*
D02*
G37*
G36*
X580013D02*
X580020Y125719D01*
X580027Y125716D01*
X580034Y125711D01*
X580040Y125705D01*
X580044Y125698D01*
X580048Y125691D01*
X580050Y125683D01*
X580051Y125675D01*
X580050Y125667D01*
X580049Y125659D01*
X580046Y125651D01*
X580042Y125644D01*
X580037Y125638D01*
X580030Y125633D01*
X580024Y125628D01*
X580016Y125625D01*
X580012Y125624D01*
X580000Y125621D01*
X579989Y125624D01*
X579985Y125625D01*
X579977Y125628D01*
X579970Y125633D01*
X579964Y125638D01*
X579959Y125644D01*
X579955Y125651D01*
X579952Y125659D01*
X579950Y125667D01*
X579950Y125675D01*
X579951Y125683D01*
X579953Y125691D01*
X579957Y125698D01*
X579961Y125705D01*
X579967Y125711D01*
X579973Y125716D01*
X579981Y125719D01*
X579988Y125722D01*
X579996Y125723D01*
X580004Y125723D01*
X580013Y125722D01*
D02*
G37*
G36*
X570013D02*
X570020Y125719D01*
X570027Y125716D01*
X570034Y125711D01*
X570040Y125705D01*
X570044Y125698D01*
X570048Y125691D01*
X570050Y125683D01*
X570051Y125675D01*
X570050Y125667D01*
X570049Y125659D01*
X570046Y125651D01*
X570042Y125644D01*
X570037Y125638D01*
X570030Y125633D01*
X570024Y125628D01*
X570016Y125625D01*
X570012Y125624D01*
X570000Y125621D01*
X569989Y125624D01*
X569985Y125625D01*
X569977Y125628D01*
X569970Y125633D01*
X569964Y125638D01*
X569959Y125644D01*
X569955Y125651D01*
X569952Y125659D01*
X569950Y125667D01*
X569950Y125675D01*
X569951Y125683D01*
X569953Y125691D01*
X569957Y125698D01*
X569961Y125705D01*
X569967Y125711D01*
X569973Y125716D01*
X569981Y125719D01*
X569988Y125722D01*
X569996Y125723D01*
X570004Y125723D01*
X570013Y125722D01*
D02*
G37*
G36*
X835683Y120049D02*
X835691Y120047D01*
X835699Y120044D01*
X835705Y120039D01*
X835711Y120034D01*
X835716Y120027D01*
X835720Y120020D01*
X835722Y120012D01*
X835724Y120004D01*
X835724Y119996D01*
X835722Y119988D01*
X835720Y119980D01*
X835716Y119973D01*
X835711Y119966D01*
X835705Y119961D01*
X835699Y119956D01*
X835691Y119953D01*
X835683Y119951D01*
X835675Y119950D01*
X835667Y119950D01*
X835659Y119952D01*
X835652Y119955D01*
X835645Y119959D01*
X835638Y119964D01*
X835633Y119970D01*
X835629Y119977D01*
X835625Y119984D01*
X835625Y119988D01*
X835621Y120000D01*
X835625Y120012D01*
X835625Y120016D01*
X835629Y120023D01*
X835633Y120030D01*
X835638Y120036D01*
X835645Y120041D01*
X835652Y120045D01*
X835659Y120048D01*
X835667Y120050D01*
X835675Y120050D01*
X835683Y120049D01*
D02*
G37*
G36*
X810007Y120050D02*
X810015Y120048D01*
X810022Y120045D01*
X810029Y120041D01*
X810036Y120036D01*
X810041Y120030D01*
X810045Y120023D01*
X810048Y120016D01*
X810049Y120012D01*
X810052Y120000D01*
X810049Y119988D01*
X810048Y119984D01*
X810045Y119977D01*
X810041Y119970D01*
X810036Y119964D01*
X810029Y119959D01*
X810022Y119955D01*
X810015Y119952D01*
X810007Y119950D01*
X809999Y119950D01*
X809990Y119950D01*
X809983Y119953D01*
X809975Y119956D01*
X809969Y119961D01*
X809963Y119966D01*
X809958Y119973D01*
X809954Y119980D01*
X809951Y119988D01*
X809950Y119996D01*
X809950Y120004D01*
X809951Y120012D01*
X809954Y120020D01*
X809958Y120027D01*
X809963Y120033D01*
X809969Y120039D01*
X809975Y120044D01*
X809983Y120047D01*
X809990Y120049D01*
X809999Y120050D01*
X810007Y120050D01*
D02*
G37*
G36*
X829179Y120000D02*
X828430Y119251D01*
X827174D01*
Y120749D01*
X828430D01*
X829179Y120000D01*
D02*
G37*
G36*
X818499Y119251D02*
X817243D01*
X816494Y120000D01*
X817243Y120749D01*
X818499D01*
Y119251D01*
D02*
G37*
G36*
X560749Y118430D02*
Y117174D01*
X559251D01*
Y118430D01*
X560000Y119179D01*
X560749Y118430D01*
D02*
G37*
G36*
X550749D02*
Y117174D01*
X549251D01*
Y118430D01*
X550000Y119179D01*
X550749Y118430D01*
D02*
G37*
G36*
X540749D02*
Y117174D01*
X539251D01*
Y118430D01*
X540000Y119179D01*
X540749Y118430D01*
D02*
G37*
G36*
X530749D02*
Y117174D01*
X529251D01*
Y118430D01*
X530000Y119179D01*
X530749Y118430D01*
D02*
G37*
G36*
X520749D02*
Y117174D01*
X519251D01*
Y118430D01*
X520000Y119179D01*
X520749Y118430D01*
D02*
G37*
G36*
X510749D02*
Y117174D01*
X509251D01*
Y118430D01*
X510000Y119179D01*
X510749Y118430D01*
D02*
G37*
G36*
X670750Y118430D02*
Y117174D01*
X669251D01*
Y118430D01*
X670000Y119179D01*
X670750Y118430D01*
D02*
G37*
G36*
X660749D02*
Y117174D01*
X659251D01*
Y118430D01*
X660000Y119179D01*
X660749Y118430D01*
D02*
G37*
G36*
X650749D02*
Y117174D01*
X649251D01*
Y118430D01*
X650000Y119179D01*
X650749Y118430D01*
D02*
G37*
G36*
X640750D02*
Y117174D01*
X639251D01*
Y118430D01*
X640000Y119179D01*
X640750Y118430D01*
D02*
G37*
G36*
X630750D02*
Y117174D01*
X629251D01*
Y118430D01*
X630000Y119179D01*
X630750Y118430D01*
D02*
G37*
G36*
X620750D02*
Y117174D01*
X619251D01*
Y118430D01*
X620000Y119179D01*
X620750Y118430D01*
D02*
G37*
G36*
X610749D02*
Y117174D01*
X609251D01*
Y118430D01*
X610000Y119179D01*
X610749Y118430D01*
D02*
G37*
G36*
X600749D02*
Y117174D01*
X599251D01*
Y118430D01*
X600000Y119179D01*
X600749Y118430D01*
D02*
G37*
G36*
X590750D02*
Y117174D01*
X589251D01*
Y118430D01*
X590000Y119179D01*
X590750Y118430D01*
D02*
G37*
G36*
X580750D02*
Y117174D01*
X579251D01*
Y118430D01*
X580000Y119179D01*
X580750Y118430D01*
D02*
G37*
G36*
X570750D02*
Y117174D01*
X569251D01*
Y118430D01*
X570000Y119179D01*
X570750Y118430D01*
D02*
G37*
G36*
X835683Y110049D02*
X835691Y110047D01*
X835699Y110044D01*
X835705Y110039D01*
X835711Y110034D01*
X835716Y110027D01*
X835720Y110020D01*
X835722Y110012D01*
X835724Y110004D01*
X835724Y109996D01*
X835722Y109988D01*
X835720Y109980D01*
X835716Y109973D01*
X835711Y109967D01*
X835705Y109961D01*
X835699Y109956D01*
X835691Y109953D01*
X835683Y109951D01*
X835675Y109950D01*
X835667Y109950D01*
X835659Y109952D01*
X835652Y109955D01*
X835645Y109959D01*
X835638Y109964D01*
X835633Y109970D01*
X835629Y109977D01*
X835625Y109984D01*
X835625Y109988D01*
X835621Y110000D01*
X835625Y110012D01*
X835625Y110016D01*
X835629Y110023D01*
X835633Y110030D01*
X835638Y110036D01*
X835645Y110041D01*
X835652Y110046D01*
X835659Y110048D01*
X835667Y110050D01*
X835675Y110050D01*
X835683Y110049D01*
D02*
G37*
G36*
X810007Y110050D02*
X810015Y110048D01*
X810022Y110046D01*
X810029Y110041D01*
X810036Y110036D01*
X810041Y110030D01*
X810045Y110023D01*
X810048Y110016D01*
X810049Y110012D01*
X810052Y110000D01*
X810049Y109988D01*
X810048Y109984D01*
X810045Y109977D01*
X810041Y109970D01*
X810036Y109964D01*
X810029Y109959D01*
X810022Y109955D01*
X810015Y109952D01*
X810007Y109950D01*
X809999Y109950D01*
X809990Y109950D01*
X809983Y109953D01*
X809975Y109956D01*
X809969Y109961D01*
X809963Y109967D01*
X809958Y109973D01*
X809954Y109980D01*
X809951Y109988D01*
X809950Y109996D01*
X809950Y110004D01*
X809951Y110012D01*
X809954Y110020D01*
X809958Y110027D01*
X809963Y110033D01*
X809969Y110039D01*
X809975Y110044D01*
X809983Y110047D01*
X809990Y110049D01*
X809999Y110050D01*
X810007Y110050D01*
D02*
G37*
G36*
X829179Y110000D02*
X828430Y109251D01*
X827174D01*
Y110749D01*
X828430D01*
X829179Y110000D01*
D02*
G37*
G36*
X818499Y109251D02*
X817243D01*
X816494Y110000D01*
X817243Y110749D01*
X818499D01*
Y109251D01*
D02*
G37*
G36*
X560749Y107243D02*
X560000Y106494D01*
X559251Y107243D01*
Y108499D01*
X560749D01*
Y107243D01*
D02*
G37*
G36*
X550749D02*
X550000Y106494D01*
X549251Y107243D01*
Y108499D01*
X550749D01*
Y107243D01*
D02*
G37*
G36*
X540749D02*
X540000Y106494D01*
X539251Y107243D01*
Y108499D01*
X540749D01*
Y107243D01*
D02*
G37*
G36*
X530749D02*
X530000Y106494D01*
X529251Y107243D01*
Y108499D01*
X530749D01*
Y107243D01*
D02*
G37*
G36*
X520749D02*
X520000Y106494D01*
X519251Y107243D01*
Y108499D01*
X520749D01*
Y107243D01*
D02*
G37*
G36*
X510749D02*
X510000Y106494D01*
X509251Y107243D01*
Y108499D01*
X510749D01*
Y107243D01*
D02*
G37*
G36*
X670750Y107243D02*
X670000Y106494D01*
X669251Y107243D01*
Y108499D01*
X670750D01*
Y107243D01*
D02*
G37*
G36*
X660749D02*
X660000Y106494D01*
X659251Y107243D01*
Y108499D01*
X660749D01*
Y107243D01*
D02*
G37*
G36*
X650749D02*
X650000Y106494D01*
X649251Y107243D01*
Y108499D01*
X650749D01*
Y107243D01*
D02*
G37*
G36*
X640750D02*
X640000Y106494D01*
X639251Y107243D01*
Y108499D01*
X640750D01*
Y107243D01*
D02*
G37*
G36*
X630750D02*
X630000Y106494D01*
X629251Y107243D01*
Y108499D01*
X630750D01*
Y107243D01*
D02*
G37*
G36*
X620750D02*
X620000Y106494D01*
X619251Y107243D01*
Y108499D01*
X620750D01*
Y107243D01*
D02*
G37*
G36*
X610749D02*
X610000Y106494D01*
X609251Y107243D01*
Y108499D01*
X610749D01*
Y107243D01*
D02*
G37*
G36*
X600749D02*
X600000Y106494D01*
X599251Y107243D01*
Y108499D01*
X600749D01*
Y107243D01*
D02*
G37*
G36*
X590750D02*
X590000Y106494D01*
X589251Y107243D01*
Y108499D01*
X590750D01*
Y107243D01*
D02*
G37*
G36*
X580750D02*
X580000Y106494D01*
X579251Y107243D01*
Y108499D01*
X580750D01*
Y107243D01*
D02*
G37*
G36*
X570750D02*
X570000Y106494D01*
X569251Y107243D01*
Y108499D01*
X570750D01*
Y107243D01*
D02*
G37*
G36*
X80851Y122523D02*
X80902Y122513D01*
X80952Y122496D01*
X80999Y122473D01*
X81042Y122444D01*
X81082Y122409D01*
X81116Y122370D01*
X81146Y122327D01*
X81169Y122280D01*
X81186Y122230D01*
X81196Y122178D01*
X81199Y122126D01*
Y105591D01*
X81196Y105538D01*
X81186Y105487D01*
X81169Y105437D01*
X81146Y105390D01*
X81116Y105347D01*
X81082Y105307D01*
X81042Y105273D01*
X80999Y105244D01*
X80952Y105220D01*
X80902Y105203D01*
X80851Y105193D01*
X80798Y105190D01*
X74499D01*
X74447Y105193D01*
X74396Y105203D01*
X74346Y105220D01*
X74299Y105244D01*
X74255Y105273D01*
X74216Y105307D01*
X74181Y105347D01*
X74152Y105390D01*
X74129Y105437D01*
X74112Y105487D01*
X74102Y105538D01*
X74098Y105591D01*
Y122126D01*
X74102Y122178D01*
X74112Y122230D01*
X74129Y122280D01*
X74152Y122327D01*
X74181Y122370D01*
X74216Y122409D01*
X74255Y122444D01*
X74299Y122473D01*
X74346Y122496D01*
X74396Y122513D01*
X74447Y122523D01*
X74499Y122527D01*
X80798D01*
X80851Y122523D01*
D02*
G37*
G36*
X70851D02*
X70902Y122513D01*
X70952Y122496D01*
X70999Y122473D01*
X71042Y122444D01*
X71082Y122409D01*
X71116Y122370D01*
X71145Y122327D01*
X71169Y122280D01*
X71185Y122230D01*
X71196Y122178D01*
X71199Y122126D01*
Y105591D01*
X71196Y105538D01*
X71185Y105487D01*
X71169Y105437D01*
X71145Y105390D01*
X71116Y105347D01*
X71082Y105307D01*
X71042Y105273D01*
X70999Y105244D01*
X70952Y105220D01*
X70902Y105203D01*
X70851Y105193D01*
X70798Y105190D01*
X64499D01*
X64447Y105193D01*
X64396Y105203D01*
X64346Y105220D01*
X64299Y105244D01*
X64255Y105273D01*
X64216Y105307D01*
X64181Y105347D01*
X64152Y105390D01*
X64129Y105437D01*
X64112Y105487D01*
X64102Y105538D01*
X64099Y105591D01*
Y122126D01*
X64102Y122178D01*
X64112Y122230D01*
X64129Y122280D01*
X64152Y122327D01*
X64181Y122370D01*
X64216Y122409D01*
X64255Y122444D01*
X64299Y122473D01*
X64346Y122496D01*
X64396Y122513D01*
X64447Y122523D01*
X64499Y122527D01*
X70798D01*
X70851Y122523D01*
D02*
G37*
G36*
X60851D02*
X60902Y122513D01*
X60952Y122496D01*
X60999Y122473D01*
X61042Y122444D01*
X61082Y122409D01*
X61116Y122370D01*
X61146Y122327D01*
X61169Y122280D01*
X61185Y122230D01*
X61196Y122178D01*
X61199Y122126D01*
Y105591D01*
X61196Y105538D01*
X61185Y105487D01*
X61169Y105437D01*
X61146Y105390D01*
X61116Y105347D01*
X61082Y105307D01*
X61042Y105273D01*
X60999Y105244D01*
X60952Y105220D01*
X60902Y105203D01*
X60851Y105193D01*
X60798Y105190D01*
X54499D01*
X54447Y105193D01*
X54396Y105203D01*
X54346Y105220D01*
X54299Y105244D01*
X54255Y105273D01*
X54216Y105307D01*
X54181Y105347D01*
X54152Y105390D01*
X54129Y105437D01*
X54112Y105487D01*
X54102Y105538D01*
X54098Y105591D01*
Y122126D01*
X54102Y122178D01*
X54112Y122230D01*
X54129Y122280D01*
X54152Y122327D01*
X54181Y122370D01*
X54216Y122409D01*
X54255Y122444D01*
X54299Y122473D01*
X54346Y122496D01*
X54396Y122513D01*
X54447Y122523D01*
X54499Y122527D01*
X60798D01*
X60851Y122523D01*
D02*
G37*
G36*
X50851D02*
X50902Y122513D01*
X50952Y122496D01*
X50999Y122473D01*
X51042Y122444D01*
X51082Y122409D01*
X51116Y122370D01*
X51145Y122327D01*
X51169Y122280D01*
X51186Y122230D01*
X51196Y122178D01*
X51199Y122126D01*
Y105591D01*
X51196Y105538D01*
X51186Y105487D01*
X51169Y105437D01*
X51145Y105390D01*
X51116Y105347D01*
X51082Y105307D01*
X51042Y105273D01*
X50999Y105244D01*
X50952Y105220D01*
X50902Y105203D01*
X50851Y105193D01*
X50798Y105190D01*
X44499D01*
X44447Y105193D01*
X44396Y105203D01*
X44346Y105220D01*
X44299Y105244D01*
X44255Y105273D01*
X44216Y105307D01*
X44181Y105347D01*
X44152Y105390D01*
X44129Y105437D01*
X44112Y105487D01*
X44102Y105538D01*
X44098Y105591D01*
Y122126D01*
X44102Y122178D01*
X44112Y122230D01*
X44129Y122280D01*
X44152Y122327D01*
X44181Y122370D01*
X44216Y122409D01*
X44255Y122444D01*
X44299Y122473D01*
X44346Y122496D01*
X44396Y122513D01*
X44447Y122523D01*
X44499Y122527D01*
X50798D01*
X50851Y122523D01*
D02*
G37*
G36*
X40851D02*
X40902Y122513D01*
X40952Y122496D01*
X40999Y122473D01*
X41042Y122444D01*
X41082Y122409D01*
X41116Y122370D01*
X41146Y122327D01*
X41169Y122280D01*
X41186Y122230D01*
X41196Y122178D01*
X41199Y122126D01*
Y105591D01*
X41196Y105538D01*
X41186Y105487D01*
X41169Y105437D01*
X41146Y105390D01*
X41116Y105347D01*
X41082Y105307D01*
X41042Y105273D01*
X40999Y105244D01*
X40952Y105220D01*
X40902Y105203D01*
X40851Y105193D01*
X40798Y105190D01*
X34499D01*
X34447Y105193D01*
X34396Y105203D01*
X34346Y105220D01*
X34299Y105244D01*
X34255Y105273D01*
X34216Y105307D01*
X34181Y105347D01*
X34152Y105390D01*
X34129Y105437D01*
X34112Y105487D01*
X34102Y105538D01*
X34099Y105591D01*
Y122126D01*
X34102Y122178D01*
X34112Y122230D01*
X34129Y122280D01*
X34152Y122327D01*
X34181Y122370D01*
X34216Y122409D01*
X34255Y122444D01*
X34299Y122473D01*
X34346Y122496D01*
X34396Y122513D01*
X34447Y122523D01*
X34499Y122527D01*
X40798D01*
X40851Y122523D01*
D02*
G37*
G36*
X30851D02*
X30902Y122513D01*
X30952Y122496D01*
X30999Y122473D01*
X31042Y122444D01*
X31082Y122409D01*
X31116Y122370D01*
X31146Y122327D01*
X31169Y122280D01*
X31185Y122230D01*
X31196Y122178D01*
X31199Y122126D01*
Y105591D01*
X31196Y105538D01*
X31185Y105487D01*
X31169Y105437D01*
X31146Y105390D01*
X31116Y105347D01*
X31082Y105307D01*
X31042Y105273D01*
X30999Y105244D01*
X30952Y105220D01*
X30902Y105203D01*
X30851Y105193D01*
X30798Y105190D01*
X24499D01*
X24447Y105193D01*
X24396Y105203D01*
X24346Y105220D01*
X24299Y105244D01*
X24255Y105273D01*
X24216Y105307D01*
X24181Y105347D01*
X24152Y105390D01*
X24129Y105437D01*
X24112Y105487D01*
X24102Y105538D01*
X24099Y105591D01*
Y122126D01*
X24102Y122178D01*
X24112Y122230D01*
X24129Y122280D01*
X24152Y122327D01*
X24181Y122370D01*
X24216Y122409D01*
X24255Y122444D01*
X24299Y122473D01*
X24346Y122496D01*
X24396Y122513D01*
X24447Y122523D01*
X24499Y122527D01*
X30798D01*
X30851Y122523D01*
D02*
G37*
G36*
X20851D02*
X20902Y122513D01*
X20952Y122496D01*
X20999Y122473D01*
X21042Y122444D01*
X21082Y122409D01*
X21116Y122370D01*
X21146Y122327D01*
X21169Y122280D01*
X21185Y122230D01*
X21196Y122178D01*
X21199Y122126D01*
Y105591D01*
X21196Y105538D01*
X21185Y105487D01*
X21169Y105437D01*
X21146Y105390D01*
X21116Y105347D01*
X21082Y105307D01*
X21042Y105273D01*
X20999Y105244D01*
X20952Y105220D01*
X20902Y105203D01*
X20851Y105193D01*
X20798Y105190D01*
X14499D01*
X14447Y105193D01*
X14396Y105203D01*
X14346Y105220D01*
X14299Y105244D01*
X14255Y105273D01*
X14216Y105307D01*
X14181Y105347D01*
X14152Y105390D01*
X14129Y105437D01*
X14112Y105487D01*
X14102Y105538D01*
X14098Y105591D01*
Y122126D01*
X14102Y122178D01*
X14112Y122230D01*
X14129Y122280D01*
X14152Y122327D01*
X14181Y122370D01*
X14216Y122409D01*
X14255Y122444D01*
X14299Y122473D01*
X14346Y122496D01*
X14396Y122513D01*
X14447Y122523D01*
X14499Y122527D01*
X20798D01*
X20851Y122523D01*
D02*
G37*
G36*
X463832Y104773D02*
X463996Y104726D01*
X464149Y104654D01*
X464289Y104557D01*
X464412Y104440D01*
X464514Y104304D01*
X464593Y104154D01*
X464647Y103993D01*
X464674Y103825D01*
X464674Y103655D01*
X464647Y103488D01*
X464593Y103326D01*
X464514Y103176D01*
X464412Y103041D01*
X464289Y102923D01*
X464149Y102827D01*
X463996Y102754D01*
X463832Y102707D01*
X463664Y102687D01*
X463494Y102695D01*
X463328Y102729D01*
X463169Y102790D01*
X463022Y102875D01*
X462891Y102983D01*
X462779Y103111D01*
X462689Y103255D01*
X462623Y103411D01*
X462603Y103494D01*
X462602Y103498D01*
X462601Y103503D01*
X462585Y103558D01*
X462571Y103610D01*
X462570Y103615D01*
X462568Y103620D01*
X462549Y103674D01*
X462532Y103725D01*
X462530Y103729D01*
X462529Y103734D01*
X462526Y103740D01*
X462529Y103747D01*
X462530Y103751D01*
X462532Y103756D01*
X462550Y103809D01*
X462568Y103861D01*
X462570Y103866D01*
X462571Y103870D01*
X462586Y103923D01*
X462601Y103977D01*
X462602Y103982D01*
X462603Y103987D01*
X462623Y104069D01*
X462689Y104226D01*
X462779Y104370D01*
X462891Y104497D01*
X463022Y104605D01*
X463169Y104691D01*
X463328Y104751D01*
X463494Y104786D01*
X463664Y104793D01*
X463832Y104773D01*
D02*
G37*
G36*
X438081Y104786D02*
X438247Y104751D01*
X438406Y104691D01*
X438553Y104605D01*
X438684Y104497D01*
X438796Y104370D01*
X438886Y104226D01*
X438952Y104069D01*
X438972Y103987D01*
X438973Y103982D01*
X438974Y103977D01*
X438989Y103922D01*
X439004Y103870D01*
X439005Y103866D01*
X439007Y103861D01*
X439025Y103807D01*
X439043Y103755D01*
X439044Y103751D01*
X439046Y103747D01*
X439049Y103740D01*
X439046Y103734D01*
X439045Y103729D01*
X439043Y103725D01*
X439024Y103672D01*
X439007Y103620D01*
X439005Y103615D01*
X439004Y103610D01*
X438989Y103557D01*
X438974Y103503D01*
X438973Y103498D01*
X438972Y103494D01*
X438952Y103411D01*
X438886Y103255D01*
X438796Y103111D01*
X438684Y102983D01*
X438553Y102875D01*
X438406Y102790D01*
X438247Y102729D01*
X438081Y102694D01*
X437911Y102687D01*
X437743Y102707D01*
X437579Y102754D01*
X437426Y102827D01*
X437286Y102923D01*
X437163Y103041D01*
X437061Y103176D01*
X436982Y103326D01*
X436928Y103488D01*
X436901Y103655D01*
X436901Y103825D01*
X436928Y103993D01*
X436982Y104154D01*
X437061Y104304D01*
X437163Y104440D01*
X437286Y104557D01*
X437426Y104654D01*
X437579Y104726D01*
X437743Y104773D01*
X437911Y104793D01*
X438081Y104786D01*
D02*
G37*
G36*
X458544Y103740D02*
X456795Y101991D01*
X454125D01*
Y105489D01*
X456795D01*
X458544Y103740D01*
D02*
G37*
G36*
X447450Y101991D02*
X444780D01*
X443031Y103740D01*
X444780Y105489D01*
X447450D01*
Y101991D01*
D02*
G37*
G36*
X560012Y100049D02*
X560016Y100048D01*
X560023Y100045D01*
X560030Y100040D01*
X560036Y100035D01*
X560041Y100029D01*
X560045Y100022D01*
X560048Y100014D01*
X560050Y100006D01*
X560050Y99998D01*
X560049Y99990D01*
X560047Y99982D01*
X560044Y99975D01*
X560039Y99968D01*
X560034Y99962D01*
X560027Y99957D01*
X560020Y99954D01*
X560012Y99951D01*
X560004Y99950D01*
X559996Y99950D01*
X559988Y99951D01*
X559980Y99954D01*
X559973Y99957D01*
X559967Y99962D01*
X559961Y99968D01*
X559956Y99975D01*
X559953Y99982D01*
X559951Y99990D01*
X559950Y99998D01*
X559950Y100006D01*
X559952Y100014D01*
X559955Y100022D01*
X559959Y100029D01*
X559964Y100035D01*
X559970Y100040D01*
X559977Y100045D01*
X559984Y100048D01*
X559988Y100049D01*
X560000Y100052D01*
X560012Y100049D01*
D02*
G37*
G36*
X550012D02*
X550016Y100048D01*
X550023Y100045D01*
X550030Y100040D01*
X550036Y100035D01*
X550041Y100029D01*
X550045Y100022D01*
X550048Y100014D01*
X550050Y100006D01*
X550050Y99998D01*
X550049Y99990D01*
X550047Y99982D01*
X550044Y99975D01*
X550039Y99968D01*
X550034Y99962D01*
X550027Y99957D01*
X550020Y99954D01*
X550012Y99951D01*
X550004Y99950D01*
X549996Y99950D01*
X549988Y99951D01*
X549980Y99954D01*
X549973Y99957D01*
X549967Y99962D01*
X549961Y99968D01*
X549956Y99975D01*
X549953Y99982D01*
X549951Y99990D01*
X549950Y99998D01*
X549950Y100006D01*
X549952Y100014D01*
X549955Y100022D01*
X549959Y100029D01*
X549964Y100035D01*
X549970Y100040D01*
X549977Y100045D01*
X549984Y100048D01*
X549988Y100049D01*
X550000Y100052D01*
X550012Y100049D01*
D02*
G37*
G36*
X540012D02*
X540016Y100048D01*
X540023Y100045D01*
X540030Y100040D01*
X540036Y100035D01*
X540041Y100029D01*
X540045Y100022D01*
X540048Y100014D01*
X540050Y100006D01*
X540050Y99998D01*
X540049Y99990D01*
X540047Y99982D01*
X540044Y99975D01*
X540039Y99968D01*
X540033Y99962D01*
X540027Y99957D01*
X540020Y99954D01*
X540012Y99951D01*
X540004Y99950D01*
X539996Y99950D01*
X539988Y99951D01*
X539980Y99954D01*
X539973Y99957D01*
X539967Y99962D01*
X539961Y99968D01*
X539956Y99975D01*
X539953Y99982D01*
X539951Y99990D01*
X539950Y99998D01*
X539950Y100006D01*
X539952Y100014D01*
X539955Y100022D01*
X539959Y100029D01*
X539964Y100035D01*
X539970Y100040D01*
X539977Y100045D01*
X539984Y100048D01*
X539988Y100049D01*
X540000Y100052D01*
X540012Y100049D01*
D02*
G37*
G36*
X530012D02*
X530016Y100048D01*
X530023Y100045D01*
X530030Y100040D01*
X530036Y100035D01*
X530041Y100029D01*
X530046Y100022D01*
X530048Y100014D01*
X530050Y100006D01*
X530050Y99998D01*
X530049Y99990D01*
X530047Y99982D01*
X530044Y99975D01*
X530039Y99968D01*
X530033Y99962D01*
X530027Y99957D01*
X530020Y99954D01*
X530012Y99951D01*
X530004Y99950D01*
X529996Y99950D01*
X529988Y99951D01*
X529980Y99954D01*
X529973Y99957D01*
X529967Y99962D01*
X529961Y99968D01*
X529956Y99975D01*
X529953Y99982D01*
X529951Y99990D01*
X529950Y99998D01*
X529950Y100006D01*
X529952Y100014D01*
X529954Y100022D01*
X529959Y100029D01*
X529964Y100035D01*
X529970Y100040D01*
X529977Y100045D01*
X529984Y100048D01*
X529988Y100049D01*
X530000Y100052D01*
X530012Y100049D01*
D02*
G37*
G36*
X520012D02*
X520016Y100048D01*
X520023Y100045D01*
X520030Y100040D01*
X520036Y100035D01*
X520041Y100029D01*
X520046Y100022D01*
X520048Y100014D01*
X520050Y100006D01*
X520050Y99998D01*
X520049Y99990D01*
X520047Y99982D01*
X520044Y99975D01*
X520039Y99968D01*
X520034Y99962D01*
X520027Y99957D01*
X520020Y99954D01*
X520012Y99951D01*
X520004Y99950D01*
X519996Y99950D01*
X519988Y99951D01*
X519980Y99954D01*
X519973Y99957D01*
X519967Y99962D01*
X519961Y99968D01*
X519956Y99975D01*
X519953Y99982D01*
X519951Y99990D01*
X519950Y99998D01*
X519950Y100006D01*
X519952Y100014D01*
X519954Y100022D01*
X519959Y100029D01*
X519964Y100035D01*
X519970Y100040D01*
X519977Y100045D01*
X519984Y100048D01*
X519988Y100049D01*
X520000Y100052D01*
X520012Y100049D01*
D02*
G37*
G36*
X510012D02*
X510016Y100048D01*
X510023Y100045D01*
X510030Y100040D01*
X510036Y100035D01*
X510041Y100029D01*
X510045Y100022D01*
X510048Y100014D01*
X510050Y100006D01*
X510050Y99998D01*
X510049Y99990D01*
X510047Y99982D01*
X510044Y99975D01*
X510039Y99968D01*
X510034Y99962D01*
X510027Y99957D01*
X510020Y99954D01*
X510012Y99951D01*
X510004Y99950D01*
X509996Y99950D01*
X509988Y99951D01*
X509980Y99954D01*
X509973Y99957D01*
X509967Y99962D01*
X509961Y99968D01*
X509956Y99975D01*
X509953Y99982D01*
X509951Y99990D01*
X509950Y99998D01*
X509950Y100006D01*
X509952Y100014D01*
X509955Y100022D01*
X509959Y100029D01*
X509964Y100035D01*
X509970Y100040D01*
X509977Y100045D01*
X509984Y100048D01*
X509988Y100049D01*
X510000Y100052D01*
X510012Y100049D01*
D02*
G37*
G36*
X670012Y100049D02*
X670016Y100048D01*
X670024Y100045D01*
X670030Y100040D01*
X670037Y100035D01*
X670042Y100029D01*
X670046Y100022D01*
X670049Y100014D01*
X670050Y100006D01*
X670051Y99998D01*
X670050Y99990D01*
X670048Y99982D01*
X670044Y99975D01*
X670040Y99968D01*
X670034Y99962D01*
X670027Y99957D01*
X670020Y99954D01*
X670013Y99951D01*
X670005Y99950D01*
X669996Y99950D01*
X669988Y99951D01*
X669981Y99954D01*
X669973Y99957D01*
X669967Y99962D01*
X669961Y99968D01*
X669957Y99975D01*
X669953Y99982D01*
X669951Y99990D01*
X669950Y99998D01*
X669950Y100006D01*
X669952Y100014D01*
X669955Y100022D01*
X669959Y100029D01*
X669964Y100035D01*
X669970Y100040D01*
X669977Y100045D01*
X669985Y100048D01*
X669989Y100049D01*
X670000Y100052D01*
X670012Y100049D01*
D02*
G37*
G36*
X660012D02*
X660016Y100048D01*
X660024Y100045D01*
X660031Y100040D01*
X660037Y100035D01*
X660042Y100029D01*
X660046Y100022D01*
X660049Y100014D01*
X660050Y100006D01*
X660051Y99998D01*
X660050Y99990D01*
X660048Y99982D01*
X660044Y99975D01*
X660040Y99968D01*
X660034Y99962D01*
X660027Y99957D01*
X660020Y99954D01*
X660013Y99951D01*
X660005Y99950D01*
X659996Y99950D01*
X659988Y99951D01*
X659981Y99954D01*
X659973Y99957D01*
X659967Y99962D01*
X659961Y99968D01*
X659957Y99975D01*
X659953Y99982D01*
X659951Y99990D01*
X659950Y99998D01*
X659950Y100006D01*
X659952Y100014D01*
X659955Y100022D01*
X659959Y100029D01*
X659964Y100035D01*
X659970Y100040D01*
X659977Y100045D01*
X659985Y100048D01*
X659989Y100049D01*
X660000Y100052D01*
X660012Y100049D01*
D02*
G37*
G36*
X650012D02*
X650016Y100048D01*
X650024Y100045D01*
X650031Y100040D01*
X650037Y100035D01*
X650042Y100029D01*
X650046Y100022D01*
X650049Y100014D01*
X650050Y100006D01*
X650051Y99998D01*
X650050Y99990D01*
X650048Y99982D01*
X650044Y99975D01*
X650040Y99968D01*
X650034Y99962D01*
X650027Y99957D01*
X650020Y99954D01*
X650013Y99951D01*
X650004Y99950D01*
X649996Y99950D01*
X649988Y99951D01*
X649981Y99954D01*
X649973Y99957D01*
X649967Y99962D01*
X649961Y99968D01*
X649957Y99975D01*
X649953Y99982D01*
X649951Y99990D01*
X649950Y99998D01*
X649950Y100006D01*
X649952Y100014D01*
X649955Y100022D01*
X649959Y100029D01*
X649964Y100035D01*
X649970Y100040D01*
X649977Y100045D01*
X649985Y100048D01*
X649989Y100049D01*
X650000Y100052D01*
X650012Y100049D01*
D02*
G37*
G36*
X640012D02*
X640016Y100048D01*
X640024Y100045D01*
X640030Y100040D01*
X640037Y100035D01*
X640042Y100029D01*
X640046Y100022D01*
X640049Y100014D01*
X640051Y100006D01*
X640051Y99998D01*
X640050Y99990D01*
X640048Y99982D01*
X640044Y99975D01*
X640040Y99968D01*
X640034Y99962D01*
X640027Y99957D01*
X640020Y99954D01*
X640013Y99951D01*
X640004Y99950D01*
X639996Y99950D01*
X639988Y99951D01*
X639981Y99954D01*
X639973Y99957D01*
X639967Y99962D01*
X639961Y99968D01*
X639957Y99975D01*
X639953Y99982D01*
X639951Y99990D01*
X639950Y99998D01*
X639950Y100006D01*
X639952Y100014D01*
X639955Y100022D01*
X639959Y100029D01*
X639964Y100035D01*
X639970Y100040D01*
X639977Y100045D01*
X639985Y100048D01*
X639989Y100049D01*
X640000Y100052D01*
X640012Y100049D01*
D02*
G37*
G36*
X630012D02*
X630016Y100048D01*
X630024Y100045D01*
X630030Y100040D01*
X630037Y100035D01*
X630042Y100029D01*
X630046Y100022D01*
X630049Y100014D01*
X630051Y100006D01*
X630051Y99998D01*
X630050Y99990D01*
X630048Y99982D01*
X630044Y99975D01*
X630040Y99968D01*
X630034Y99962D01*
X630027Y99957D01*
X630020Y99954D01*
X630013Y99951D01*
X630005Y99950D01*
X629996Y99950D01*
X629988Y99951D01*
X629981Y99954D01*
X629973Y99957D01*
X629967Y99962D01*
X629961Y99968D01*
X629957Y99975D01*
X629953Y99982D01*
X629951Y99990D01*
X629950Y99998D01*
X629950Y100006D01*
X629952Y100014D01*
X629955Y100022D01*
X629959Y100029D01*
X629964Y100035D01*
X629970Y100040D01*
X629977Y100045D01*
X629985Y100048D01*
X629989Y100049D01*
X630000Y100052D01*
X630012Y100049D01*
D02*
G37*
G36*
X620012D02*
X620016Y100048D01*
X620024Y100045D01*
X620030Y100040D01*
X620037Y100035D01*
X620042Y100029D01*
X620046Y100022D01*
X620049Y100014D01*
X620050Y100006D01*
X620051Y99998D01*
X620050Y99990D01*
X620048Y99982D01*
X620044Y99975D01*
X620040Y99968D01*
X620034Y99962D01*
X620027Y99957D01*
X620020Y99954D01*
X620013Y99951D01*
X620005Y99950D01*
X619996Y99950D01*
X619988Y99951D01*
X619981Y99954D01*
X619973Y99957D01*
X619967Y99962D01*
X619961Y99968D01*
X619957Y99975D01*
X619953Y99982D01*
X619951Y99990D01*
X619950Y99998D01*
X619950Y100006D01*
X619952Y100014D01*
X619955Y100022D01*
X619959Y100029D01*
X619964Y100035D01*
X619970Y100040D01*
X619977Y100045D01*
X619985Y100048D01*
X619989Y100049D01*
X620000Y100052D01*
X620012Y100049D01*
D02*
G37*
G36*
X610012D02*
X610016Y100048D01*
X610024Y100045D01*
X610031Y100040D01*
X610037Y100035D01*
X610042Y100029D01*
X610046Y100022D01*
X610049Y100014D01*
X610050Y100006D01*
X610051Y99998D01*
X610050Y99990D01*
X610048Y99982D01*
X610044Y99975D01*
X610040Y99968D01*
X610034Y99962D01*
X610027Y99957D01*
X610020Y99954D01*
X610013Y99951D01*
X610005Y99950D01*
X609996Y99950D01*
X609988Y99951D01*
X609981Y99954D01*
X609973Y99957D01*
X609967Y99962D01*
X609961Y99968D01*
X609957Y99975D01*
X609953Y99982D01*
X609951Y99990D01*
X609950Y99998D01*
X609950Y100006D01*
X609952Y100014D01*
X609955Y100022D01*
X609959Y100029D01*
X609964Y100035D01*
X609970Y100040D01*
X609977Y100045D01*
X609985Y100048D01*
X609989Y100049D01*
X610000Y100052D01*
X610012Y100049D01*
D02*
G37*
G36*
X600012D02*
X600016Y100048D01*
X600024Y100045D01*
X600031Y100040D01*
X600037Y100035D01*
X600042Y100029D01*
X600046Y100022D01*
X600049Y100014D01*
X600050Y100006D01*
X600051Y99998D01*
X600050Y99990D01*
X600048Y99982D01*
X600044Y99975D01*
X600040Y99968D01*
X600034Y99962D01*
X600027Y99957D01*
X600020Y99954D01*
X600013Y99951D01*
X600004Y99950D01*
X599996Y99950D01*
X599988Y99951D01*
X599981Y99954D01*
X599973Y99957D01*
X599967Y99962D01*
X599961Y99968D01*
X599957Y99975D01*
X599953Y99982D01*
X599951Y99990D01*
X599950Y99998D01*
X599950Y100006D01*
X599952Y100014D01*
X599955Y100022D01*
X599959Y100029D01*
X599964Y100035D01*
X599970Y100040D01*
X599977Y100045D01*
X599985Y100048D01*
X599989Y100049D01*
X600000Y100052D01*
X600012Y100049D01*
D02*
G37*
G36*
X590012D02*
X590016Y100048D01*
X590024Y100045D01*
X590030Y100040D01*
X590037Y100035D01*
X590042Y100029D01*
X590046Y100022D01*
X590049Y100014D01*
X590051Y100006D01*
X590051Y99998D01*
X590050Y99990D01*
X590048Y99982D01*
X590044Y99975D01*
X590040Y99968D01*
X590034Y99962D01*
X590027Y99957D01*
X590020Y99954D01*
X590013Y99951D01*
X590004Y99950D01*
X589996Y99950D01*
X589988Y99951D01*
X589981Y99954D01*
X589973Y99957D01*
X589967Y99962D01*
X589961Y99968D01*
X589957Y99975D01*
X589953Y99982D01*
X589951Y99990D01*
X589950Y99998D01*
X589950Y100006D01*
X589952Y100014D01*
X589955Y100022D01*
X589959Y100029D01*
X589964Y100035D01*
X589970Y100040D01*
X589977Y100045D01*
X589985Y100048D01*
X589989Y100049D01*
X590000Y100052D01*
X590012Y100049D01*
D02*
G37*
G36*
X580012D02*
X580016Y100048D01*
X580024Y100045D01*
X580030Y100040D01*
X580037Y100035D01*
X580042Y100029D01*
X580046Y100022D01*
X580049Y100014D01*
X580051Y100006D01*
X580051Y99998D01*
X580050Y99990D01*
X580048Y99982D01*
X580044Y99975D01*
X580040Y99968D01*
X580034Y99962D01*
X580027Y99957D01*
X580020Y99954D01*
X580013Y99951D01*
X580005Y99950D01*
X579996Y99950D01*
X579988Y99951D01*
X579981Y99954D01*
X579973Y99957D01*
X579967Y99962D01*
X579961Y99968D01*
X579957Y99975D01*
X579953Y99982D01*
X579951Y99990D01*
X579950Y99998D01*
X579950Y100006D01*
X579952Y100014D01*
X579955Y100022D01*
X579959Y100029D01*
X579964Y100035D01*
X579970Y100040D01*
X579977Y100045D01*
X579985Y100048D01*
X579989Y100049D01*
X580000Y100052D01*
X580012Y100049D01*
D02*
G37*
G36*
X570012D02*
X570016Y100048D01*
X570024Y100045D01*
X570030Y100040D01*
X570037Y100035D01*
X570042Y100029D01*
X570046Y100022D01*
X570049Y100014D01*
X570050Y100006D01*
X570051Y99998D01*
X570050Y99990D01*
X570048Y99982D01*
X570044Y99975D01*
X570040Y99968D01*
X570034Y99962D01*
X570027Y99957D01*
X570020Y99954D01*
X570013Y99951D01*
X570005Y99950D01*
X569996Y99950D01*
X569988Y99951D01*
X569981Y99954D01*
X569973Y99957D01*
X569967Y99962D01*
X569961Y99968D01*
X569957Y99975D01*
X569953Y99982D01*
X569951Y99990D01*
X569950Y99998D01*
X569950Y100006D01*
X569952Y100014D01*
X569955Y100022D01*
X569959Y100029D01*
X569964Y100035D01*
X569970Y100040D01*
X569977Y100045D01*
X569985Y100048D01*
X569989Y100049D01*
X570000Y100052D01*
X570012Y100049D01*
D02*
G37*
G36*
X835683Y100049D02*
X835691Y100047D01*
X835699Y100044D01*
X835705Y100039D01*
X835711Y100033D01*
X835716Y100027D01*
X835720Y100020D01*
X835722Y100012D01*
X835724Y100004D01*
X835724Y99996D01*
X835722Y99988D01*
X835720Y99980D01*
X835716Y99973D01*
X835711Y99967D01*
X835705Y99961D01*
X835699Y99956D01*
X835691Y99953D01*
X835683Y99951D01*
X835675Y99950D01*
X835667Y99950D01*
X835659Y99952D01*
X835652Y99954D01*
X835645Y99959D01*
X835638Y99964D01*
X835633Y99970D01*
X835629Y99977D01*
X835625Y99984D01*
X835625Y99988D01*
X835621Y100000D01*
X835625Y100012D01*
X835625Y100016D01*
X835629Y100023D01*
X835633Y100030D01*
X835638Y100036D01*
X835645Y100041D01*
X835652Y100046D01*
X835659Y100048D01*
X835667Y100050D01*
X835675Y100050D01*
X835683Y100049D01*
D02*
G37*
G36*
X810007Y100050D02*
X810015Y100048D01*
X810022Y100046D01*
X810029Y100041D01*
X810036Y100036D01*
X810041Y100030D01*
X810045Y100023D01*
X810048Y100016D01*
X810049Y100012D01*
X810052Y100000D01*
X810049Y99988D01*
X810048Y99984D01*
X810045Y99977D01*
X810041Y99970D01*
X810036Y99964D01*
X810029Y99959D01*
X810022Y99954D01*
X810015Y99952D01*
X810007Y99950D01*
X809999Y99950D01*
X809990Y99950D01*
X809983Y99953D01*
X809975Y99956D01*
X809969Y99961D01*
X809963Y99967D01*
X809958Y99973D01*
X809954Y99980D01*
X809951Y99988D01*
X809950Y99996D01*
X809950Y100004D01*
X809951Y100012D01*
X809954Y100020D01*
X809958Y100027D01*
X809963Y100033D01*
X809969Y100039D01*
X809975Y100044D01*
X809983Y100047D01*
X809990Y100049D01*
X809999Y100050D01*
X810007Y100050D01*
D02*
G37*
G36*
X829179Y100000D02*
X828430Y99251D01*
X827174D01*
Y100749D01*
X828430D01*
X829179Y100000D01*
D02*
G37*
G36*
X818499Y99251D02*
X817243D01*
X816494Y100000D01*
X817243Y100749D01*
X818499D01*
Y99251D01*
D02*
G37*
G36*
X397538Y96763D02*
X397699Y96709D01*
X397850Y96630D01*
X397985Y96528D01*
X398103Y96405D01*
X398199Y96265D01*
X398271Y96112D01*
X398319Y95948D01*
X398339Y95780D01*
X398331Y95610D01*
X398297Y95444D01*
X398236Y95285D01*
X398151Y95138D01*
X398043Y95007D01*
X397915Y94895D01*
X397771Y94805D01*
X397615Y94739D01*
X397532Y94719D01*
X397528Y94718D01*
X397523Y94717D01*
X397468Y94701D01*
X397415Y94687D01*
X397411Y94686D01*
X397406Y94684D01*
X397352Y94666D01*
X397301Y94648D01*
X397297Y94647D01*
X397292Y94645D01*
X397286Y94642D01*
X397279Y94645D01*
X397275Y94646D01*
X397270Y94648D01*
X397217Y94666D01*
X397165Y94684D01*
X397160Y94686D01*
X397156Y94687D01*
X397102Y94702D01*
X397048Y94717D01*
X397044Y94718D01*
X397039Y94719D01*
X396957Y94739D01*
X396800Y94805D01*
X396656Y94895D01*
X396529Y95007D01*
X396421Y95138D01*
X396335Y95285D01*
X396274Y95444D01*
X396240Y95610D01*
X396233Y95780D01*
X396253Y95948D01*
X396300Y96112D01*
X396372Y96265D01*
X396468Y96405D01*
X396586Y96528D01*
X396722Y96630D01*
X396872Y96709D01*
X397033Y96763D01*
X397201Y96790D01*
X397371Y96790D01*
X397538Y96763D01*
D02*
G37*
G36*
X463832Y94773D02*
X463996Y94726D01*
X464149Y94654D01*
X464289Y94557D01*
X464412Y94440D01*
X464514Y94304D01*
X464593Y94154D01*
X464647Y93993D01*
X464674Y93825D01*
X464674Y93655D01*
X464647Y93488D01*
X464593Y93326D01*
X464514Y93176D01*
X464412Y93041D01*
X464289Y92923D01*
X464149Y92827D01*
X463996Y92754D01*
X463832Y92707D01*
X463664Y92687D01*
X463494Y92695D01*
X463328Y92729D01*
X463169Y92790D01*
X463022Y92875D01*
X462891Y92983D01*
X462779Y93111D01*
X462689Y93255D01*
X462623Y93411D01*
X462603Y93494D01*
X462602Y93498D01*
X462601Y93503D01*
X462585Y93558D01*
X462571Y93610D01*
X462570Y93615D01*
X462568Y93620D01*
X462549Y93674D01*
X462532Y93725D01*
X462530Y93729D01*
X462529Y93734D01*
X462526Y93740D01*
X462529Y93747D01*
X462530Y93751D01*
X462532Y93756D01*
X462550Y93809D01*
X462568Y93861D01*
X462570Y93866D01*
X462571Y93870D01*
X462586Y93923D01*
X462601Y93977D01*
X462602Y93982D01*
X462603Y93987D01*
X462623Y94069D01*
X462689Y94226D01*
X462779Y94370D01*
X462891Y94497D01*
X463022Y94605D01*
X463169Y94691D01*
X463328Y94751D01*
X463494Y94786D01*
X463664Y94793D01*
X463832Y94773D01*
D02*
G37*
G36*
X438081Y94786D02*
X438247Y94751D01*
X438406Y94691D01*
X438553Y94605D01*
X438684Y94497D01*
X438796Y94370D01*
X438886Y94226D01*
X438952Y94069D01*
X438972Y93987D01*
X438973Y93982D01*
X438974Y93977D01*
X438989Y93922D01*
X439004Y93870D01*
X439005Y93866D01*
X439007Y93861D01*
X439025Y93807D01*
X439043Y93756D01*
X439044Y93751D01*
X439046Y93747D01*
X439049Y93740D01*
X439046Y93734D01*
X439045Y93729D01*
X439043Y93725D01*
X439024Y93672D01*
X439007Y93619D01*
X439005Y93615D01*
X439004Y93610D01*
X438989Y93557D01*
X438974Y93503D01*
X438973Y93498D01*
X438972Y93494D01*
X438952Y93411D01*
X438886Y93255D01*
X438796Y93111D01*
X438684Y92983D01*
X438553Y92875D01*
X438406Y92790D01*
X438247Y92729D01*
X438081Y92694D01*
X437911Y92687D01*
X437743Y92707D01*
X437579Y92754D01*
X437426Y92827D01*
X437286Y92923D01*
X437163Y93041D01*
X437061Y93176D01*
X436982Y93326D01*
X436928Y93488D01*
X436901Y93655D01*
X436901Y93825D01*
X436928Y93993D01*
X436982Y94154D01*
X437061Y94304D01*
X437163Y94440D01*
X437286Y94557D01*
X437426Y94654D01*
X437579Y94726D01*
X437743Y94773D01*
X437911Y94793D01*
X438081Y94786D01*
D02*
G37*
G36*
X458544Y93740D02*
X456795Y91991D01*
X454125D01*
Y95489D01*
X456795D01*
X458544Y93740D01*
D02*
G37*
G36*
X447450Y91991D02*
X444780D01*
X443031Y93740D01*
X444780Y95489D01*
X447450D01*
Y91991D01*
D02*
G37*
G36*
X835683Y90049D02*
X835691Y90047D01*
X835699Y90044D01*
X835705Y90039D01*
X835711Y90034D01*
X835716Y90027D01*
X835720Y90020D01*
X835722Y90012D01*
X835724Y90004D01*
X835724Y89996D01*
X835722Y89988D01*
X835720Y89980D01*
X835716Y89973D01*
X835711Y89966D01*
X835705Y89961D01*
X835699Y89956D01*
X835691Y89953D01*
X835683Y89951D01*
X835675Y89950D01*
X835667Y89950D01*
X835659Y89952D01*
X835652Y89955D01*
X835645Y89959D01*
X835638Y89964D01*
X835633Y89970D01*
X835629Y89977D01*
X835625Y89984D01*
X835625Y89988D01*
X835621Y90000D01*
X835625Y90012D01*
X835625Y90016D01*
X835629Y90023D01*
X835633Y90030D01*
X835638Y90036D01*
X835645Y90041D01*
X835652Y90045D01*
X835659Y90048D01*
X835667Y90050D01*
X835675Y90050D01*
X835683Y90049D01*
D02*
G37*
G36*
X810007Y90050D02*
X810015Y90048D01*
X810022Y90045D01*
X810029Y90041D01*
X810036Y90036D01*
X810041Y90030D01*
X810045Y90023D01*
X810048Y90016D01*
X810049Y90012D01*
X810052Y90000D01*
X810049Y89988D01*
X810048Y89984D01*
X810045Y89977D01*
X810041Y89970D01*
X810036Y89964D01*
X810029Y89959D01*
X810022Y89955D01*
X810015Y89952D01*
X810007Y89950D01*
X809999Y89950D01*
X809990Y89951D01*
X809983Y89953D01*
X809975Y89956D01*
X809969Y89961D01*
X809963Y89966D01*
X809958Y89973D01*
X809954Y89980D01*
X809951Y89988D01*
X809950Y89996D01*
X809950Y90004D01*
X809951Y90012D01*
X809954Y90020D01*
X809958Y90027D01*
X809963Y90033D01*
X809969Y90039D01*
X809975Y90044D01*
X809983Y90047D01*
X809990Y90049D01*
X809999Y90050D01*
X810007Y90050D01*
D02*
G37*
G36*
X829179Y90000D02*
X828430Y89251D01*
X827174D01*
Y90749D01*
X828430D01*
X829179Y90000D01*
D02*
G37*
G36*
X818499Y89251D02*
X817243D01*
X816494Y90000D01*
X817243Y90749D01*
X818499D01*
Y89251D01*
D02*
G37*
G36*
X399035Y88911D02*
Y86241D01*
X395536D01*
Y88911D01*
X397286Y90660D01*
X399035Y88911D01*
D02*
G37*
G36*
X463832Y84773D02*
X463996Y84726D01*
X464149Y84654D01*
X464289Y84557D01*
X464412Y84440D01*
X464514Y84304D01*
X464593Y84154D01*
X464647Y83993D01*
X464674Y83825D01*
X464674Y83655D01*
X464647Y83488D01*
X464593Y83327D01*
X464514Y83176D01*
X464412Y83040D01*
X464289Y82923D01*
X464149Y82827D01*
X463996Y82754D01*
X463832Y82707D01*
X463664Y82687D01*
X463494Y82695D01*
X463328Y82729D01*
X463169Y82790D01*
X463022Y82875D01*
X462891Y82983D01*
X462779Y83111D01*
X462689Y83255D01*
X462623Y83411D01*
X462603Y83494D01*
X462602Y83498D01*
X462601Y83503D01*
X462585Y83558D01*
X462571Y83610D01*
X462570Y83615D01*
X462568Y83619D01*
X462549Y83674D01*
X462532Y83725D01*
X462530Y83729D01*
X462529Y83734D01*
X462526Y83740D01*
X462529Y83747D01*
X462530Y83751D01*
X462532Y83756D01*
X462550Y83809D01*
X462568Y83861D01*
X462570Y83865D01*
X462571Y83870D01*
X462586Y83923D01*
X462601Y83977D01*
X462602Y83982D01*
X462603Y83987D01*
X462623Y84069D01*
X462689Y84226D01*
X462779Y84370D01*
X462891Y84497D01*
X463022Y84605D01*
X463169Y84691D01*
X463328Y84751D01*
X463494Y84786D01*
X463664Y84793D01*
X463832Y84773D01*
D02*
G37*
G36*
X438081Y84786D02*
X438247Y84751D01*
X438406Y84691D01*
X438553Y84605D01*
X438684Y84497D01*
X438796Y84370D01*
X438886Y84226D01*
X438952Y84069D01*
X438972Y83987D01*
X438973Y83982D01*
X438974Y83977D01*
X438989Y83922D01*
X439004Y83870D01*
X439005Y83866D01*
X439007Y83861D01*
X439025Y83807D01*
X439043Y83755D01*
X439044Y83751D01*
X439046Y83747D01*
X439049Y83740D01*
X439046Y83734D01*
X439045Y83729D01*
X439043Y83725D01*
X439024Y83672D01*
X439007Y83619D01*
X439005Y83615D01*
X439004Y83610D01*
X438989Y83557D01*
X438974Y83503D01*
X438973Y83498D01*
X438972Y83494D01*
X438952Y83411D01*
X438886Y83255D01*
X438796Y83111D01*
X438684Y82983D01*
X438553Y82875D01*
X438406Y82790D01*
X438247Y82729D01*
X438081Y82695D01*
X437911Y82687D01*
X437743Y82707D01*
X437579Y82754D01*
X437426Y82827D01*
X437286Y82923D01*
X437163Y83040D01*
X437061Y83176D01*
X436982Y83327D01*
X436928Y83487D01*
X436901Y83655D01*
X436901Y83825D01*
X436928Y83993D01*
X436982Y84154D01*
X437061Y84304D01*
X437163Y84440D01*
X437286Y84557D01*
X437426Y84654D01*
X437579Y84726D01*
X437743Y84773D01*
X437911Y84793D01*
X438081Y84786D01*
D02*
G37*
G36*
X458544Y83740D02*
X456795Y81991D01*
X454125D01*
Y85489D01*
X456795D01*
X458544Y83740D01*
D02*
G37*
G36*
X447450Y81991D02*
X444780D01*
X443031Y83740D01*
X444780Y85489D01*
X447450D01*
Y81991D01*
D02*
G37*
G36*
X835683Y80049D02*
X835691Y80047D01*
X835699Y80044D01*
X835705Y80039D01*
X835711Y80033D01*
X835716Y80027D01*
X835720Y80020D01*
X835722Y80012D01*
X835724Y80004D01*
X835724Y79996D01*
X835722Y79988D01*
X835720Y79980D01*
X835716Y79973D01*
X835711Y79966D01*
X835705Y79961D01*
X835699Y79956D01*
X835691Y79953D01*
X835683Y79951D01*
X835675Y79950D01*
X835667Y79950D01*
X835659Y79952D01*
X835652Y79954D01*
X835645Y79959D01*
X835638Y79964D01*
X835633Y79970D01*
X835629Y79977D01*
X835625Y79984D01*
X835625Y79988D01*
X835621Y80000D01*
X835625Y80012D01*
X835625Y80016D01*
X835629Y80023D01*
X835633Y80030D01*
X835638Y80036D01*
X835645Y80041D01*
X835652Y80045D01*
X835659Y80048D01*
X835667Y80050D01*
X835675Y80050D01*
X835683Y80049D01*
D02*
G37*
G36*
X810007Y80050D02*
X810015Y80048D01*
X810022Y80045D01*
X810029Y80041D01*
X810036Y80036D01*
X810041Y80030D01*
X810045Y80023D01*
X810048Y80016D01*
X810049Y80012D01*
X810052Y80000D01*
X810049Y79988D01*
X810048Y79984D01*
X810045Y79977D01*
X810041Y79970D01*
X810036Y79964D01*
X810029Y79959D01*
X810022Y79954D01*
X810015Y79952D01*
X810007Y79950D01*
X809999Y79950D01*
X809990Y79950D01*
X809983Y79953D01*
X809975Y79956D01*
X809969Y79961D01*
X809963Y79966D01*
X809958Y79973D01*
X809954Y79980D01*
X809951Y79988D01*
X809950Y79996D01*
X809950Y80004D01*
X809951Y80012D01*
X809954Y80020D01*
X809958Y80027D01*
X809963Y80033D01*
X809969Y80039D01*
X809975Y80044D01*
X809983Y80047D01*
X809990Y80049D01*
X809999Y80050D01*
X810007Y80050D01*
D02*
G37*
G36*
X829179Y80000D02*
X828430Y79251D01*
X827174D01*
Y80749D01*
X828430D01*
X829179Y80000D01*
D02*
G37*
G36*
X818499Y79251D02*
X817243D01*
X816494Y80000D01*
X817243Y80749D01*
X818499D01*
Y79251D01*
D02*
G37*
G36*
X399035Y76896D02*
X397286Y75147D01*
X395536Y76896D01*
Y79566D01*
X399035D01*
Y76896D01*
D02*
G37*
G36*
X463832Y74773D02*
X463996Y74726D01*
X464149Y74654D01*
X464289Y74557D01*
X464412Y74440D01*
X464514Y74304D01*
X464593Y74154D01*
X464647Y73993D01*
X464674Y73825D01*
X464674Y73655D01*
X464647Y73488D01*
X464593Y73326D01*
X464514Y73176D01*
X464412Y73040D01*
X464289Y72923D01*
X464149Y72827D01*
X463996Y72754D01*
X463832Y72707D01*
X463664Y72687D01*
X463494Y72695D01*
X463328Y72729D01*
X463169Y72790D01*
X463022Y72875D01*
X462891Y72983D01*
X462779Y73111D01*
X462689Y73255D01*
X462623Y73411D01*
X462603Y73494D01*
X462602Y73498D01*
X462601Y73503D01*
X462585Y73558D01*
X462571Y73610D01*
X462570Y73615D01*
X462568Y73620D01*
X462549Y73674D01*
X462532Y73725D01*
X462530Y73729D01*
X462529Y73734D01*
X462526Y73740D01*
X462529Y73747D01*
X462530Y73751D01*
X462532Y73756D01*
X462550Y73809D01*
X462568Y73861D01*
X462570Y73865D01*
X462571Y73870D01*
X462586Y73923D01*
X462601Y73977D01*
X462602Y73982D01*
X462603Y73987D01*
X462623Y74069D01*
X462689Y74226D01*
X462779Y74370D01*
X462891Y74497D01*
X463022Y74605D01*
X463169Y74691D01*
X463328Y74751D01*
X463494Y74786D01*
X463664Y74793D01*
X463832Y74773D01*
D02*
G37*
G36*
X438081Y74786D02*
X438247Y74751D01*
X438406Y74691D01*
X438553Y74605D01*
X438684Y74497D01*
X438796Y74370D01*
X438886Y74226D01*
X438952Y74069D01*
X438972Y73987D01*
X438973Y73982D01*
X438974Y73977D01*
X438989Y73922D01*
X439004Y73870D01*
X439005Y73866D01*
X439007Y73861D01*
X439025Y73807D01*
X439043Y73756D01*
X439044Y73751D01*
X439046Y73747D01*
X439049Y73740D01*
X439046Y73734D01*
X439045Y73729D01*
X439043Y73725D01*
X439024Y73672D01*
X439007Y73619D01*
X439005Y73615D01*
X439004Y73610D01*
X438989Y73557D01*
X438974Y73503D01*
X438973Y73498D01*
X438972Y73494D01*
X438952Y73411D01*
X438886Y73255D01*
X438796Y73111D01*
X438684Y72983D01*
X438553Y72875D01*
X438406Y72790D01*
X438247Y72729D01*
X438081Y72694D01*
X437911Y72687D01*
X437743Y72707D01*
X437579Y72754D01*
X437426Y72827D01*
X437286Y72923D01*
X437163Y73040D01*
X437061Y73176D01*
X436982Y73326D01*
X436928Y73488D01*
X436901Y73655D01*
X436901Y73825D01*
X436928Y73993D01*
X436982Y74154D01*
X437061Y74304D01*
X437163Y74440D01*
X437286Y74557D01*
X437426Y74654D01*
X437579Y74726D01*
X437743Y74773D01*
X437911Y74793D01*
X438081Y74786D01*
D02*
G37*
G36*
X458544Y73740D02*
X456795Y71991D01*
X454125D01*
Y75489D01*
X456795D01*
X458544Y73740D01*
D02*
G37*
G36*
X447450Y71991D02*
X444780D01*
X443031Y73740D01*
X444780Y75489D01*
X447450D01*
Y71991D01*
D02*
G37*
G36*
X835683Y70049D02*
X835691Y70047D01*
X835699Y70044D01*
X835705Y70039D01*
X835711Y70034D01*
X835716Y70027D01*
X835720Y70020D01*
X835722Y70012D01*
X835724Y70004D01*
X835724Y69996D01*
X835722Y69988D01*
X835720Y69980D01*
X835716Y69973D01*
X835711Y69967D01*
X835705Y69961D01*
X835699Y69956D01*
X835691Y69953D01*
X835683Y69951D01*
X835675Y69950D01*
X835667Y69950D01*
X835659Y69952D01*
X835652Y69955D01*
X835645Y69959D01*
X835638Y69964D01*
X835633Y69970D01*
X835629Y69977D01*
X835625Y69984D01*
X835625Y69988D01*
X835621Y70000D01*
X835625Y70012D01*
X835625Y70016D01*
X835629Y70023D01*
X835633Y70030D01*
X835638Y70036D01*
X835645Y70041D01*
X835652Y70046D01*
X835659Y70048D01*
X835667Y70050D01*
X835675Y70050D01*
X835683Y70049D01*
D02*
G37*
G36*
X810007Y70050D02*
X810015Y70048D01*
X810022Y70046D01*
X810029Y70041D01*
X810036Y70036D01*
X810041Y70030D01*
X810045Y70023D01*
X810048Y70016D01*
X810049Y70012D01*
X810052Y70000D01*
X810049Y69988D01*
X810048Y69984D01*
X810045Y69977D01*
X810041Y69970D01*
X810036Y69964D01*
X810029Y69959D01*
X810022Y69955D01*
X810015Y69952D01*
X810007Y69950D01*
X809999Y69950D01*
X809990Y69950D01*
X809983Y69953D01*
X809975Y69956D01*
X809969Y69961D01*
X809963Y69967D01*
X809958Y69973D01*
X809954Y69980D01*
X809951Y69988D01*
X809950Y69996D01*
X809950Y70004D01*
X809951Y70012D01*
X809954Y70020D01*
X809958Y70027D01*
X809963Y70033D01*
X809969Y70039D01*
X809975Y70044D01*
X809983Y70047D01*
X809990Y70049D01*
X809999Y70050D01*
X810007Y70050D01*
D02*
G37*
G36*
X829179Y70000D02*
X828430Y69251D01*
X827174D01*
Y70749D01*
X828430D01*
X829179Y70000D01*
D02*
G37*
G36*
X818499Y69251D02*
X817243D01*
X816494Y70000D01*
X817243Y70749D01*
X818499D01*
Y69251D01*
D02*
G37*
G36*
X397292Y71162D02*
X397297Y71161D01*
X397301Y71159D01*
X397354Y71141D01*
X397406Y71123D01*
X397411Y71121D01*
X397415Y71120D01*
X397469Y71105D01*
X397523Y71090D01*
X397528Y71089D01*
X397532Y71088D01*
X397615Y71068D01*
X397771Y71002D01*
X397915Y70912D01*
X398043Y70800D01*
X398151Y70669D01*
X398236Y70522D01*
X398297Y70363D01*
X398331Y70197D01*
X398339Y70027D01*
X398319Y69858D01*
X398272Y69695D01*
X398199Y69542D01*
X398103Y69402D01*
X397985Y69279D01*
X397850Y69177D01*
X397699Y69098D01*
X397538Y69044D01*
X397371Y69017D01*
X397201Y69017D01*
X397033Y69044D01*
X396872Y69098D01*
X396722Y69177D01*
X396586Y69279D01*
X396468Y69402D01*
X396372Y69542D01*
X396300Y69695D01*
X396253Y69858D01*
X396233Y70027D01*
X396240Y70197D01*
X396274Y70363D01*
X396335Y70522D01*
X396421Y70669D01*
X396529Y70800D01*
X396656Y70912D01*
X396800Y71002D01*
X396957Y71068D01*
X397039Y71088D01*
X397044Y71089D01*
X397048Y71090D01*
X397104Y71105D01*
X397156Y71120D01*
X397160Y71121D01*
X397165Y71123D01*
X397219Y71141D01*
X397270Y71159D01*
X397275Y71161D01*
X397279Y71162D01*
X397286Y71165D01*
X397292Y71162D01*
D02*
G37*
G36*
X463832Y64773D02*
X463996Y64726D01*
X464149Y64654D01*
X464289Y64557D01*
X464412Y64440D01*
X464514Y64304D01*
X464593Y64154D01*
X464647Y63993D01*
X464674Y63825D01*
X464674Y63655D01*
X464647Y63488D01*
X464593Y63327D01*
X464514Y63176D01*
X464412Y63041D01*
X464289Y62923D01*
X464149Y62827D01*
X463996Y62754D01*
X463832Y62707D01*
X463664Y62687D01*
X463494Y62695D01*
X463328Y62729D01*
X463169Y62790D01*
X463022Y62875D01*
X462891Y62983D01*
X462779Y63111D01*
X462689Y63255D01*
X462623Y63411D01*
X462603Y63494D01*
X462602Y63498D01*
X462601Y63503D01*
X462585Y63558D01*
X462571Y63610D01*
X462570Y63615D01*
X462568Y63620D01*
X462549Y63674D01*
X462532Y63725D01*
X462530Y63729D01*
X462529Y63734D01*
X462526Y63740D01*
X462529Y63747D01*
X462530Y63751D01*
X462532Y63756D01*
X462550Y63809D01*
X462568Y63861D01*
X462570Y63866D01*
X462571Y63870D01*
X462586Y63923D01*
X462601Y63977D01*
X462602Y63982D01*
X462603Y63987D01*
X462623Y64069D01*
X462689Y64226D01*
X462779Y64370D01*
X462891Y64497D01*
X463022Y64605D01*
X463169Y64691D01*
X463328Y64751D01*
X463494Y64786D01*
X463664Y64793D01*
X463832Y64773D01*
D02*
G37*
G36*
X438081Y64786D02*
X438247Y64751D01*
X438406Y64691D01*
X438553Y64605D01*
X438684Y64497D01*
X438796Y64370D01*
X438886Y64226D01*
X438952Y64069D01*
X438972Y63987D01*
X438973Y63982D01*
X438974Y63977D01*
X438989Y63922D01*
X439004Y63870D01*
X439005Y63866D01*
X439007Y63861D01*
X439025Y63807D01*
X439043Y63756D01*
X439044Y63751D01*
X439046Y63747D01*
X439049Y63740D01*
X439046Y63734D01*
X439045Y63729D01*
X439043Y63725D01*
X439024Y63672D01*
X439007Y63619D01*
X439005Y63615D01*
X439004Y63610D01*
X438989Y63557D01*
X438974Y63503D01*
X438973Y63498D01*
X438972Y63494D01*
X438952Y63411D01*
X438886Y63255D01*
X438796Y63111D01*
X438684Y62983D01*
X438553Y62875D01*
X438406Y62790D01*
X438247Y62729D01*
X438081Y62695D01*
X437911Y62687D01*
X437743Y62707D01*
X437579Y62754D01*
X437426Y62827D01*
X437286Y62923D01*
X437163Y63041D01*
X437061Y63176D01*
X436982Y63327D01*
X436928Y63487D01*
X436901Y63655D01*
X436901Y63825D01*
X436928Y63993D01*
X436982Y64154D01*
X437061Y64304D01*
X437163Y64440D01*
X437286Y64557D01*
X437426Y64654D01*
X437579Y64726D01*
X437743Y64773D01*
X437911Y64793D01*
X438081Y64786D01*
D02*
G37*
G36*
X458544Y63740D02*
X456795Y61991D01*
X454125D01*
Y65489D01*
X456795D01*
X458544Y63740D01*
D02*
G37*
G36*
X447450Y61991D02*
X444780D01*
X443031Y63740D01*
X444780Y65489D01*
X447450D01*
Y61991D01*
D02*
G37*
G36*
X835683Y60049D02*
X835691Y60047D01*
X835699Y60044D01*
X835705Y60039D01*
X835711Y60034D01*
X835716Y60027D01*
X835720Y60020D01*
X835722Y60012D01*
X835724Y60004D01*
X835724Y59996D01*
X835722Y59988D01*
X835720Y59980D01*
X835716Y59973D01*
X835711Y59966D01*
X835705Y59961D01*
X835699Y59956D01*
X835691Y59953D01*
X835683Y59951D01*
X835675Y59950D01*
X835667Y59950D01*
X835659Y59952D01*
X835652Y59955D01*
X835645Y59959D01*
X835638Y59964D01*
X835633Y59970D01*
X835629Y59977D01*
X835625Y59984D01*
X835625Y59988D01*
X835621Y60000D01*
X835625Y60012D01*
X835625Y60016D01*
X835629Y60023D01*
X835633Y60030D01*
X835638Y60036D01*
X835645Y60041D01*
X835652Y60045D01*
X835659Y60048D01*
X835667Y60050D01*
X835675Y60050D01*
X835683Y60049D01*
D02*
G37*
G36*
X810007Y60050D02*
X810015Y60048D01*
X810022Y60045D01*
X810029Y60041D01*
X810036Y60036D01*
X810041Y60030D01*
X810045Y60023D01*
X810048Y60016D01*
X810049Y60012D01*
X810052Y60000D01*
X810049Y59988D01*
X810048Y59984D01*
X810045Y59977D01*
X810041Y59970D01*
X810036Y59964D01*
X810029Y59959D01*
X810022Y59955D01*
X810015Y59952D01*
X810007Y59950D01*
X809999Y59950D01*
X809990Y59951D01*
X809983Y59953D01*
X809975Y59956D01*
X809969Y59961D01*
X809963Y59966D01*
X809958Y59973D01*
X809954Y59980D01*
X809951Y59988D01*
X809950Y59996D01*
X809950Y60004D01*
X809951Y60012D01*
X809954Y60020D01*
X809958Y60027D01*
X809963Y60033D01*
X809969Y60039D01*
X809975Y60044D01*
X809983Y60047D01*
X809990Y60049D01*
X809999Y60050D01*
X810007Y60050D01*
D02*
G37*
G36*
X829179Y60000D02*
X828430Y59251D01*
X827174D01*
Y60749D01*
X828430D01*
X829179Y60000D01*
D02*
G37*
G36*
X818499Y59251D02*
X817243D01*
X816494Y60000D01*
X817243Y60749D01*
X818499D01*
Y59251D01*
D02*
G37*
G36*
X463832Y54773D02*
X463996Y54726D01*
X464149Y54654D01*
X464289Y54557D01*
X464412Y54440D01*
X464514Y54304D01*
X464593Y54154D01*
X464647Y53993D01*
X464674Y53825D01*
X464674Y53655D01*
X464647Y53488D01*
X464593Y53326D01*
X464514Y53176D01*
X464412Y53040D01*
X464289Y52923D01*
X464149Y52827D01*
X463996Y52754D01*
X463832Y52707D01*
X463664Y52687D01*
X463494Y52695D01*
X463328Y52729D01*
X463169Y52790D01*
X463022Y52875D01*
X462891Y52983D01*
X462779Y53111D01*
X462689Y53255D01*
X462623Y53411D01*
X462603Y53494D01*
X462602Y53498D01*
X462601Y53503D01*
X462585Y53558D01*
X462571Y53610D01*
X462570Y53615D01*
X462568Y53619D01*
X462549Y53674D01*
X462532Y53725D01*
X462530Y53729D01*
X462529Y53734D01*
X462526Y53740D01*
X462529Y53747D01*
X462530Y53751D01*
X462532Y53756D01*
X462550Y53809D01*
X462568Y53861D01*
X462570Y53865D01*
X462571Y53870D01*
X462586Y53923D01*
X462601Y53977D01*
X462602Y53982D01*
X462603Y53987D01*
X462623Y54069D01*
X462689Y54226D01*
X462779Y54370D01*
X462891Y54497D01*
X463022Y54605D01*
X463169Y54691D01*
X463328Y54751D01*
X463494Y54786D01*
X463664Y54793D01*
X463832Y54773D01*
D02*
G37*
G36*
X438081Y54786D02*
X438247Y54751D01*
X438406Y54691D01*
X438553Y54605D01*
X438684Y54497D01*
X438796Y54370D01*
X438886Y54226D01*
X438952Y54069D01*
X438972Y53987D01*
X438973Y53982D01*
X438974Y53977D01*
X438989Y53922D01*
X439004Y53870D01*
X439005Y53866D01*
X439007Y53861D01*
X439025Y53807D01*
X439043Y53755D01*
X439044Y53751D01*
X439046Y53747D01*
X439049Y53740D01*
X439046Y53734D01*
X439045Y53729D01*
X439043Y53725D01*
X439024Y53672D01*
X439007Y53619D01*
X439005Y53615D01*
X439004Y53610D01*
X438989Y53557D01*
X438974Y53503D01*
X438973Y53498D01*
X438972Y53494D01*
X438952Y53411D01*
X438886Y53255D01*
X438796Y53111D01*
X438684Y52983D01*
X438553Y52875D01*
X438406Y52790D01*
X438247Y52729D01*
X438081Y52694D01*
X437911Y52687D01*
X437743Y52707D01*
X437579Y52754D01*
X437426Y52827D01*
X437286Y52923D01*
X437163Y53040D01*
X437061Y53176D01*
X436982Y53326D01*
X436928Y53487D01*
X436901Y53655D01*
X436901Y53825D01*
X436928Y53993D01*
X436982Y54154D01*
X437061Y54304D01*
X437163Y54440D01*
X437286Y54557D01*
X437426Y54654D01*
X437579Y54726D01*
X437743Y54773D01*
X437911Y54793D01*
X438081Y54786D01*
D02*
G37*
G36*
X458544Y53740D02*
X456795Y51991D01*
X454125D01*
Y55489D01*
X456795D01*
X458544Y53740D01*
D02*
G37*
G36*
X447450Y51991D02*
X444780D01*
X443031Y53740D01*
X444780Y55489D01*
X447450D01*
Y51991D01*
D02*
G37*
G36*
X835683Y50049D02*
X835691Y50047D01*
X835699Y50044D01*
X835705Y50039D01*
X835711Y50033D01*
X835716Y50027D01*
X835720Y50020D01*
X835722Y50012D01*
X835724Y50004D01*
X835724Y49996D01*
X835722Y49988D01*
X835720Y49980D01*
X835716Y49973D01*
X835711Y49966D01*
X835705Y49961D01*
X835699Y49956D01*
X835691Y49953D01*
X835683Y49951D01*
X835675Y49950D01*
X835667Y49950D01*
X835659Y49952D01*
X835652Y49955D01*
X835645Y49959D01*
X835638Y49964D01*
X835633Y49970D01*
X835629Y49977D01*
X835625Y49984D01*
X835625Y49988D01*
X835621Y50000D01*
X835625Y50012D01*
X835625Y50016D01*
X835629Y50023D01*
X835633Y50030D01*
X835638Y50036D01*
X835645Y50041D01*
X835652Y50046D01*
X835659Y50048D01*
X835667Y50050D01*
X835675Y50050D01*
X835683Y50049D01*
D02*
G37*
G36*
X810007Y50050D02*
X810015Y50048D01*
X810022Y50046D01*
X810029Y50041D01*
X810036Y50036D01*
X810041Y50030D01*
X810045Y50023D01*
X810048Y50016D01*
X810049Y50012D01*
X810052Y50000D01*
X810049Y49988D01*
X810048Y49984D01*
X810045Y49977D01*
X810041Y49970D01*
X810036Y49964D01*
X810029Y49959D01*
X810022Y49955D01*
X810015Y49952D01*
X810007Y49950D01*
X809999Y49950D01*
X809990Y49951D01*
X809983Y49953D01*
X809975Y49956D01*
X809969Y49961D01*
X809963Y49966D01*
X809958Y49973D01*
X809954Y49980D01*
X809951Y49988D01*
X809950Y49996D01*
X809950Y50004D01*
X809951Y50012D01*
X809954Y50020D01*
X809958Y50027D01*
X809963Y50033D01*
X809969Y50039D01*
X809975Y50044D01*
X809983Y50047D01*
X809990Y50049D01*
X809999Y50050D01*
X810007Y50050D01*
D02*
G37*
G36*
X829179Y50000D02*
X828430Y49251D01*
X827174D01*
Y50749D01*
X828430D01*
X829179Y50000D01*
D02*
G37*
G36*
X818499Y49251D02*
X817243D01*
X816494Y50000D01*
X817243Y50749D01*
X818499D01*
Y49251D01*
D02*
G37*
G36*
X835683Y40049D02*
X835691Y40047D01*
X835699Y40044D01*
X835705Y40039D01*
X835711Y40034D01*
X835716Y40027D01*
X835720Y40020D01*
X835722Y40012D01*
X835724Y40004D01*
X835724Y39996D01*
X835722Y39988D01*
X835720Y39980D01*
X835716Y39973D01*
X835711Y39966D01*
X835705Y39961D01*
X835699Y39956D01*
X835691Y39953D01*
X835683Y39951D01*
X835675Y39950D01*
X835667Y39950D01*
X835659Y39952D01*
X835652Y39955D01*
X835645Y39959D01*
X835638Y39964D01*
X835633Y39970D01*
X835629Y39977D01*
X835625Y39984D01*
X835625Y39988D01*
X835621Y40000D01*
X835625Y40012D01*
X835625Y40016D01*
X835629Y40023D01*
X835633Y40030D01*
X835638Y40036D01*
X835645Y40041D01*
X835652Y40045D01*
X835659Y40048D01*
X835667Y40050D01*
X835675Y40050D01*
X835683Y40049D01*
D02*
G37*
G36*
X810007Y40050D02*
X810015Y40048D01*
X810022Y40045D01*
X810029Y40041D01*
X810036Y40036D01*
X810041Y40030D01*
X810045Y40023D01*
X810048Y40016D01*
X810049Y40012D01*
X810052Y40000D01*
X810049Y39988D01*
X810048Y39984D01*
X810045Y39977D01*
X810041Y39970D01*
X810036Y39964D01*
X810029Y39959D01*
X810022Y39955D01*
X810015Y39952D01*
X810007Y39950D01*
X809999Y39950D01*
X809990Y39950D01*
X809983Y39953D01*
X809975Y39956D01*
X809969Y39961D01*
X809963Y39966D01*
X809958Y39973D01*
X809954Y39980D01*
X809951Y39988D01*
X809950Y39996D01*
X809950Y40004D01*
X809951Y40012D01*
X809954Y40020D01*
X809958Y40027D01*
X809963Y40033D01*
X809969Y40039D01*
X809975Y40044D01*
X809983Y40047D01*
X809990Y40049D01*
X809999Y40050D01*
X810007Y40050D01*
D02*
G37*
G36*
X829179Y40000D02*
X828430Y39251D01*
X827174D01*
Y40749D01*
X828430D01*
X829179Y40000D01*
D02*
G37*
G36*
X818499Y39251D02*
X817243D01*
X816494Y40000D01*
X817243Y40749D01*
X818499D01*
Y39251D01*
D02*
G37*
G36*
X80851Y52287D02*
X80902Y52277D01*
X80952Y52260D01*
X80999Y52237D01*
X81042Y52208D01*
X81082Y52173D01*
X81116Y52134D01*
X81146Y52090D01*
X81169Y52043D01*
X81186Y51993D01*
X81196Y51942D01*
X81199Y51890D01*
Y35354D01*
X81196Y35302D01*
X81186Y35250D01*
X81169Y35201D01*
X81146Y35154D01*
X81116Y35110D01*
X81082Y35071D01*
X81042Y35036D01*
X80999Y35007D01*
X80952Y34984D01*
X80902Y34967D01*
X80851Y34957D01*
X80798Y34953D01*
X74499D01*
X74447Y34957D01*
X74396Y34967D01*
X74346Y34984D01*
X74299Y35007D01*
X74255Y35036D01*
X74216Y35071D01*
X74181Y35110D01*
X74152Y35154D01*
X74129Y35201D01*
X74112Y35250D01*
X74102Y35302D01*
X74098Y35354D01*
Y51890D01*
X74102Y51942D01*
X74112Y51993D01*
X74129Y52043D01*
X74152Y52090D01*
X74181Y52134D01*
X74216Y52173D01*
X74255Y52208D01*
X74299Y52237D01*
X74346Y52260D01*
X74396Y52277D01*
X74447Y52287D01*
X74499Y52290D01*
X80798D01*
X80851Y52287D01*
D02*
G37*
G36*
X70851D02*
X70902Y52277D01*
X70952Y52260D01*
X70999Y52237D01*
X71042Y52208D01*
X71082Y52173D01*
X71116Y52134D01*
X71145Y52090D01*
X71169Y52043D01*
X71185Y51993D01*
X71196Y51942D01*
X71199Y51890D01*
Y35354D01*
X71196Y35302D01*
X71185Y35250D01*
X71169Y35201D01*
X71145Y35154D01*
X71116Y35110D01*
X71082Y35071D01*
X71042Y35036D01*
X70999Y35007D01*
X70952Y34984D01*
X70902Y34967D01*
X70851Y34957D01*
X70798Y34953D01*
X64499D01*
X64447Y34957D01*
X64396Y34967D01*
X64346Y34984D01*
X64299Y35007D01*
X64255Y35036D01*
X64216Y35071D01*
X64181Y35110D01*
X64152Y35154D01*
X64129Y35201D01*
X64112Y35250D01*
X64102Y35302D01*
X64099Y35354D01*
Y51890D01*
X64102Y51942D01*
X64112Y51993D01*
X64129Y52043D01*
X64152Y52090D01*
X64181Y52134D01*
X64216Y52173D01*
X64255Y52208D01*
X64299Y52237D01*
X64346Y52260D01*
X64396Y52277D01*
X64447Y52287D01*
X64499Y52290D01*
X70798D01*
X70851Y52287D01*
D02*
G37*
G36*
X60851D02*
X60902Y52277D01*
X60952Y52260D01*
X60999Y52237D01*
X61042Y52208D01*
X61082Y52173D01*
X61116Y52134D01*
X61146Y52090D01*
X61169Y52043D01*
X61185Y51993D01*
X61196Y51942D01*
X61199Y51890D01*
Y35354D01*
X61196Y35302D01*
X61185Y35250D01*
X61169Y35201D01*
X61146Y35154D01*
X61116Y35110D01*
X61082Y35071D01*
X61042Y35036D01*
X60999Y35007D01*
X60952Y34984D01*
X60902Y34967D01*
X60851Y34957D01*
X60798Y34953D01*
X54499D01*
X54447Y34957D01*
X54396Y34967D01*
X54346Y34984D01*
X54299Y35007D01*
X54255Y35036D01*
X54216Y35071D01*
X54181Y35110D01*
X54152Y35154D01*
X54129Y35201D01*
X54112Y35250D01*
X54102Y35302D01*
X54098Y35354D01*
Y51890D01*
X54102Y51942D01*
X54112Y51993D01*
X54129Y52043D01*
X54152Y52090D01*
X54181Y52134D01*
X54216Y52173D01*
X54255Y52208D01*
X54299Y52237D01*
X54346Y52260D01*
X54396Y52277D01*
X54447Y52287D01*
X54499Y52290D01*
X60798D01*
X60851Y52287D01*
D02*
G37*
G36*
X50851D02*
X50902Y52277D01*
X50952Y52260D01*
X50999Y52237D01*
X51042Y52208D01*
X51082Y52173D01*
X51116Y52134D01*
X51145Y52090D01*
X51169Y52043D01*
X51186Y51993D01*
X51196Y51942D01*
X51199Y51890D01*
Y35354D01*
X51196Y35302D01*
X51186Y35250D01*
X51169Y35201D01*
X51145Y35154D01*
X51116Y35110D01*
X51082Y35071D01*
X51042Y35036D01*
X50999Y35007D01*
X50952Y34984D01*
X50902Y34967D01*
X50851Y34957D01*
X50798Y34953D01*
X44499D01*
X44447Y34957D01*
X44396Y34967D01*
X44346Y34984D01*
X44299Y35007D01*
X44255Y35036D01*
X44216Y35071D01*
X44181Y35110D01*
X44152Y35154D01*
X44129Y35201D01*
X44112Y35250D01*
X44102Y35302D01*
X44098Y35354D01*
Y51890D01*
X44102Y51942D01*
X44112Y51993D01*
X44129Y52043D01*
X44152Y52090D01*
X44181Y52134D01*
X44216Y52173D01*
X44255Y52208D01*
X44299Y52237D01*
X44346Y52260D01*
X44396Y52277D01*
X44447Y52287D01*
X44499Y52290D01*
X50798D01*
X50851Y52287D01*
D02*
G37*
G36*
X40851D02*
X40902Y52277D01*
X40952Y52260D01*
X40999Y52237D01*
X41042Y52208D01*
X41082Y52173D01*
X41116Y52134D01*
X41146Y52090D01*
X41169Y52043D01*
X41186Y51993D01*
X41196Y51942D01*
X41199Y51890D01*
Y35354D01*
X41196Y35302D01*
X41186Y35250D01*
X41169Y35201D01*
X41146Y35154D01*
X41116Y35110D01*
X41082Y35071D01*
X41042Y35036D01*
X40999Y35007D01*
X40952Y34984D01*
X40902Y34967D01*
X40851Y34957D01*
X40798Y34953D01*
X34499D01*
X34447Y34957D01*
X34396Y34967D01*
X34346Y34984D01*
X34299Y35007D01*
X34255Y35036D01*
X34216Y35071D01*
X34181Y35110D01*
X34152Y35154D01*
X34129Y35201D01*
X34112Y35250D01*
X34102Y35302D01*
X34099Y35354D01*
Y51890D01*
X34102Y51942D01*
X34112Y51993D01*
X34129Y52043D01*
X34152Y52090D01*
X34181Y52134D01*
X34216Y52173D01*
X34255Y52208D01*
X34299Y52237D01*
X34346Y52260D01*
X34396Y52277D01*
X34447Y52287D01*
X34499Y52290D01*
X40798D01*
X40851Y52287D01*
D02*
G37*
G36*
X30851D02*
X30902Y52277D01*
X30952Y52260D01*
X30999Y52237D01*
X31042Y52208D01*
X31082Y52173D01*
X31116Y52134D01*
X31146Y52090D01*
X31169Y52043D01*
X31185Y51993D01*
X31196Y51942D01*
X31199Y51890D01*
Y35354D01*
X31196Y35302D01*
X31185Y35250D01*
X31169Y35201D01*
X31146Y35154D01*
X31116Y35110D01*
X31082Y35071D01*
X31042Y35036D01*
X30999Y35007D01*
X30952Y34984D01*
X30902Y34967D01*
X30851Y34957D01*
X30798Y34953D01*
X24499D01*
X24447Y34957D01*
X24396Y34967D01*
X24346Y34984D01*
X24299Y35007D01*
X24255Y35036D01*
X24216Y35071D01*
X24181Y35110D01*
X24152Y35154D01*
X24129Y35201D01*
X24112Y35250D01*
X24102Y35302D01*
X24099Y35354D01*
Y51890D01*
X24102Y51942D01*
X24112Y51993D01*
X24129Y52043D01*
X24152Y52090D01*
X24181Y52134D01*
X24216Y52173D01*
X24255Y52208D01*
X24299Y52237D01*
X24346Y52260D01*
X24396Y52277D01*
X24447Y52287D01*
X24499Y52290D01*
X30798D01*
X30851Y52287D01*
D02*
G37*
G36*
X20851D02*
X20902Y52277D01*
X20952Y52260D01*
X20999Y52237D01*
X21042Y52208D01*
X21082Y52173D01*
X21116Y52134D01*
X21146Y52090D01*
X21169Y52043D01*
X21185Y51993D01*
X21196Y51942D01*
X21199Y51890D01*
Y35354D01*
X21196Y35302D01*
X21185Y35250D01*
X21169Y35201D01*
X21146Y35154D01*
X21116Y35110D01*
X21082Y35071D01*
X21042Y35036D01*
X20999Y35007D01*
X20952Y34984D01*
X20902Y34967D01*
X20851Y34957D01*
X20798Y34953D01*
X14499D01*
X14447Y34957D01*
X14396Y34967D01*
X14346Y34984D01*
X14299Y35007D01*
X14255Y35036D01*
X14216Y35071D01*
X14181Y35110D01*
X14152Y35154D01*
X14129Y35201D01*
X14112Y35250D01*
X14102Y35302D01*
X14098Y35354D01*
Y51890D01*
X14102Y51942D01*
X14112Y51993D01*
X14129Y52043D01*
X14152Y52090D01*
X14181Y52134D01*
X14216Y52173D01*
X14255Y52208D01*
X14299Y52237D01*
X14346Y52260D01*
X14396Y52277D01*
X14447Y52287D01*
X14499Y52290D01*
X20798D01*
X20851Y52287D01*
D02*
G37*
G36*
X835683Y30049D02*
X835691Y30047D01*
X835699Y30044D01*
X835705Y30039D01*
X835711Y30033D01*
X835716Y30027D01*
X835720Y30020D01*
X835722Y30012D01*
X835724Y30004D01*
X835724Y29996D01*
X835722Y29988D01*
X835720Y29980D01*
X835716Y29973D01*
X835711Y29967D01*
X835705Y29961D01*
X835699Y29956D01*
X835691Y29953D01*
X835683Y29951D01*
X835675Y29950D01*
X835667Y29950D01*
X835659Y29952D01*
X835652Y29954D01*
X835645Y29959D01*
X835638Y29964D01*
X835633Y29970D01*
X835629Y29977D01*
X835625Y29984D01*
X835625Y29988D01*
X835621Y30000D01*
X835625Y30012D01*
X835625Y30016D01*
X835629Y30023D01*
X835633Y30030D01*
X835638Y30036D01*
X835645Y30041D01*
X835652Y30046D01*
X835659Y30048D01*
X835667Y30050D01*
X835675Y30050D01*
X835683Y30049D01*
D02*
G37*
G36*
X810007Y30050D02*
X810015Y30048D01*
X810022Y30046D01*
X810029Y30041D01*
X810036Y30036D01*
X810041Y30030D01*
X810045Y30023D01*
X810048Y30016D01*
X810049Y30012D01*
X810052Y30000D01*
X810049Y29988D01*
X810048Y29984D01*
X810045Y29977D01*
X810041Y29970D01*
X810036Y29964D01*
X810029Y29959D01*
X810022Y29954D01*
X810015Y29952D01*
X810007Y29950D01*
X809999Y29950D01*
X809990Y29950D01*
X809983Y29953D01*
X809975Y29956D01*
X809969Y29961D01*
X809963Y29967D01*
X809958Y29973D01*
X809954Y29980D01*
X809951Y29988D01*
X809950Y29996D01*
X809950Y30004D01*
X809951Y30012D01*
X809954Y30020D01*
X809958Y30027D01*
X809963Y30033D01*
X809969Y30039D01*
X809975Y30044D01*
X809983Y30047D01*
X809990Y30049D01*
X809999Y30050D01*
X810007Y30050D01*
D02*
G37*
G36*
X829179Y30000D02*
X828430Y29251D01*
X827174D01*
Y30749D01*
X828430D01*
X829179Y30000D01*
D02*
G37*
G36*
X818499Y29251D02*
X817243D01*
X816494Y30000D01*
X817243Y30749D01*
X818499D01*
Y29251D01*
D02*
G37*
D26*
X299224Y50522D02*
D03*
Y57028D02*
D03*
X727701Y129236D02*
D03*
Y122731D02*
D03*
D27*
X691499Y62170D02*
D03*
X698004D02*
D03*
X703886Y150000D02*
D03*
X710392D02*
D03*
D29*
X266142Y72835D02*
D03*
X237795D02*
D03*
X266142Y42835D02*
D03*
X237795D02*
D03*
X266142Y102835D02*
D03*
X237795D02*
D03*
Y114646D02*
D03*
X266142D02*
D03*
X237795Y84646D02*
D03*
X266142D02*
D03*
Y54646D02*
D03*
X237795D02*
D03*
D30*
X276063Y64567D02*
D03*
Y92913D02*
D03*
X216063Y64567D02*
D03*
Y92913D02*
D03*
X287874Y64567D02*
D03*
Y92913D02*
D03*
X227874D02*
D03*
Y64567D02*
D03*
D31*
X718934Y109534D02*
D03*
X680956Y109683D02*
D03*
X718934Y117801D02*
D03*
X680956Y117951D02*
D03*
D33*
X399286Y95740D02*
G03*
X399286Y95740I-2000J0D01*
G01*
Y70067D02*
G03*
X399286Y70067I-2000J0D01*
G01*
X465624Y103740D02*
G03*
X465624Y103740I-2000J0D01*
G01*
X439951D02*
G03*
X439951Y103740I-2000J0D01*
G01*
X465624Y93740D02*
G03*
X465624Y93740I-2000J0D01*
G01*
X439951D02*
G03*
X439951Y93740I-2000J0D01*
G01*
X465624Y83740D02*
G03*
X465624Y83740I-2000J0D01*
G01*
X439951D02*
G03*
X439951Y83740I-2000J0D01*
G01*
X465624Y73740D02*
G03*
X465624Y73740I-2000J0D01*
G01*
X439951D02*
G03*
X439951Y73740I-2000J0D01*
G01*
X465624Y63740D02*
G03*
X465624Y63740I-2000J0D01*
G01*
X439951D02*
G03*
X439951Y63740I-2000J0D01*
G01*
X465624Y53740D02*
G03*
X465624Y53740I-2000J0D01*
G01*
X439951D02*
G03*
X439951Y53740I-2000J0D01*
G01*
X672000Y100000D02*
G03*
X672000Y100000I-2000J0D01*
G01*
Y125673D02*
G03*
X672000Y125673I-2000J0D01*
G01*
X662000Y100000D02*
G03*
X662000Y100000I-2000J0D01*
G01*
Y125673D02*
G03*
X662000Y125673I-2000J0D01*
G01*
X652000Y100000D02*
G03*
X652000Y100000I-2000J0D01*
G01*
Y125673D02*
G03*
X652000Y125673I-2000J0D01*
G01*
X642000Y100000D02*
G03*
X642000Y100000I-2000J0D01*
G01*
Y125673D02*
G03*
X642000Y125673I-2000J0D01*
G01*
X632000Y100000D02*
G03*
X632000Y100000I-2000J0D01*
G01*
Y125673D02*
G03*
X632000Y125673I-2000J0D01*
G01*
X622000Y100000D02*
G03*
X622000Y100000I-2000J0D01*
G01*
Y125673D02*
G03*
X622000Y125673I-2000J0D01*
G01*
X612000Y100000D02*
G03*
X612000Y100000I-2000J0D01*
G01*
Y125673D02*
G03*
X612000Y125673I-2000J0D01*
G01*
X602000Y100000D02*
G03*
X602000Y100000I-2000J0D01*
G01*
Y125673D02*
G03*
X602000Y125673I-2000J0D01*
G01*
X592000Y100000D02*
G03*
X592000Y100000I-2000J0D01*
G01*
Y125673D02*
G03*
X592000Y125673I-2000J0D01*
G01*
X582000Y100000D02*
G03*
X582000Y100000I-2000J0D01*
G01*
Y125673D02*
G03*
X582000Y125673I-2000J0D01*
G01*
X512000Y125673D02*
G03*
X512000Y125673I-2000J0D01*
G01*
Y100000D02*
G03*
X512000Y100000I-2000J0D01*
G01*
X812000Y140001D02*
G03*
X812000Y140001I-2000J0D01*
G01*
X837673D02*
G03*
X837673Y140001I-2000J0D01*
G01*
X812000Y150001D02*
G03*
X812000Y150001I-2000J0D01*
G01*
X837673D02*
G03*
X837673Y150001I-2000J0D01*
G01*
X572000Y100000D02*
G03*
X572000Y100000I-2000J0D01*
G01*
Y125673D02*
G03*
X572000Y125673I-2000J0D01*
G01*
X522000Y125673D02*
G03*
X522000Y125673I-2000J0D01*
G01*
Y100000D02*
G03*
X522000Y100000I-2000J0D01*
G01*
X542000Y125673D02*
G03*
X542000Y125673I-2000J0D01*
G01*
Y100000D02*
G03*
X542000Y100000I-2000J0D01*
G01*
X552000Y125673D02*
G03*
X552000Y125673I-2000J0D01*
G01*
Y100000D02*
G03*
X552000Y100000I-2000J0D01*
G01*
X562000D02*
G03*
X562000Y100000I-2000J0D01*
G01*
Y125673D02*
G03*
X562000Y125673I-2000J0D01*
G01*
X532000D02*
G03*
X532000Y125673I-2000J0D01*
G01*
Y100000D02*
G03*
X532000Y100000I-2000J0D01*
G01*
X837673Y30000D02*
G03*
X837673Y30000I-2000J0D01*
G01*
X812000D02*
G03*
X812000Y30000I-2000J0D01*
G01*
X837673Y90000D02*
G03*
X837673Y90000I-2000J0D01*
G01*
X812000D02*
G03*
X812000Y90000I-2000J0D01*
G01*
X837673Y110000D02*
G03*
X837673Y110000I-2000J0D01*
G01*
X812000D02*
G03*
X812000Y110000I-2000J0D01*
G01*
X837673Y130000D02*
G03*
X837673Y130000I-2000J0D01*
G01*
X812000D02*
G03*
X812000Y130000I-2000J0D01*
G01*
Y40000D02*
G03*
X812000Y40000I-2000J0D01*
G01*
X837673D02*
G03*
X837673Y40000I-2000J0D01*
G01*
X812000Y50000D02*
G03*
X812000Y50000I-2000J0D01*
G01*
X837673D02*
G03*
X837673Y50000I-2000J0D01*
G01*
X812000Y60000D02*
G03*
X812000Y60000I-2000J0D01*
G01*
X837673D02*
G03*
X837673Y60000I-2000J0D01*
G01*
X812000Y70000D02*
G03*
X812000Y70000I-2000J0D01*
G01*
X837673D02*
G03*
X837673Y70000I-2000J0D01*
G01*
X812000Y80000D02*
G03*
X812000Y80000I-2000J0D01*
G01*
X837673D02*
G03*
X837673Y80000I-2000J0D01*
G01*
X812000Y100000D02*
G03*
X812000Y100000I-2000J0D01*
G01*
X837673D02*
G03*
X837673Y100000I-2000J0D01*
G01*
X812000Y120000D02*
G03*
X812000Y120000I-2000J0D01*
G01*
X837673D02*
G03*
X837673Y120000I-2000J0D01*
G01*
D34*
X397286Y87115D02*
D03*
Y78692D02*
D03*
X670000Y108625D02*
D03*
Y117048D02*
D03*
X660000Y108625D02*
D03*
Y117048D02*
D03*
X650000Y108625D02*
D03*
Y117048D02*
D03*
X640000Y108625D02*
D03*
Y117048D02*
D03*
X630000Y108625D02*
D03*
Y117048D02*
D03*
X620000Y108625D02*
D03*
Y117048D02*
D03*
X610000Y108625D02*
D03*
Y117048D02*
D03*
X600000Y108625D02*
D03*
Y117048D02*
D03*
X590000Y108625D02*
D03*
Y117048D02*
D03*
X580000Y108625D02*
D03*
Y117048D02*
D03*
X510000Y117049D02*
D03*
Y108626D02*
D03*
X570000Y108625D02*
D03*
Y117048D02*
D03*
X520000Y117048D02*
D03*
Y108624D02*
D03*
X540000Y117048D02*
D03*
Y108624D02*
D03*
X550000Y117047D02*
D03*
Y108624D02*
D03*
X560000Y108624D02*
D03*
Y117047D02*
D03*
X530000Y117047D02*
D03*
Y108624D02*
D03*
D35*
X397286Y82903D02*
D03*
X450787Y103740D02*
D03*
Y93740D02*
D03*
Y83740D02*
D03*
Y73740D02*
D03*
Y63740D02*
D03*
Y53740D02*
D03*
X670000Y112837D02*
D03*
X660000D02*
D03*
X650000D02*
D03*
X640000D02*
D03*
X630000D02*
D03*
X620000D02*
D03*
X610000D02*
D03*
X600000D02*
D03*
X590000D02*
D03*
X580000D02*
D03*
X510000Y112837D02*
D03*
X822837Y140001D02*
D03*
Y150001D02*
D03*
X570000Y112837D02*
D03*
X520000Y112836D02*
D03*
X540000Y112836D02*
D03*
X550000Y112836D02*
D03*
X560000Y112836D02*
D03*
X530000Y112836D02*
D03*
X822837Y30000D02*
D03*
X822834Y90000D02*
D03*
Y110000D02*
D03*
Y130000D02*
D03*
X822837Y40000D02*
D03*
Y50000D02*
D03*
Y60000D02*
D03*
Y70000D02*
D03*
Y80000D02*
D03*
Y100000D02*
D03*
Y120000D02*
D03*
D36*
X454999Y103740D02*
D03*
X446576D02*
D03*
X454999Y93740D02*
D03*
X446576D02*
D03*
X454999Y83740D02*
D03*
X446576D02*
D03*
X454999Y73740D02*
D03*
X446576D02*
D03*
X454999Y63740D02*
D03*
X446576D02*
D03*
X454999Y53740D02*
D03*
X446576D02*
D03*
X818625Y140001D02*
D03*
X827048D02*
D03*
X818625Y150001D02*
D03*
X827048D02*
D03*
Y30000D02*
D03*
X818625D02*
D03*
X827046Y90000D02*
D03*
X818623D02*
D03*
X827046Y110000D02*
D03*
X818623D02*
D03*
X827046Y130000D02*
D03*
X818623D02*
D03*
X818625Y40000D02*
D03*
X827048D02*
D03*
X818625Y50000D02*
D03*
X827048D02*
D03*
X818625Y60000D02*
D03*
X827048D02*
D03*
X818625Y70000D02*
D03*
X827048D02*
D03*
X818625Y80000D02*
D03*
X827048D02*
D03*
X818625Y100000D02*
D03*
X827048D02*
D03*
X818625Y120000D02*
D03*
X827048D02*
D03*
D37*
X356102Y42244D02*
D03*
X336811Y55236D02*
D03*
Y42244D02*
D03*
X356102Y55236D02*
D03*
Y85236D02*
D03*
X336811Y72244D02*
D03*
Y85236D02*
D03*
X356102Y72244D02*
D03*
Y115236D02*
D03*
X336811Y102244D02*
D03*
Y115236D02*
D03*
X356102Y102244D02*
D03*
D38*
X647027Y61088D02*
D03*
Y51088D02*
D03*
X654527D02*
D03*
X662027D02*
D03*
X639527D02*
D03*
X647027Y56088D02*
D03*
X654527D02*
D03*
X662027D02*
D03*
X639527D02*
D03*
X654527Y61088D02*
D03*
X662027D02*
D03*
X639527D02*
D03*
X647027Y66088D02*
D03*
X654527D02*
D03*
X662027D02*
D03*
X639527D02*
D03*
X647027Y81088D02*
D03*
X654527D02*
D03*
Y76088D02*
D03*
X647027Y71088D02*
D03*
Y76088D02*
D03*
X654527Y71088D02*
D03*
X662027Y76088D02*
D03*
Y81088D02*
D03*
Y71088D02*
D03*
X639527Y81088D02*
D03*
Y76088D02*
D03*
Y71088D02*
D03*
D39*
X649527Y51088D02*
D03*
X657027D02*
D03*
X664527D02*
D03*
X642027D02*
D03*
X649527Y56088D02*
D03*
X657027D02*
D03*
X664527D02*
D03*
X642027D02*
D03*
X649527Y61088D02*
D03*
X657027D02*
D03*
X664527D02*
D03*
X642027D02*
D03*
X649527Y66088D02*
D03*
X657027D02*
D03*
X664527D02*
D03*
X642027D02*
D03*
X657027Y81088D02*
D03*
X642027D02*
D03*
X649527D02*
D03*
X657027Y76088D02*
D03*
X649527Y71088D02*
D03*
Y76088D02*
D03*
X657027Y71088D02*
D03*
X664527Y81088D02*
D03*
Y76088D02*
D03*
Y71088D02*
D03*
X642027D02*
D03*
Y76088D02*
D03*
D40*
X652027Y51088D02*
D03*
X659527D02*
D03*
X667027D02*
D03*
X644527D02*
D03*
X637027D02*
D03*
X652027Y56088D02*
D03*
X659527D02*
D03*
X667027D02*
D03*
X644527D02*
D03*
X637027D02*
D03*
X652027Y61088D02*
D03*
X659527D02*
D03*
X667027D02*
D03*
X644527D02*
D03*
X637027D02*
D03*
X652027Y66088D02*
D03*
X659527D02*
D03*
X667027D02*
D03*
X644527D02*
D03*
X637027D02*
D03*
X652027Y81088D02*
D03*
X644527D02*
D03*
X652027Y76088D02*
D03*
Y71088D02*
D03*
X659527Y81088D02*
D03*
X667027Y76088D02*
D03*
Y81088D02*
D03*
X659527Y76088D02*
D03*
Y71088D02*
D03*
X667027D02*
D03*
X637027Y81088D02*
D03*
X644527Y76088D02*
D03*
X637027D02*
D03*
X644527Y71088D02*
D03*
X637027D02*
D03*
D41*
X627027Y81088D02*
D03*
Y76088D02*
D03*
Y71088D02*
D03*
X612027Y81088D02*
D03*
X597027D02*
D03*
X612027Y76088D02*
D03*
X597027D02*
D03*
X612027Y71088D02*
D03*
X597027D02*
D03*
X582027Y76088D02*
D03*
Y71088D02*
D03*
Y81088D02*
D03*
X627027Y66088D02*
D03*
X612027D02*
D03*
X597027D02*
D03*
X582027D02*
D03*
X627027Y61088D02*
D03*
X612027D02*
D03*
X597027D02*
D03*
X582027D02*
D03*
X627027Y56088D02*
D03*
X612027D02*
D03*
X597027D02*
D03*
X582027D02*
D03*
X627027Y51088D02*
D03*
X612027D02*
D03*
X597027D02*
D03*
X582027D02*
D03*
D42*
X622027Y81088D02*
D03*
Y76088D02*
D03*
Y71088D02*
D03*
X607027Y81088D02*
D03*
X592027D02*
D03*
X607027Y76088D02*
D03*
X592027D02*
D03*
X607027Y71088D02*
D03*
X592027D02*
D03*
X577027Y76088D02*
D03*
Y81088D02*
D03*
Y71088D02*
D03*
X622027Y66088D02*
D03*
X607027D02*
D03*
X592027D02*
D03*
X577027D02*
D03*
X622027Y61088D02*
D03*
X607027D02*
D03*
X592027D02*
D03*
X577027D02*
D03*
X622027Y56088D02*
D03*
X607027D02*
D03*
X592027D02*
D03*
X577027D02*
D03*
X622027Y51088D02*
D03*
X607027D02*
D03*
X592027D02*
D03*
X577027D02*
D03*
D43*
X617027Y81088D02*
D03*
Y76088D02*
D03*
Y71088D02*
D03*
X602027Y81088D02*
D03*
Y76088D02*
D03*
Y71088D02*
D03*
X587027Y76088D02*
D03*
Y71088D02*
D03*
Y81088D02*
D03*
X617027Y66088D02*
D03*
X602027D02*
D03*
X587027D02*
D03*
X617027Y61088D02*
D03*
X602027D02*
D03*
X587027D02*
D03*
X617027Y56088D02*
D03*
X602027D02*
D03*
X587027D02*
D03*
X617027Y51088D02*
D03*
X602027D02*
D03*
X587027D02*
D03*
D44*
X572027Y81088D02*
D03*
Y71088D02*
D03*
Y76088D02*
D03*
Y66088D02*
D03*
Y61088D02*
D03*
Y56088D02*
D03*
Y51088D02*
D03*
X632027Y56088D02*
D03*
Y76088D02*
D03*
Y66088D02*
D03*
Y61088D02*
D03*
Y71088D02*
D03*
Y81088D02*
D03*
Y51088D02*
D03*
D45*
X745876Y136065D02*
D03*
X741938D02*
D03*
X734064D02*
D03*
X738001D02*
D03*
D46*
X728946Y151321D02*
D03*
X750994D02*
D03*
D47*
X57802Y26256D02*
D03*
X17649Y32256D02*
D03*
Y26256D02*
D03*
X27502Y32256D02*
D03*
Y26256D02*
D03*
X37602Y32256D02*
D03*
Y26256D02*
D03*
X57802Y32256D02*
D03*
X67902D02*
D03*
Y26256D02*
D03*
X47702Y32256D02*
D03*
Y26256D02*
D03*
X47550Y126000D02*
D03*
Y132000D02*
D03*
X57667Y126000D02*
D03*
Y132000D02*
D03*
X67785Y126000D02*
D03*
Y132000D02*
D03*
D48*
X7500Y31000D02*
D03*
X32327Y149964D02*
D03*
X36073Y142372D02*
D03*
X25595Y152738D02*
D03*
D49*
X94968Y117098D02*
D03*
X88968D02*
D03*
X95000Y41402D02*
D03*
X89000D02*
D03*
D50*
X322953Y69095D02*
D03*
X309961Y88386D02*
D03*
X322953D02*
D03*
X309961Y69095D02*
D03*
X382953D02*
D03*
X369961Y88386D02*
D03*
X382953D02*
D03*
X369961Y69095D02*
D03*
D51*
X680392Y134413D02*
D03*
X718370Y133630D02*
D03*
Y126543D02*
D03*
X680392Y127326D02*
D03*
D52*
X9588Y140060D02*
D03*
D53*
Y147934D02*
D03*
D54*
X46456Y60551D02*
D03*
X38582D02*
D03*
X479843Y73740D02*
D03*
Y53740D02*
D03*
Y63740D02*
D03*
Y83740D02*
D03*
Y93740D02*
D03*
X490827Y53740D02*
D03*
Y83740D02*
D03*
Y73740D02*
D03*
Y63740D02*
D03*
Y93740D02*
D03*
X780000Y70000D02*
D03*
X790000Y70000D02*
D03*
X700000Y80000D02*
D03*
Y90000D02*
D03*
Y110000D02*
D03*
Y140000D02*
D03*
Y120000D02*
D03*
Y130000D02*
D03*
Y100000D02*
D03*
X690000Y140000D02*
D03*
Y130000D02*
D03*
Y100000D02*
D03*
Y90000D02*
D03*
Y120000D02*
D03*
Y110000D02*
D03*
Y80000D02*
D03*
X780000Y120000D02*
D03*
X790000Y120000D02*
D03*
Y80000D02*
D03*
X780000Y80000D02*
D03*
X789991Y129977D02*
D03*
X779990Y129977D02*
D03*
X710000Y130000D02*
D03*
Y100000D02*
D03*
Y140000D02*
D03*
Y120000D02*
D03*
Y110000D02*
D03*
Y90000D02*
D03*
Y80000D02*
D03*
X780000Y110000D02*
D03*
Y100000D02*
D03*
Y90000D02*
D03*
Y60000D02*
D03*
Y50000D02*
D03*
Y40000D02*
D03*
X850000Y150000D02*
D03*
Y140000D02*
D03*
Y130000D02*
D03*
Y120000D02*
D03*
Y110000D02*
D03*
Y100000D02*
D03*
Y90000D02*
D03*
Y80000D02*
D03*
Y70000D02*
D03*
Y60000D02*
D03*
Y50000D02*
D03*
Y40000D02*
D03*
X580000Y140000D02*
D03*
X590000D02*
D03*
X600000D02*
D03*
X610000D02*
D03*
X620000D02*
D03*
X630000D02*
D03*
X640000D02*
D03*
X650000D02*
D03*
X660000D02*
D03*
X669977Y140010D02*
D03*
X790000Y90000D02*
D03*
Y60000D02*
D03*
Y50000D02*
D03*
Y40000D02*
D03*
Y100000D02*
D03*
Y110000D02*
D03*
D55*
X479843Y103740D02*
D03*
X490827D02*
D03*
X700000Y70000D02*
D03*
X690000D02*
D03*
X710000D02*
D03*
X780000Y30000D02*
D03*
X850000Y30000D02*
D03*
X790000D02*
D03*
D56*
X383764Y123740D02*
D03*
X477858D02*
D03*
X212246Y124883D02*
D03*
X199647Y94489D02*
D03*
X179647Y68387D02*
D03*
X153545Y48387D02*
D03*
X123151Y35788D02*
D03*
X90553Y31497D02*
D03*
D57*
X570000Y140000D02*
D03*
M02*
