G04*
G04 #@! TF.GenerationSoftware,Altium Limited,Altium Designer,25.8.1 (18)*
G04*
G04 Layer_Color=16711935*
%FSLAX25Y25*%
%MOIN*%
G70*
G04*
G04 #@! TF.SameCoordinates,0860631F-499F-4A24-BE49-AF4253F314F7*
G04*
G04*
G04 #@! TF.FilePolarity,Negative*
G04*
G01*
G75*
%ADD52C,0.05524*%
%ADD53R,0.05524X0.05524*%
%ADD54C,0.06902*%
%ADD55R,0.06902X0.06902*%
%ADD56C,0.00800*%
%ADD57R,0.06902X0.06902*%
%ADD72R,0.07099X0.07099*%
D52*
X9588Y140060D02*
D03*
D53*
Y147934D02*
D03*
D54*
X46456Y60551D02*
D03*
X38582D02*
D03*
X479843Y73740D02*
D03*
Y53740D02*
D03*
Y63740D02*
D03*
Y83740D02*
D03*
Y93740D02*
D03*
X490827Y53740D02*
D03*
Y83740D02*
D03*
Y73740D02*
D03*
Y63740D02*
D03*
Y93740D02*
D03*
X780000Y70000D02*
D03*
X790000Y70000D02*
D03*
X670000Y100000D02*
D03*
Y125673D02*
D03*
X660000Y100000D02*
D03*
Y125673D02*
D03*
X650000Y100000D02*
D03*
Y125673D02*
D03*
X640000Y100000D02*
D03*
Y125673D02*
D03*
X630000Y100000D02*
D03*
Y125673D02*
D03*
X620000Y100000D02*
D03*
Y125673D02*
D03*
X610000Y100000D02*
D03*
Y125673D02*
D03*
X600000Y100000D02*
D03*
Y125673D02*
D03*
X590000Y100000D02*
D03*
Y125673D02*
D03*
X580000Y100000D02*
D03*
Y125673D02*
D03*
X700000Y80000D02*
D03*
Y90000D02*
D03*
Y110000D02*
D03*
Y140000D02*
D03*
Y120000D02*
D03*
Y130000D02*
D03*
Y100000D02*
D03*
X510000Y125673D02*
D03*
X690000Y140000D02*
D03*
Y130000D02*
D03*
Y100000D02*
D03*
Y90000D02*
D03*
Y120000D02*
D03*
Y110000D02*
D03*
Y80000D02*
D03*
X510000Y100000D02*
D03*
X780000Y120000D02*
D03*
X790000Y120000D02*
D03*
Y80000D02*
D03*
X780000Y80000D02*
D03*
X789991Y129977D02*
D03*
X779990Y129977D02*
D03*
X550000Y125673D02*
D03*
X520000D02*
D03*
X560000D02*
D03*
X540000D02*
D03*
X530000D02*
D03*
X710000Y130000D02*
D03*
Y100000D02*
D03*
Y140000D02*
D03*
Y120000D02*
D03*
Y110000D02*
D03*
Y90000D02*
D03*
Y80000D02*
D03*
X780000Y110000D02*
D03*
Y100000D02*
D03*
Y90000D02*
D03*
Y60000D02*
D03*
Y50000D02*
D03*
Y40000D02*
D03*
X850000Y150000D02*
D03*
Y140000D02*
D03*
Y130000D02*
D03*
Y120000D02*
D03*
Y110000D02*
D03*
Y100000D02*
D03*
Y90000D02*
D03*
Y80000D02*
D03*
Y70000D02*
D03*
Y60000D02*
D03*
Y50000D02*
D03*
Y40000D02*
D03*
X810000Y140001D02*
D03*
X835673D02*
D03*
X810000Y150001D02*
D03*
X835673D02*
D03*
X570000Y100000D02*
D03*
Y125673D02*
D03*
X520000Y100000D02*
D03*
X540000D02*
D03*
X550000D02*
D03*
X560000D02*
D03*
X530000D02*
D03*
X835673Y30000D02*
D03*
X810000D02*
D03*
X580000Y140000D02*
D03*
X590000D02*
D03*
X600000D02*
D03*
X610000D02*
D03*
X620000D02*
D03*
X630000D02*
D03*
X640000D02*
D03*
X650000D02*
D03*
X660000D02*
D03*
X669977Y140010D02*
D03*
X835673Y90000D02*
D03*
X810000D02*
D03*
X835673Y110000D02*
D03*
X810000D02*
D03*
X835673Y130000D02*
D03*
X810000D02*
D03*
X790000Y90000D02*
D03*
Y60000D02*
D03*
Y50000D02*
D03*
Y40000D02*
D03*
Y100000D02*
D03*
Y110000D02*
D03*
X810000Y40000D02*
D03*
X835673D02*
D03*
X810000Y50000D02*
D03*
X835673D02*
D03*
X810000Y60000D02*
D03*
X835673D02*
D03*
X810000Y70000D02*
D03*
X835673D02*
D03*
X810000Y80000D02*
D03*
X835673D02*
D03*
X810000Y100000D02*
D03*
X835673D02*
D03*
X810000Y120000D02*
D03*
X835673D02*
D03*
D55*
X479843Y103740D02*
D03*
X490827D02*
D03*
X700000Y70000D02*
D03*
X690000D02*
D03*
X710000D02*
D03*
X780000Y30000D02*
D03*
X850000Y30000D02*
D03*
X790000D02*
D03*
D56*
X383764Y123740D02*
D03*
X477858D02*
D03*
X212246Y124883D02*
D03*
X199647Y94489D02*
D03*
X179647Y68387D02*
D03*
X153545Y48387D02*
D03*
X123151Y35788D02*
D03*
X90553Y31497D02*
D03*
D57*
X570000Y140000D02*
D03*
D72*
X17649Y48740D02*
D03*
X27649D02*
D03*
X37649D02*
D03*
X47649D02*
D03*
X57649D02*
D03*
X67649D02*
D03*
X77649D02*
D03*
Y108740D02*
D03*
X67649D02*
D03*
X57649D02*
D03*
X47649D02*
D03*
X37649D02*
D03*
X27649D02*
D03*
X17649D02*
D03*
M02*
