M48
;Layer_Color=9474304
;FILE_FORMAT=2:5
INCH,TZ
;TYPE=PLATED
T01F00S00C0.00800
T02F00S00C0.01000
T03F00S00C0.02756
T04F00S00C0.03937
T05F00S00C0.04000
T06F00S00C0.04016
;TYPE=NON_PLATED
T07F00S00C0.10630
T08F00S00C0.11900
%
T01
X728946Y151321
X750994
T02
X178919Y4875
X180307Y8475
X181927Y12029
X188136Y22825
X224454Y19239
X233506Y15675
X231939Y43016
X259879Y33675
X259911Y30075
X263842Y33675
X263810Y37275
X273000Y42500
X272777Y44541
X282000Y47500
X276637Y29975
X276670Y26375
X341500Y48500
X390104Y26425
X390136Y22825
X383895Y15629
X382275Y12075
X380886Y8475
X382349Y4875
X407287Y21039
X421913Y17505
X426454Y19239
X435506Y15675
X461911Y30075
X461879Y33675
X465842
X465810Y37275
X474646Y37275
X474614Y40875
X478637Y29975
X478670Y26375
X592103Y26425
X592135Y22825
X585895Y15629
X584275Y12075
X582886Y8475
X582919Y4875
X619024Y22839
X628454Y19239
X637506Y15675
X663879Y33675
X667810Y37275
X676614Y40875
X680637Y29975
X780000Y20000
X784755Y35492
X783484Y44802
X783500Y55000
X820000Y20000
X800000Y60000
X783500Y64500
X784000Y95000
X740000Y100000
X715500Y104500
X727500Y118000
X748000Y130000
X750000Y135000
X788924Y141931
X791203Y146752
X718500Y150000
X696000Y147000
X706000Y62000
X716000Y69000
X680000Y60000
X678000Y104500
X560000Y60000
X520000
X500000Y100000
X420000
X421343Y64389
X429992Y62548
X432000Y61000
X429500Y70000
X380000Y100000
X367500Y126500
X326000Y102000
X300000Y100000
X280000Y98500
X272000Y104000
X260000Y100000
X232000Y103000
X220000Y100000
X216000Y99500
Y58500
X240000Y60000
X238000Y67000
X266500
X276000Y58000
X299000Y62000
X320000Y60000
X160000
X180000Y100000
X100000
X94632Y121470
X95063Y144230
X90016Y140231
X85849Y136231
X60000Y100000
X80000Y60000
X42000Y139500
X35937Y147439
X25500Y148500
T03
X9588Y140060
Y147934
T04
X17649Y48740
X27649
X37649
X47649
X57649
X67649
X77649
Y108740
X67649
X57649
X47649
X37649
X27649
X17649
T05
X479843Y53740
X490827
X780000Y50000
Y40000
Y30000
X790000Y30000
Y40000
Y50000
X850000
Y40000
Y30000
Y60000
Y70000
Y80000
Y90000
Y100000
Y110000
Y120000
Y130000
Y140000
Y150000
X789991Y129977
X790000Y120000
Y110000
Y100000
Y90000
Y80000
Y70000
Y60000
X780000Y60000
Y70000
Y80000
Y90000
Y100000
Y110000
Y120000
X779990Y129977
X710000Y130000
X700000
Y140000
X690000
Y130000
Y120000
X700000
Y110000
Y100000
Y90000
Y80000
Y70000
X690000
Y80000
Y90000
Y100000
Y110000
X710000
Y100000
Y90000
Y80000
Y70000
Y120000
Y140000
X669977Y140010
X660000Y140000
X650000
X640000
X630000
X620000
X610000
X600000
X590000
X580000
X570000
X490827Y103740
Y93740
Y83740
Y73740
Y63740
X479843
Y73740
Y83740
Y93740
Y103740
X46456Y60551
X38582
T06
X810000Y30000
Y40000
Y50000
X835673
Y40000
Y30000
Y60000
Y70000
Y80000
Y90000
Y100000
Y110000
Y120000
Y130000
Y140001
Y150001
X810000
Y140001
Y130000
Y120000
Y110000
Y100000
Y90000
Y80000
Y70000
Y60000
X670000Y100000
X660000
X650000
X640000
X630000
X620000
X610000
X600000
X590000
X580000
X570000
X560000Y100000
X550000
X540000
X530000
Y125673
X540000
X550000
X560000
X570000Y125673
X580000
X590000
X600000
X610000
X620000
X630000
X640000
X650000
X660000
X670000
X520000Y125673
X510000
Y100000
X520000
T07
X90553Y31497
X123151Y35788
X153545Y48387
X179647Y68387
X199647Y94489
X212246Y124883
T08
X383764Y123740
X477858
M30
