G04*
G04 #@! TF.GenerationSoftware,Altium Limited,Altium Designer,25.8.1 (18)*
G04*
G04 Layer_Color=8421504*
%FSLAX25Y25*%
%MOIN*%
G70*
G04*
G04 #@! TF.SameCoordinates,0860631F-499F-4A24-BE49-AF4253F314F7*
G04*
G04*
G04 #@! TF.FilePolarity,Positive*
G04*
G01*
G75*
%ADD16R,0.05906X0.03543*%
%ADD17R,0.01500X0.02756*%
G04:AMPARAMS|DCode=18|XSize=27.56mil|YSize=15mil|CornerRadius=0mil|HoleSize=0mil|Usage=FLASHONLY|Rotation=90.000|XOffset=0mil|YOffset=0mil|HoleType=Round|Shape=Octagon|*
%AMOCTAGOND18*
4,1,8,0.00375,0.01378,-0.00375,0.01378,-0.00750,0.01003,-0.00750,-0.01003,-0.00375,-0.01378,0.00375,-0.01378,0.00750,-0.01003,0.00750,0.01003,0.00375,0.01378,0.0*
%
%ADD18OCTAGOND18*%

G04:AMPARAMS|DCode=19|XSize=27.56mil|YSize=15mil|CornerRadius=3.75mil|HoleSize=0mil|Usage=FLASHONLY|Rotation=90.000|XOffset=0mil|YOffset=0mil|HoleType=Round|Shape=RoundedRectangle|*
%AMROUNDEDRECTD19*
21,1,0.02756,0.00750,0,0,90.0*
21,1,0.02006,0.01500,0,0,90.0*
1,1,0.00750,0.00375,0.01003*
1,1,0.00750,0.00375,-0.01003*
1,1,0.00750,-0.00375,-0.01003*
1,1,0.00750,-0.00375,0.01003*
%
%ADD19ROUNDEDRECTD19*%
%ADD20R,0.02756X0.02756*%
G04:AMPARAMS|DCode=21|XSize=27.56mil|YSize=27.56mil|CornerRadius=6.89mil|HoleSize=0mil|Usage=FLASHONLY|Rotation=90.000|XOffset=0mil|YOffset=0mil|HoleType=Round|Shape=RoundedRectangle|*
%AMROUNDEDRECTD21*
21,1,0.02756,0.01378,0,0,90.0*
21,1,0.01378,0.02756,0,0,90.0*
1,1,0.01378,0.00689,0.00689*
1,1,0.01378,0.00689,-0.00689*
1,1,0.01378,-0.00689,-0.00689*
1,1,0.01378,-0.00689,0.00689*
%
%ADD21ROUNDEDRECTD21*%
G04:AMPARAMS|DCode=22|XSize=27.56mil|YSize=27.56mil|CornerRadius=0mil|HoleSize=0mil|Usage=FLASHONLY|Rotation=90.000|XOffset=0mil|YOffset=0mil|HoleType=Round|Shape=Octagon|*
%AMOCTAGOND22*
4,1,8,0.00689,0.01378,-0.00689,0.01378,-0.01378,0.00689,-0.01378,-0.00689,-0.00689,-0.01378,0.00689,-0.01378,0.01378,-0.00689,0.01378,0.00689,0.00689,0.01378,0.0*
%
%ADD22OCTAGOND22*%

%ADD23C,0.02756*%
%ADD24R,0.02362X0.06102*%
%ADD25R,0.04724X0.07087*%
%ADD26R,0.05544X0.04747*%
%ADD27R,0.04747X0.05544*%
%ADD28R,0.03543X0.05906*%
%ADD29R,0.06299X0.05512*%
%ADD30R,0.05512X0.06299*%
%ADD31R,0.04724X0.04724*%
%ADD32R,0.05315X0.03937*%
D16*
X356102Y42244D02*
D03*
X336811Y55236D02*
D03*
Y42244D02*
D03*
X356102Y55236D02*
D03*
Y85236D02*
D03*
X336811Y72244D02*
D03*
Y85236D02*
D03*
X356102Y72244D02*
D03*
Y115236D02*
D03*
X336811Y102244D02*
D03*
Y115236D02*
D03*
X356102Y102244D02*
D03*
D17*
X647027Y61088D02*
D03*
Y51088D02*
D03*
X654527D02*
D03*
X662027D02*
D03*
X639527D02*
D03*
X647027Y56088D02*
D03*
X654527D02*
D03*
X662027D02*
D03*
X639527D02*
D03*
X654527Y61088D02*
D03*
X662027D02*
D03*
X639527D02*
D03*
X647027Y66088D02*
D03*
X654527D02*
D03*
X662027D02*
D03*
X639527D02*
D03*
X647027Y81088D02*
D03*
X654527D02*
D03*
Y76088D02*
D03*
X647027Y71088D02*
D03*
Y76088D02*
D03*
X654527Y71088D02*
D03*
X662027Y76088D02*
D03*
Y81088D02*
D03*
Y71088D02*
D03*
X639527Y81088D02*
D03*
Y76088D02*
D03*
Y71088D02*
D03*
D18*
X649527Y51088D02*
D03*
X657027D02*
D03*
X664527D02*
D03*
X642027D02*
D03*
X649527Y56088D02*
D03*
X657027D02*
D03*
X664527D02*
D03*
X642027D02*
D03*
X649527Y61088D02*
D03*
X657027D02*
D03*
X664527D02*
D03*
X642027D02*
D03*
X649527Y66088D02*
D03*
X657027D02*
D03*
X664527D02*
D03*
X642027D02*
D03*
X657027Y81088D02*
D03*
X642027D02*
D03*
X649527D02*
D03*
X657027Y76088D02*
D03*
X649527Y71088D02*
D03*
Y76088D02*
D03*
X657027Y71088D02*
D03*
X664527Y81088D02*
D03*
Y76088D02*
D03*
Y71088D02*
D03*
X642027D02*
D03*
Y76088D02*
D03*
D19*
X652027Y51088D02*
D03*
X659527D02*
D03*
X667027D02*
D03*
X644527D02*
D03*
X637027D02*
D03*
X652027Y56088D02*
D03*
X659527D02*
D03*
X667027D02*
D03*
X644527D02*
D03*
X637027D02*
D03*
X652027Y61088D02*
D03*
X659527D02*
D03*
X667027D02*
D03*
X644527D02*
D03*
X637027D02*
D03*
X652027Y66088D02*
D03*
X659527D02*
D03*
X667027D02*
D03*
X644527D02*
D03*
X637027D02*
D03*
X652027Y81088D02*
D03*
X644527D02*
D03*
X652027Y76088D02*
D03*
Y71088D02*
D03*
X659527Y81088D02*
D03*
X667027Y76088D02*
D03*
Y81088D02*
D03*
X659527Y76088D02*
D03*
Y71088D02*
D03*
X667027D02*
D03*
X637027Y81088D02*
D03*
X644527Y76088D02*
D03*
X637027D02*
D03*
X644527Y71088D02*
D03*
X637027D02*
D03*
D20*
X627027Y81088D02*
D03*
Y76088D02*
D03*
Y71088D02*
D03*
X612027Y81088D02*
D03*
X597027D02*
D03*
X612027Y76088D02*
D03*
X597027D02*
D03*
X612027Y71088D02*
D03*
X597027D02*
D03*
X582027Y76088D02*
D03*
Y71088D02*
D03*
Y81088D02*
D03*
X627027Y66088D02*
D03*
X612027D02*
D03*
X597027D02*
D03*
X582027D02*
D03*
X627027Y61088D02*
D03*
X612027D02*
D03*
X597027D02*
D03*
X582027D02*
D03*
X627027Y56088D02*
D03*
X612027D02*
D03*
X597027D02*
D03*
X582027D02*
D03*
X627027Y51088D02*
D03*
X612027D02*
D03*
X597027D02*
D03*
X582027D02*
D03*
D21*
X622027Y81088D02*
D03*
Y76088D02*
D03*
Y71088D02*
D03*
X607027Y81088D02*
D03*
X592027D02*
D03*
X607027Y76088D02*
D03*
X592027D02*
D03*
X607027Y71088D02*
D03*
X592027D02*
D03*
X577027Y76088D02*
D03*
Y81088D02*
D03*
Y71088D02*
D03*
X622027Y66088D02*
D03*
X607027D02*
D03*
X592027D02*
D03*
X577027D02*
D03*
X622027Y61088D02*
D03*
X607027D02*
D03*
X592027D02*
D03*
X577027D02*
D03*
X622027Y56088D02*
D03*
X607027D02*
D03*
X592027D02*
D03*
X577027D02*
D03*
X622027Y51088D02*
D03*
X607027D02*
D03*
X592027D02*
D03*
X577027D02*
D03*
D22*
X617027Y81088D02*
D03*
Y76088D02*
D03*
Y71088D02*
D03*
X602027Y81088D02*
D03*
Y76088D02*
D03*
Y71088D02*
D03*
X587027Y76088D02*
D03*
Y71088D02*
D03*
Y81088D02*
D03*
X617027Y66088D02*
D03*
X602027D02*
D03*
X587027D02*
D03*
X617027Y61088D02*
D03*
X602027D02*
D03*
X587027D02*
D03*
X617027Y56088D02*
D03*
X602027D02*
D03*
X587027D02*
D03*
X617027Y51088D02*
D03*
X602027D02*
D03*
X587027D02*
D03*
D23*
X572027Y81088D02*
D03*
Y71088D02*
D03*
Y76088D02*
D03*
Y66088D02*
D03*
Y61088D02*
D03*
Y56088D02*
D03*
Y51088D02*
D03*
X632027Y56088D02*
D03*
Y76088D02*
D03*
Y66088D02*
D03*
Y61088D02*
D03*
Y71088D02*
D03*
Y81088D02*
D03*
Y51088D02*
D03*
D24*
X745876Y136065D02*
D03*
X741938D02*
D03*
X734064D02*
D03*
X738001D02*
D03*
D25*
X728946Y151321D02*
D03*
X750994D02*
D03*
D26*
X299224Y50522D02*
D03*
Y57028D02*
D03*
X727701Y129236D02*
D03*
Y122731D02*
D03*
D27*
X691499Y62170D02*
D03*
X698004D02*
D03*
X703886Y150000D02*
D03*
X710392D02*
D03*
D28*
X322953Y69095D02*
D03*
X309961Y88386D02*
D03*
X322953D02*
D03*
X309961Y69095D02*
D03*
X382953D02*
D03*
X369961Y88386D02*
D03*
X382953D02*
D03*
X369961Y69095D02*
D03*
D29*
X266142Y72835D02*
D03*
X237795D02*
D03*
X266142Y42835D02*
D03*
X237795D02*
D03*
X266142Y102835D02*
D03*
X237795D02*
D03*
Y114646D02*
D03*
X266142D02*
D03*
X237795Y84646D02*
D03*
X266142D02*
D03*
Y54646D02*
D03*
X237795D02*
D03*
D30*
X276063Y64567D02*
D03*
Y92913D02*
D03*
X216063Y64567D02*
D03*
Y92913D02*
D03*
X287874Y64567D02*
D03*
Y92913D02*
D03*
X227874D02*
D03*
Y64567D02*
D03*
D31*
X718934Y109534D02*
D03*
X680956Y109683D02*
D03*
X718934Y117801D02*
D03*
X680956Y117951D02*
D03*
D32*
X680392Y134413D02*
D03*
X718370Y133630D02*
D03*
Y126543D02*
D03*
X680392Y127326D02*
D03*
M02*
