G04*
G04 #@! TF.GenerationSoftware,Altium Limited,Altium Designer,25.8.1 (18)*
G04*
G04 Layer_Color=2752767*
%FSLAX25Y25*%
%MOIN*%
G70*
G04*
G04 #@! TF.SameCoordinates,0860631F-499F-4A24-BE49-AF4253F314F7*
G04*
G04*
G04 #@! TF.FilePolarity,Positive*
G04*
G01*
G75*
%ADD73C,0.00200*%
%ADD74C,0.00267*%
D73*
X8788Y139260D02*
X9188Y140060D01*
X8788Y140860D01*
X9588Y140460D01*
X10388Y140860D01*
X9988Y140060D01*
X10388Y139260D01*
X9588Y139660D01*
X8788Y139260D01*
Y147134D02*
X9188Y147934D01*
X8788Y148734D01*
X9588Y148334D01*
X10388Y148734D01*
X9988Y147934D01*
X10388Y147134D01*
X9588Y147534D01*
X8788Y147134D01*
X46456Y59751D02*
X46856Y60151D01*
X47256D01*
X46856Y60551D01*
X47256Y60951D01*
X46856D01*
X46456Y61351D01*
X46056Y60951D01*
X45656D01*
X46056Y60551D01*
X45656Y60151D01*
X46056D01*
X46456Y59751D01*
X38582D02*
X38982Y60151D01*
X39382D01*
X38982Y60551D01*
X39382Y60951D01*
X38982D01*
X38582Y61351D01*
X38182Y60951D01*
X37782D01*
X38182Y60551D01*
X37782Y60151D01*
X38182D01*
X38582Y59751D01*
X16849Y47940D02*
X17249D01*
X17649Y48340D01*
X18049Y47940D01*
X18449D01*
Y48340D01*
X18049Y48740D01*
X18449Y49140D01*
Y49540D01*
X18049D01*
X17649Y49140D01*
X17249Y49540D01*
X16849D01*
Y49140D01*
X17249Y48740D01*
X16849Y48340D01*
Y47940D01*
X26849D02*
X27249D01*
X27649Y48340D01*
X28049Y47940D01*
X28449D01*
Y48340D01*
X28049Y48740D01*
X28449Y49140D01*
Y49540D01*
X28049D01*
X27649Y49140D01*
X27249Y49540D01*
X26849D01*
Y49140D01*
X27249Y48740D01*
X26849Y48340D01*
Y47940D01*
X36849D02*
X37249D01*
X37649Y48340D01*
X38049Y47940D01*
X38449D01*
Y48340D01*
X38049Y48740D01*
X38449Y49140D01*
Y49540D01*
X38049D01*
X37649Y49140D01*
X37249Y49540D01*
X36849D01*
Y49140D01*
X37249Y48740D01*
X36849Y48340D01*
Y47940D01*
X46849D02*
X47249D01*
X47649Y48340D01*
X48049Y47940D01*
X48449D01*
Y48340D01*
X48049Y48740D01*
X48449Y49140D01*
Y49540D01*
X48049D01*
X47649Y49140D01*
X47249Y49540D01*
X46849D01*
Y49140D01*
X47249Y48740D01*
X46849Y48340D01*
Y47940D01*
X56849D02*
X57249D01*
X57649Y48340D01*
X58049Y47940D01*
X58449D01*
Y48340D01*
X58049Y48740D01*
X58449Y49140D01*
Y49540D01*
X58049D01*
X57649Y49140D01*
X57249Y49540D01*
X56849D01*
Y49140D01*
X57249Y48740D01*
X56849Y48340D01*
Y47940D01*
X66849D02*
X67249D01*
X67649Y48340D01*
X68049Y47940D01*
X68449D01*
Y48340D01*
X68049Y48740D01*
X68449Y49140D01*
Y49540D01*
X68049D01*
X67649Y49140D01*
X67249Y49540D01*
X66849D01*
Y49140D01*
X67249Y48740D01*
X66849Y48340D01*
Y47940D01*
X76849D02*
X77249D01*
X77649Y48340D01*
X78049Y47940D01*
X78449D01*
Y48340D01*
X78049Y48740D01*
X78449Y49140D01*
Y49540D01*
X78049D01*
X77649Y49140D01*
X77249Y49540D01*
X76849D01*
Y49140D01*
X77249Y48740D01*
X76849Y48340D01*
Y47940D01*
Y107940D02*
X77249D01*
X77649Y108340D01*
X78049Y107940D01*
X78449D01*
Y108340D01*
X78049Y108740D01*
X78449Y109140D01*
Y109540D01*
X78049D01*
X77649Y109140D01*
X77249Y109540D01*
X76849D01*
Y109140D01*
X77249Y108740D01*
X76849Y108340D01*
Y107940D01*
X66849D02*
X67249D01*
X67649Y108340D01*
X68049Y107940D01*
X68449D01*
Y108340D01*
X68049Y108740D01*
X68449Y109140D01*
Y109540D01*
X68049D01*
X67649Y109140D01*
X67249Y109540D01*
X66849D01*
Y109140D01*
X67249Y108740D01*
X66849Y108340D01*
Y107940D01*
X56849D02*
X57249D01*
X57649Y108340D01*
X58049Y107940D01*
X58449D01*
Y108340D01*
X58049Y108740D01*
X58449Y109140D01*
Y109540D01*
X58049D01*
X57649Y109140D01*
X57249Y109540D01*
X56849D01*
Y109140D01*
X57249Y108740D01*
X56849Y108340D01*
Y107940D01*
X46849D02*
X47249D01*
X47649Y108340D01*
X48049Y107940D01*
X48449D01*
Y108340D01*
X48049Y108740D01*
X48449Y109140D01*
Y109540D01*
X48049D01*
X47649Y109140D01*
X47249Y109540D01*
X46849D01*
Y109140D01*
X47249Y108740D01*
X46849Y108340D01*
Y107940D01*
X36849D02*
X37249D01*
X37649Y108340D01*
X38049Y107940D01*
X38449D01*
Y108340D01*
X38049Y108740D01*
X38449Y109140D01*
Y109540D01*
X38049D01*
X37649Y109140D01*
X37249Y109540D01*
X36849D01*
Y109140D01*
X37249Y108740D01*
X36849Y108340D01*
Y107940D01*
X26849D02*
X27249D01*
X27649Y108340D01*
X28049Y107940D01*
X28449D01*
Y108340D01*
X28049Y108740D01*
X28449Y109140D01*
Y109540D01*
X28049D01*
X27649Y109140D01*
X27249Y109540D01*
X26849D01*
Y109140D01*
X27249Y108740D01*
X26849Y108340D01*
Y107940D01*
X16849D02*
X17249D01*
X17649Y108340D01*
X18049Y107940D01*
X18449D01*
Y108340D01*
X18049Y108740D01*
X18449Y109140D01*
Y109540D01*
X18049D01*
X17649Y109140D01*
X17249Y109540D01*
X16849D01*
Y109140D01*
X17249Y108740D01*
X16849Y108340D01*
Y107940D01*
X479843Y72940D02*
X480242Y73340D01*
X480643D01*
X480242Y73740D01*
X480643Y74140D01*
X480242D01*
X479843Y74540D01*
X479443Y74140D01*
X479042D01*
X479443Y73740D01*
X479042Y73340D01*
X479443D01*
X479843Y72940D01*
Y52940D02*
X480242Y53340D01*
X480643D01*
X480242Y53740D01*
X480643Y54140D01*
X480242D01*
X479843Y54540D01*
X479443Y54140D01*
X479042D01*
X479443Y53740D01*
X479042Y53340D01*
X479443D01*
X479843Y52940D01*
Y62940D02*
X480242Y63340D01*
X480643D01*
X480242Y63740D01*
X480643Y64140D01*
X480242D01*
X479843Y64540D01*
X479443Y64140D01*
X479042D01*
X479443Y63740D01*
X479042Y63340D01*
X479443D01*
X479843Y62940D01*
Y82940D02*
X480242Y83340D01*
X480643D01*
X480242Y83740D01*
X480643Y84140D01*
X480242D01*
X479843Y84540D01*
X479443Y84140D01*
X479042D01*
X479443Y83740D01*
X479042Y83340D01*
X479443D01*
X479843Y82940D01*
Y92940D02*
X480242Y93340D01*
X480643D01*
X480242Y93740D01*
X480643Y94140D01*
X480242D01*
X479843Y94540D01*
X479443Y94140D01*
X479042D01*
X479443Y93740D01*
X479042Y93340D01*
X479443D01*
X479843Y92940D01*
Y102940D02*
X480242Y103340D01*
X480643D01*
X480242Y103740D01*
X480643Y104140D01*
X480242D01*
X479843Y104540D01*
X479443Y104140D01*
X479042D01*
X479443Y103740D01*
X479042Y103340D01*
X479443D01*
X479843Y102940D01*
X382964Y122940D02*
Y124540D01*
X384564D01*
Y122940D01*
X382964D01*
X490827Y52940D02*
X491227Y53340D01*
X491627D01*
X491227Y53740D01*
X491627Y54140D01*
X491227D01*
X490827Y54540D01*
X490427Y54140D01*
X490027D01*
X490427Y53740D01*
X490027Y53340D01*
X490427D01*
X490827Y52940D01*
Y82940D02*
X491227Y83340D01*
X491627D01*
X491227Y83740D01*
X491627Y84140D01*
X491227D01*
X490827Y84540D01*
X490427Y84140D01*
X490027D01*
X490427Y83740D01*
X490027Y83340D01*
X490427D01*
X490827Y82940D01*
Y72940D02*
X491227Y73340D01*
X491627D01*
X491227Y73740D01*
X491627Y74140D01*
X491227D01*
X490827Y74540D01*
X490427Y74140D01*
X490027D01*
X490427Y73740D01*
X490027Y73340D01*
X490427D01*
X490827Y72940D01*
Y102940D02*
X491227Y103340D01*
X491627D01*
X491227Y103740D01*
X491627Y104140D01*
X491227D01*
X490827Y104540D01*
X490427Y104140D01*
X490027D01*
X490427Y103740D01*
X490027Y103340D01*
X490427D01*
X490827Y102940D01*
Y62940D02*
X491227Y63340D01*
X491627D01*
X491227Y63740D01*
X491627Y64140D01*
X491227D01*
X490827Y64540D01*
X490427Y64140D01*
X490027D01*
X490427Y63740D01*
X490027Y63340D01*
X490427D01*
X490827Y62940D01*
Y92940D02*
X491227Y93340D01*
X491627D01*
X491227Y93740D01*
X491627Y94140D01*
X491227D01*
X490827Y94540D01*
X490427Y94140D01*
X490027D01*
X490427Y93740D01*
X490027Y93340D01*
X490427D01*
X490827Y92940D01*
X780000Y69200D02*
X780400Y69600D01*
X780800D01*
X780400Y70000D01*
X780800Y70400D01*
X780400D01*
X780000Y70800D01*
X779600Y70400D01*
X779200D01*
X779600Y70000D01*
X779200Y69600D01*
X779600D01*
X780000Y69200D01*
X790000Y69200D02*
X790400Y69600D01*
X790800D01*
X790400Y70000D01*
X790800Y70400D01*
X790400D01*
X790000Y70800D01*
X789600Y70400D01*
X789200D01*
X789600Y70000D01*
X789200Y69600D01*
X789600D01*
X790000Y69200D01*
X670000Y99200D02*
X669200Y100800D01*
X670800D01*
X670000Y99200D01*
Y124873D02*
X669200Y126473D01*
X670800D01*
X670000Y124873D01*
X660000Y99200D02*
X659200Y100800D01*
X660800D01*
X660000Y99200D01*
Y124873D02*
X659200Y126473D01*
X660800D01*
X660000Y124873D01*
X650000Y99200D02*
X649200Y100800D01*
X650800D01*
X650000Y99200D01*
Y124873D02*
X649200Y126473D01*
X650800D01*
X650000Y124873D01*
X640000Y99200D02*
X639200Y100800D01*
X640800D01*
X640000Y99200D01*
Y124873D02*
X639200Y126473D01*
X640800D01*
X640000Y124873D01*
X630000Y99200D02*
X629200Y100800D01*
X630800D01*
X630000Y99200D01*
Y124873D02*
X629200Y126473D01*
X630800D01*
X630000Y124873D01*
X620000Y99200D02*
X619200Y100800D01*
X620800D01*
X620000Y99200D01*
Y124873D02*
X619200Y126473D01*
X620800D01*
X620000Y124873D01*
X610000Y99200D02*
X609200Y100800D01*
X610800D01*
X610000Y99200D01*
Y124873D02*
X609200Y126473D01*
X610800D01*
X610000Y124873D01*
X600000Y99200D02*
X599200Y100800D01*
X600800D01*
X600000Y99200D01*
Y124873D02*
X599200Y126473D01*
X600800D01*
X600000Y124873D01*
X590000Y99200D02*
X589200Y100800D01*
X590800D01*
X590000Y99200D01*
Y124873D02*
X589200Y126473D01*
X590800D01*
X590000Y124873D01*
X580000Y99200D02*
X579200Y100800D01*
X580800D01*
X580000Y99200D01*
Y124873D02*
X579200Y126473D01*
X580800D01*
X580000Y124873D01*
X700000Y69200D02*
X700400Y69600D01*
X700800D01*
X700400Y70000D01*
X700800Y70400D01*
X700400D01*
X700000Y70800D01*
X699600Y70400D01*
X699200D01*
X699600Y70000D01*
X699200Y69600D01*
X699600D01*
X700000Y69200D01*
Y79200D02*
X700400Y79600D01*
X700800D01*
X700400Y80000D01*
X700800Y80400D01*
X700400D01*
X700000Y80800D01*
X699600Y80400D01*
X699200D01*
X699600Y80000D01*
X699200Y79600D01*
X699600D01*
X700000Y79200D01*
Y89200D02*
X700400Y89600D01*
X700800D01*
X700400Y90000D01*
X700800Y90400D01*
X700400D01*
X700000Y90800D01*
X699600Y90400D01*
X699200D01*
X699600Y90000D01*
X699200Y89600D01*
X699600D01*
X700000Y89200D01*
Y109200D02*
X700400Y109600D01*
X700800D01*
X700400Y110000D01*
X700800Y110400D01*
X700400D01*
X700000Y110800D01*
X699600Y110400D01*
X699200D01*
X699600Y110000D01*
X699200Y109600D01*
X699600D01*
X700000Y109200D01*
Y139200D02*
X700400Y139600D01*
X700800D01*
X700400Y140000D01*
X700800Y140400D01*
X700400D01*
X700000Y140800D01*
X699600Y140400D01*
X699200D01*
X699600Y140000D01*
X699200Y139600D01*
X699600D01*
X700000Y139200D01*
Y119200D02*
X700400Y119600D01*
X700800D01*
X700400Y120000D01*
X700800Y120400D01*
X700400D01*
X700000Y120800D01*
X699600Y120400D01*
X699200D01*
X699600Y120000D01*
X699200Y119600D01*
X699600D01*
X700000Y119200D01*
Y129200D02*
X700400Y129600D01*
X700800D01*
X700400Y130000D01*
X700800Y130400D01*
X700400D01*
X700000Y130800D01*
X699600Y130400D01*
X699200D01*
X699600Y130000D01*
X699200Y129600D01*
X699600D01*
X700000Y129200D01*
Y99200D02*
X700400Y99600D01*
X700800D01*
X700400Y100000D01*
X700800Y100400D01*
X700400D01*
X700000Y100800D01*
X699600Y100400D01*
X699200D01*
X699600Y100000D01*
X699200Y99600D01*
X699600D01*
X700000Y99200D01*
X510000Y124873D02*
X509200Y126473D01*
X510800D01*
X510000Y124873D01*
X690000Y139200D02*
X690400Y139600D01*
X690800D01*
X690400Y140000D01*
X690800Y140400D01*
X690400D01*
X690000Y140800D01*
X689600Y140400D01*
X689200D01*
X689600Y140000D01*
X689200Y139600D01*
X689600D01*
X690000Y139200D01*
Y129200D02*
X690400Y129600D01*
X690800D01*
X690400Y130000D01*
X690800Y130400D01*
X690400D01*
X690000Y130800D01*
X689600Y130400D01*
X689200D01*
X689600Y130000D01*
X689200Y129600D01*
X689600D01*
X690000Y129200D01*
Y99200D02*
X690400Y99600D01*
X690800D01*
X690400Y100000D01*
X690800Y100400D01*
X690400D01*
X690000Y100800D01*
X689600Y100400D01*
X689200D01*
X689600Y100000D01*
X689200Y99600D01*
X689600D01*
X690000Y99200D01*
Y89200D02*
X690400Y89600D01*
X690800D01*
X690400Y90000D01*
X690800Y90400D01*
X690400D01*
X690000Y90800D01*
X689600Y90400D01*
X689200D01*
X689600Y90000D01*
X689200Y89600D01*
X689600D01*
X690000Y89200D01*
Y119200D02*
X690400Y119600D01*
X690800D01*
X690400Y120000D01*
X690800Y120400D01*
X690400D01*
X690000Y120800D01*
X689600Y120400D01*
X689200D01*
X689600Y120000D01*
X689200Y119600D01*
X689600D01*
X690000Y119200D01*
Y109200D02*
X690400Y109600D01*
X690800D01*
X690400Y110000D01*
X690800Y110400D01*
X690400D01*
X690000Y110800D01*
X689600Y110400D01*
X689200D01*
X689600Y110000D01*
X689200Y109600D01*
X689600D01*
X690000Y109200D01*
Y69200D02*
X690400Y69600D01*
X690800D01*
X690400Y70000D01*
X690800Y70400D01*
X690400D01*
X690000Y70800D01*
X689600Y70400D01*
X689200D01*
X689600Y70000D01*
X689200Y69600D01*
X689600D01*
X690000Y69200D01*
Y79200D02*
X690400Y79600D01*
X690800D01*
X690400Y80000D01*
X690800Y80400D01*
X690400D01*
X690000Y80800D01*
X689600Y80400D01*
X689200D01*
X689600Y80000D01*
X689200Y79600D01*
X689600D01*
X690000Y79200D01*
X477058Y122940D02*
Y124540D01*
X478658D01*
Y122940D01*
X477058D01*
X510000Y99200D02*
X509200Y100800D01*
X510800D01*
X510000Y99200D01*
X780000Y119200D02*
X780400Y119600D01*
X780800D01*
X780400Y120000D01*
X780800Y120400D01*
X780400D01*
X780000Y120800D01*
X779600Y120400D01*
X779200D01*
X779600Y120000D01*
X779200Y119600D01*
X779600D01*
X780000Y119200D01*
X790000Y119200D02*
X790400Y119600D01*
X790800D01*
X790400Y120000D01*
X790800Y120400D01*
X790400D01*
X790000Y120800D01*
X789600Y120400D01*
X789200D01*
X789600Y120000D01*
X789200Y119600D01*
X789600D01*
X790000Y119200D01*
Y79200D02*
X790400Y79600D01*
X790800D01*
X790400Y80000D01*
X790800Y80400D01*
X790400D01*
X790000Y80800D01*
X789600Y80400D01*
X789200D01*
X789600Y80000D01*
X789200Y79600D01*
X789600D01*
X790000Y79200D01*
X780000Y79200D02*
X780400Y79600D01*
X780800D01*
X780400Y80000D01*
X780800Y80400D01*
X780400D01*
X780000Y80800D01*
X779600Y80400D01*
X779200D01*
X779600Y80000D01*
X779200Y79600D01*
X779600D01*
X780000Y79200D01*
X789991Y129177D02*
X790391Y129577D01*
X790791D01*
X790391Y129977D01*
X790791Y130377D01*
X790391D01*
X789991Y130777D01*
X789591Y130377D01*
X789191D01*
X789591Y129977D01*
X789191Y129577D01*
X789591D01*
X789991Y129177D01*
X779990Y129177D02*
X780390Y129577D01*
X780790D01*
X780390Y129977D01*
X780790Y130377D01*
X780390D01*
X779990Y130777D01*
X779590Y130377D01*
X779190D01*
X779590Y129977D01*
X779190Y129577D01*
X779590D01*
X779990Y129177D01*
X550000Y124873D02*
X549200Y126473D01*
X550800D01*
X550000Y124873D01*
X520000D02*
X519200Y126473D01*
X520800D01*
X520000Y124873D01*
X560000D02*
X559200Y126473D01*
X560800D01*
X560000Y124873D01*
X540000D02*
X539200Y126473D01*
X540800D01*
X540000Y124873D01*
X530000D02*
X529200Y126473D01*
X530800D01*
X530000Y124873D01*
X710000Y129200D02*
X710400Y129600D01*
X710800D01*
X710400Y130000D01*
X710800Y130400D01*
X710400D01*
X710000Y130800D01*
X709600Y130400D01*
X709200D01*
X709600Y130000D01*
X709200Y129600D01*
X709600D01*
X710000Y129200D01*
Y69200D02*
X710400Y69600D01*
X710800D01*
X710400Y70000D01*
X710800Y70400D01*
X710400D01*
X710000Y70800D01*
X709600Y70400D01*
X709200D01*
X709600Y70000D01*
X709200Y69600D01*
X709600D01*
X710000Y69200D01*
Y99200D02*
X710400Y99600D01*
X710800D01*
X710400Y100000D01*
X710800Y100400D01*
X710400D01*
X710000Y100800D01*
X709600Y100400D01*
X709200D01*
X709600Y100000D01*
X709200Y99600D01*
X709600D01*
X710000Y99200D01*
Y139200D02*
X710400Y139600D01*
X710800D01*
X710400Y140000D01*
X710800Y140400D01*
X710400D01*
X710000Y140800D01*
X709600Y140400D01*
X709200D01*
X709600Y140000D01*
X709200Y139600D01*
X709600D01*
X710000Y139200D01*
Y119200D02*
X710400Y119600D01*
X710800D01*
X710400Y120000D01*
X710800Y120400D01*
X710400D01*
X710000Y120800D01*
X709600Y120400D01*
X709200D01*
X709600Y120000D01*
X709200Y119600D01*
X709600D01*
X710000Y119200D01*
Y109200D02*
X710400Y109600D01*
X710800D01*
X710400Y110000D01*
X710800Y110400D01*
X710400D01*
X710000Y110800D01*
X709600Y110400D01*
X709200D01*
X709600Y110000D01*
X709200Y109600D01*
X709600D01*
X710000Y109200D01*
Y89200D02*
X710400Y89600D01*
X710800D01*
X710400Y90000D01*
X710800Y90400D01*
X710400D01*
X710000Y90800D01*
X709600Y90400D01*
X709200D01*
X709600Y90000D01*
X709200Y89600D01*
X709600D01*
X710000Y89200D01*
Y79200D02*
X710400Y79600D01*
X710800D01*
X710400Y80000D01*
X710800Y80400D01*
X710400D01*
X710000Y80800D01*
X709600Y80400D01*
X709200D01*
X709600Y80000D01*
X709200Y79600D01*
X709600D01*
X710000Y79200D01*
X780000Y109200D02*
X780400Y109600D01*
X780800D01*
X780400Y110000D01*
X780800Y110400D01*
X780400D01*
X780000Y110800D01*
X779600Y110400D01*
X779200D01*
X779600Y110000D01*
X779200Y109600D01*
X779600D01*
X780000Y109200D01*
Y99200D02*
X780400Y99600D01*
X780800D01*
X780400Y100000D01*
X780800Y100400D01*
X780400D01*
X780000Y100800D01*
X779600Y100400D01*
X779200D01*
X779600Y100000D01*
X779200Y99600D01*
X779600D01*
X780000Y99200D01*
Y29200D02*
X780400Y29600D01*
X780800D01*
X780400Y30000D01*
X780800Y30400D01*
X780400D01*
X780000Y30800D01*
X779600Y30400D01*
X779200D01*
X779600Y30000D01*
X779200Y29600D01*
X779600D01*
X780000Y29200D01*
Y89200D02*
X780400Y89600D01*
X780800D01*
X780400Y90000D01*
X780800Y90400D01*
X780400D01*
X780000Y90800D01*
X779600Y90400D01*
X779200D01*
X779600Y90000D01*
X779200Y89600D01*
X779600D01*
X780000Y89200D01*
Y59200D02*
X780400Y59600D01*
X780800D01*
X780400Y60000D01*
X780800Y60400D01*
X780400D01*
X780000Y60800D01*
X779600Y60400D01*
X779200D01*
X779600Y60000D01*
X779200Y59600D01*
X779600D01*
X780000Y59200D01*
Y49200D02*
X780400Y49600D01*
X780800D01*
X780400Y50000D01*
X780800Y50400D01*
X780400D01*
X780000Y50800D01*
X779600Y50400D01*
X779200D01*
X779600Y50000D01*
X779200Y49600D01*
X779600D01*
X780000Y49200D01*
Y39200D02*
X780400Y39600D01*
X780800D01*
X780400Y40000D01*
X780800Y40400D01*
X780400D01*
X780000Y40800D01*
X779600Y40400D01*
X779200D01*
X779600Y40000D01*
X779200Y39600D01*
X779600D01*
X780000Y39200D01*
X211446Y124883D02*
X212246Y125683D01*
X213046Y124883D01*
X212246Y124083D01*
X211446Y124883D01*
X198847Y94489D02*
X199647Y95289D01*
X200447Y94489D01*
X199647Y93689D01*
X198847Y94489D01*
X178847Y68387D02*
X179647Y69187D01*
X180447Y68387D01*
X179647Y67587D01*
X178847Y68387D01*
X152745Y48387D02*
X153545Y49187D01*
X154345Y48387D01*
X153545Y47587D01*
X152745Y48387D01*
X122351Y35788D02*
X123151Y36588D01*
X123951Y35788D01*
X123151Y34988D01*
X122351Y35788D01*
X89753Y31497D02*
X90553Y32297D01*
X91353Y31497D01*
X90553Y30697D01*
X89753Y31497D01*
X850000Y149200D02*
X850400Y149600D01*
X850800D01*
X850400Y150000D01*
X850800Y150400D01*
X850400D01*
X850000Y150800D01*
X849600Y150400D01*
X849200D01*
X849600Y150000D01*
X849200Y149600D01*
X849600D01*
X850000Y149200D01*
Y139200D02*
X850400Y139600D01*
X850800D01*
X850400Y140000D01*
X850800Y140400D01*
X850400D01*
X850000Y140800D01*
X849600Y140400D01*
X849200D01*
X849600Y140000D01*
X849200Y139600D01*
X849600D01*
X850000Y139200D01*
Y129200D02*
X850400Y129600D01*
X850800D01*
X850400Y130000D01*
X850800Y130400D01*
X850400D01*
X850000Y130800D01*
X849600Y130400D01*
X849200D01*
X849600Y130000D01*
X849200Y129600D01*
X849600D01*
X850000Y129200D01*
Y119200D02*
X850400Y119600D01*
X850800D01*
X850400Y120000D01*
X850800Y120400D01*
X850400D01*
X850000Y120800D01*
X849600Y120400D01*
X849200D01*
X849600Y120000D01*
X849200Y119600D01*
X849600D01*
X850000Y119200D01*
Y109200D02*
X850400Y109600D01*
X850800D01*
X850400Y110000D01*
X850800Y110400D01*
X850400D01*
X850000Y110800D01*
X849600Y110400D01*
X849200D01*
X849600Y110000D01*
X849200Y109600D01*
X849600D01*
X850000Y109200D01*
Y99200D02*
X850400Y99600D01*
X850800D01*
X850400Y100000D01*
X850800Y100400D01*
X850400D01*
X850000Y100800D01*
X849600Y100400D01*
X849200D01*
X849600Y100000D01*
X849200Y99600D01*
X849600D01*
X850000Y99200D01*
Y89200D02*
X850400Y89600D01*
X850800D01*
X850400Y90000D01*
X850800Y90400D01*
X850400D01*
X850000Y90800D01*
X849600Y90400D01*
X849200D01*
X849600Y90000D01*
X849200Y89600D01*
X849600D01*
X850000Y89200D01*
Y79200D02*
X850400Y79600D01*
X850800D01*
X850400Y80000D01*
X850800Y80400D01*
X850400D01*
X850000Y80800D01*
X849600Y80400D01*
X849200D01*
X849600Y80000D01*
X849200Y79600D01*
X849600D01*
X850000Y79200D01*
Y69200D02*
X850400Y69600D01*
X850800D01*
X850400Y70000D01*
X850800Y70400D01*
X850400D01*
X850000Y70800D01*
X849600Y70400D01*
X849200D01*
X849600Y70000D01*
X849200Y69600D01*
X849600D01*
X850000Y69200D01*
Y59200D02*
X850400Y59600D01*
X850800D01*
X850400Y60000D01*
X850800Y60400D01*
X850400D01*
X850000Y60800D01*
X849600Y60400D01*
X849200D01*
X849600Y60000D01*
X849200Y59600D01*
X849600D01*
X850000Y59200D01*
Y49200D02*
X850400Y49600D01*
X850800D01*
X850400Y50000D01*
X850800Y50400D01*
X850400D01*
X850000Y50800D01*
X849600Y50400D01*
X849200D01*
X849600Y50000D01*
X849200Y49600D01*
X849600D01*
X850000Y49200D01*
Y39200D02*
X850400Y39600D01*
X850800D01*
X850400Y40000D01*
X850800Y40400D01*
X850400D01*
X850000Y40800D01*
X849600Y40400D01*
X849200D01*
X849600Y40000D01*
X849200Y39600D01*
X849600D01*
X850000Y39200D01*
Y29200D02*
X850400Y29600D01*
X850800D01*
X850400Y30000D01*
X850800Y30400D01*
X850400D01*
X850000Y30800D01*
X849600Y30400D01*
X849200D01*
X849600Y30000D01*
X849200Y29600D01*
X849600D01*
X850000Y29200D01*
X810000Y139201D02*
X809200Y140801D01*
X810800D01*
X810000Y139201D01*
X835673D02*
X834873Y140801D01*
X836473D01*
X835673Y139201D01*
X810000Y149201D02*
X809200Y150801D01*
X810800D01*
X810000Y149201D01*
X835673D02*
X834873Y150801D01*
X836473D01*
X835673Y149201D01*
X570000Y99200D02*
X569200Y100800D01*
X570800D01*
X570000Y99200D01*
Y124873D02*
X569200Y126473D01*
X570800D01*
X570000Y124873D01*
X520000Y99200D02*
X519200Y100800D01*
X520800D01*
X520000Y99200D01*
X540000D02*
X539200Y100800D01*
X540800D01*
X540000Y99200D01*
X550000D02*
X549200Y100800D01*
X550800D01*
X550000Y99200D01*
X560000D02*
X559200Y100800D01*
X560800D01*
X560000Y99200D01*
X530000D02*
X529200Y100800D01*
X530800D01*
X530000Y99200D01*
X835673Y29200D02*
X834873Y30800D01*
X836473D01*
X835673Y29200D01*
X810000D02*
X809200Y30800D01*
X810800D01*
X810000Y29200D01*
X570000Y139200D02*
X570400Y139600D01*
X570800D01*
X570400Y140000D01*
X570800Y140400D01*
X570400D01*
X570000Y140800D01*
X569600Y140400D01*
X569200D01*
X569600Y140000D01*
X569200Y139600D01*
X569600D01*
X570000Y139200D01*
X580000D02*
X580400Y139600D01*
X580800D01*
X580400Y140000D01*
X580800Y140400D01*
X580400D01*
X580000Y140800D01*
X579600Y140400D01*
X579200D01*
X579600Y140000D01*
X579200Y139600D01*
X579600D01*
X580000Y139200D01*
X590000D02*
X590400Y139600D01*
X590800D01*
X590400Y140000D01*
X590800Y140400D01*
X590400D01*
X590000Y140800D01*
X589600Y140400D01*
X589200D01*
X589600Y140000D01*
X589200Y139600D01*
X589600D01*
X590000Y139200D01*
X600000D02*
X600400Y139600D01*
X600800D01*
X600400Y140000D01*
X600800Y140400D01*
X600400D01*
X600000Y140800D01*
X599600Y140400D01*
X599200D01*
X599600Y140000D01*
X599200Y139600D01*
X599600D01*
X600000Y139200D01*
X610000D02*
X610400Y139600D01*
X610800D01*
X610400Y140000D01*
X610800Y140400D01*
X610400D01*
X610000Y140800D01*
X609600Y140400D01*
X609200D01*
X609600Y140000D01*
X609200Y139600D01*
X609600D01*
X610000Y139200D01*
X620000D02*
X620400Y139600D01*
X620800D01*
X620400Y140000D01*
X620800Y140400D01*
X620400D01*
X620000Y140800D01*
X619600Y140400D01*
X619200D01*
X619600Y140000D01*
X619200Y139600D01*
X619600D01*
X620000Y139200D01*
X630000D02*
X630400Y139600D01*
X630800D01*
X630400Y140000D01*
X630800Y140400D01*
X630400D01*
X630000Y140800D01*
X629600Y140400D01*
X629200D01*
X629600Y140000D01*
X629200Y139600D01*
X629600D01*
X630000Y139200D01*
X640000D02*
X640400Y139600D01*
X640800D01*
X640400Y140000D01*
X640800Y140400D01*
X640400D01*
X640000Y140800D01*
X639600Y140400D01*
X639200D01*
X639600Y140000D01*
X639200Y139600D01*
X639600D01*
X640000Y139200D01*
X650000D02*
X650400Y139600D01*
X650800D01*
X650400Y140000D01*
X650800Y140400D01*
X650400D01*
X650000Y140800D01*
X649600Y140400D01*
X649200D01*
X649600Y140000D01*
X649200Y139600D01*
X649600D01*
X650000Y139200D01*
X660000D02*
X660400Y139600D01*
X660800D01*
X660400Y140000D01*
X660800Y140400D01*
X660400D01*
X660000Y140800D01*
X659600Y140400D01*
X659200D01*
X659600Y140000D01*
X659200Y139600D01*
X659600D01*
X660000Y139200D01*
X669977Y139210D02*
X670377Y139610D01*
X670777D01*
X670377Y140010D01*
X670777Y140410D01*
X670377D01*
X669977Y140810D01*
X669577Y140410D01*
X669177D01*
X669577Y140010D01*
X669177Y139610D01*
X669577D01*
X669977Y139210D01*
X835673Y89200D02*
X834873Y90800D01*
X836473D01*
X835673Y89200D01*
X810000D02*
X809200Y90800D01*
X810800D01*
X810000Y89200D01*
X835673Y109200D02*
X834873Y110800D01*
X836473D01*
X835673Y109200D01*
X810000D02*
X809200Y110800D01*
X810800D01*
X810000Y109200D01*
X835673Y129200D02*
X834873Y130800D01*
X836473D01*
X835673Y129200D01*
X810000D02*
X809200Y130800D01*
X810800D01*
X810000Y129200D01*
X790000Y89200D02*
X790400Y89600D01*
X790800D01*
X790400Y90000D01*
X790800Y90400D01*
X790400D01*
X790000Y90800D01*
X789600Y90400D01*
X789200D01*
X789600Y90000D01*
X789200Y89600D01*
X789600D01*
X790000Y89200D01*
Y59200D02*
X790400Y59600D01*
X790800D01*
X790400Y60000D01*
X790800Y60400D01*
X790400D01*
X790000Y60800D01*
X789600Y60400D01*
X789200D01*
X789600Y60000D01*
X789200Y59600D01*
X789600D01*
X790000Y59200D01*
Y29200D02*
X790400Y29600D01*
X790800D01*
X790400Y30000D01*
X790800Y30400D01*
X790400D01*
X790000Y30800D01*
X789600Y30400D01*
X789200D01*
X789600Y30000D01*
X789200Y29600D01*
X789600D01*
X790000Y29200D01*
Y49200D02*
X790400Y49600D01*
X790800D01*
X790400Y50000D01*
X790800Y50400D01*
X790400D01*
X790000Y50800D01*
X789600Y50400D01*
X789200D01*
X789600Y50000D01*
X789200Y49600D01*
X789600D01*
X790000Y49200D01*
Y39200D02*
X790400Y39600D01*
X790800D01*
X790400Y40000D01*
X790800Y40400D01*
X790400D01*
X790000Y40800D01*
X789600Y40400D01*
X789200D01*
X789600Y40000D01*
X789200Y39600D01*
X789600D01*
X790000Y39200D01*
Y99200D02*
X790400Y99600D01*
X790800D01*
X790400Y100000D01*
X790800Y100400D01*
X790400D01*
X790000Y100800D01*
X789600Y100400D01*
X789200D01*
X789600Y100000D01*
X789200Y99600D01*
X789600D01*
X790000Y99200D01*
Y109200D02*
X790400Y109600D01*
X790800D01*
X790400Y110000D01*
X790800Y110400D01*
X790400D01*
X790000Y110800D01*
X789600Y110400D01*
X789200D01*
X789600Y110000D01*
X789200Y109600D01*
X789600D01*
X790000Y109200D01*
X810000Y39200D02*
X809200Y40800D01*
X810800D01*
X810000Y39200D01*
X835673D02*
X834873Y40800D01*
X836473D01*
X835673Y39200D01*
X810000Y49200D02*
X809200Y50800D01*
X810800D01*
X810000Y49200D01*
X835673D02*
X834873Y50800D01*
X836473D01*
X835673Y49200D01*
X810000Y59200D02*
X809200Y60800D01*
X810800D01*
X810000Y59200D01*
X835673D02*
X834873Y60800D01*
X836473D01*
X835673Y59200D01*
X810000Y69200D02*
X809200Y70800D01*
X810800D01*
X810000Y69200D01*
X835673D02*
X834873Y70800D01*
X836473D01*
X835673Y69200D01*
X810000Y79200D02*
X809200Y80800D01*
X810800D01*
X810000Y79200D01*
X835673D02*
X834873Y80800D01*
X836473D01*
X835673Y79200D01*
X810000Y99200D02*
X809200Y100800D01*
X810800D01*
X810000Y99200D01*
X835673D02*
X834873Y100800D01*
X836473D01*
X835673Y99200D01*
X810000Y119200D02*
X809200Y120800D01*
X810800D01*
X810000Y119200D01*
X835673D02*
X834873Y120800D01*
X836473D01*
X835673Y119200D01*
X750594Y150920D02*
Y150521D01*
X751394D01*
Y150920D01*
X751794D01*
Y151720D01*
X751394D01*
Y152120D01*
X750594D01*
Y151720D01*
X750194D01*
Y150920D01*
X750594D01*
X728546D02*
Y150521D01*
X729346D01*
Y150920D01*
X729746D01*
Y151720D01*
X729346D01*
Y152120D01*
X728546D01*
Y151720D01*
X728146D01*
Y150920D01*
X728546D01*
D74*
X820800Y20000D02*
G03*
X820800Y20000I-800J0D01*
G01*
X800800Y60000D02*
G03*
X800800Y60000I-800J0D01*
G01*
X780800Y20000D02*
G03*
X780800Y20000I-800J0D01*
G01*
X740800Y100000D02*
G03*
X740800Y100000I-800J0D01*
G01*
X680800Y60000D02*
G03*
X680800Y60000I-800J0D01*
G01*
X560800D02*
G03*
X560800Y60000I-800J0D01*
G01*
X500800Y100000D02*
G03*
X500800Y100000I-800J0D01*
G01*
X520800Y60000D02*
G03*
X520800Y60000I-800J0D01*
G01*
X420800Y100000D02*
G03*
X420800Y100000I-800J0D01*
G01*
X380800D02*
G03*
X380800Y100000I-800J0D01*
G01*
X300800D02*
G03*
X300800Y100000I-800J0D01*
G01*
X320800Y60000D02*
G03*
X320800Y60000I-800J0D01*
G01*
X260800Y100000D02*
G03*
X260800Y100000I-800J0D01*
G01*
X220800D02*
G03*
X220800Y100000I-800J0D01*
G01*
X240800Y60000D02*
G03*
X240800Y60000I-800J0D01*
G01*
X180800Y100000D02*
G03*
X180800Y100000I-800J0D01*
G01*
X160800Y60000D02*
G03*
X160800Y60000I-800J0D01*
G01*
X100800Y100000D02*
G03*
X100800Y100000I-800J0D01*
G01*
X60800D02*
G03*
X60800Y100000I-800J0D01*
G01*
X80800Y60000D02*
G03*
X80800Y60000I-800J0D01*
G01*
X277469Y26375D02*
G03*
X277469Y26375I-800J0D01*
G01*
X479469D02*
G03*
X479469Y26375I-800J0D01*
G01*
X681437Y29975D02*
G03*
X681437Y29975I-800J0D01*
G01*
X479437D02*
G03*
X479437Y29975I-800J0D01*
G01*
X277437D02*
G03*
X277437Y29975I-800J0D01*
G01*
X95432Y121470D02*
G03*
X95432Y121470I-800J0D01*
G01*
X260711Y30075D02*
G03*
X260711Y30075I-800J0D01*
G01*
X462711D02*
G03*
X462711Y30075I-800J0D01*
G01*
X664679Y33675D02*
G03*
X664679Y33675I-800J0D01*
G01*
X462679D02*
G03*
X462679Y33675I-800J0D01*
G01*
X260679D02*
G03*
X260679Y33675I-800J0D01*
G01*
X86649Y136231D02*
G03*
X86649Y136231I-800J0D01*
G01*
X264642Y33675D02*
G03*
X264642Y33675I-800J0D01*
G01*
X466642D02*
G03*
X466642Y33675I-800J0D01*
G01*
X668610Y37275D02*
G03*
X668610Y37275I-800J0D01*
G01*
X466610D02*
G03*
X466610Y37275I-800J0D01*
G01*
X264610D02*
G03*
X264610Y37275I-800J0D01*
G01*
X90816Y140231D02*
G03*
X90816Y140231I-800J0D01*
G01*
X273577Y44541D02*
G03*
X273577Y44541I-800J0D01*
G01*
X475446Y37275D02*
G03*
X475446Y37275I-800J0D01*
G01*
X677414Y40875D02*
G03*
X677414Y40875I-800J0D01*
G01*
X475414D02*
G03*
X475414Y40875I-800J0D01*
G01*
X282800Y47500D02*
G03*
X282800Y47500I-800J0D01*
G01*
X95863Y144230D02*
G03*
X95863Y144230I-800J0D01*
G01*
X592904Y26425D02*
G03*
X592904Y26425I-800J0D01*
G01*
X390903D02*
G03*
X390903Y26425I-800J0D01*
G01*
X188935Y22825D02*
G03*
X188935Y22825I-800J0D01*
G01*
X390936D02*
G03*
X390936Y22825I-800J0D01*
G01*
X592936D02*
G03*
X592936Y22825I-800J0D01*
G01*
X784800Y95000D02*
G03*
X784800Y95000I-800J0D01*
G01*
X383150Y4875D02*
G03*
X383150Y4875I-800J0D01*
G01*
X785555Y35492D02*
G03*
X785555Y35492I-800J0D01*
G01*
X430792Y62548D02*
G03*
X430792Y62548I-800J0D01*
G01*
X234306Y15675D02*
G03*
X234306Y15675I-800J0D01*
G01*
X436306D02*
G03*
X436306Y15675I-800J0D01*
G01*
X638306D02*
G03*
X638306Y15675I-800J0D01*
G01*
X792003Y146752D02*
G03*
X792003Y146752I-800J0D01*
G01*
X619824Y22839D02*
G03*
X619824Y22839I-800J0D01*
G01*
X422143Y64389D02*
G03*
X422143Y64389I-800J0D01*
G01*
X225254Y19239D02*
G03*
X225254Y19239I-800J0D01*
G01*
X427254D02*
G03*
X427254Y19239I-800J0D01*
G01*
X629254D02*
G03*
X629254Y19239I-800J0D01*
G01*
X789724Y141931D02*
G03*
X789724Y141931I-800J0D01*
G01*
X585075Y12075D02*
G03*
X585075Y12075I-800J0D01*
G01*
X383075D02*
G03*
X383075Y12075I-800J0D01*
G01*
X181107Y8475D02*
G03*
X181107Y8475I-800J0D01*
G01*
X784300Y55000D02*
G03*
X784300Y55000I-800J0D01*
G01*
X583686Y8475D02*
G03*
X583686Y8475I-800J0D01*
G01*
X381686D02*
G03*
X381686Y8475I-800J0D01*
G01*
X179718Y4875D02*
G03*
X179718Y4875I-800J0D01*
G01*
X583718D02*
G03*
X583718Y4875I-800J0D01*
G01*
X784284Y44802D02*
G03*
X784284Y44802I-800J0D01*
G01*
X586695Y15629D02*
G03*
X586695Y15629I-800J0D01*
G01*
X384695D02*
G03*
X384695Y15629I-800J0D01*
G01*
X182727Y12029D02*
G03*
X182727Y12029I-800J0D01*
G01*
X784300Y64500D02*
G03*
X784300Y64500I-800J0D01*
G01*
X432800Y61000D02*
G03*
X432800Y61000I-800J0D01*
G01*
X422713Y17505D02*
G03*
X422713Y17505I-800J0D01*
G01*
X430300Y70000D02*
G03*
X430300Y70000I-800J0D01*
G01*
X408087Y21039D02*
G03*
X408087Y21039I-800J0D01*
G01*
X716800Y69000D02*
G03*
X716800Y69000I-800J0D01*
G01*
X26300Y148500D02*
G03*
X26300Y148500I-800J0D01*
G01*
X36737Y147439D02*
G03*
X36737Y147439I-800J0D01*
G01*
X42800Y139500D02*
G03*
X42800Y139500I-800J0D01*
G01*
X719300Y150000D02*
G03*
X719300Y150000I-800J0D01*
G01*
X748800Y130000D02*
G03*
X748800Y130000I-800J0D01*
G01*
X750800Y135000D02*
G03*
X750800Y135000I-800J0D01*
G01*
X706800Y62000D02*
G03*
X706800Y62000I-800J0D01*
G01*
X696800Y147000D02*
G03*
X696800Y147000I-800J0D01*
G01*
X716300Y104500D02*
G03*
X716300Y104500I-800J0D01*
G01*
X678800D02*
G03*
X678800Y104500I-800J0D01*
G01*
X728300Y118000D02*
G03*
X728300Y118000I-800J0D01*
G01*
X232739Y43016D02*
G03*
X232739Y43016I-800J0D01*
G01*
X273800Y42500D02*
G03*
X273800Y42500I-800J0D01*
G01*
X280800Y98500D02*
G03*
X280800Y98500I-800J0D01*
G01*
X272800Y104000D02*
G03*
X272800Y104000I-800J0D01*
G01*
X232800Y103000D02*
G03*
X232800Y103000I-800J0D01*
G01*
X216800Y99500D02*
G03*
X216800Y99500I-800J0D01*
G01*
X276800Y58000D02*
G03*
X276800Y58000I-800J0D01*
G01*
X267300Y67000D02*
G03*
X267300Y67000I-800J0D01*
G01*
X238800D02*
G03*
X238800Y67000I-800J0D01*
G01*
X216800Y58500D02*
G03*
X216800Y58500I-800J0D01*
G01*
X299800Y62000D02*
G03*
X299800Y62000I-800J0D01*
G01*
X368300Y126500D02*
G03*
X368300Y126500I-800J0D01*
G01*
X326800Y102000D02*
G03*
X326800Y102000I-800J0D01*
G01*
X342300Y48500D02*
G03*
X342300Y48500I-800J0D01*
G01*
M02*
